G04 #@! TF.GenerationSoftware,KiCad,Pcbnew,(5.1.4)-1*
G04 #@! TF.CreationDate,2019-11-14T00:10:30-06:00*
G04 #@! TF.ProjectId,USB_Serial,5553425f-5365-4726-9961-6c2e6b696361,rev?*
G04 #@! TF.SameCoordinates,Original*
G04 #@! TF.FileFunction,Copper,L2,Bot*
G04 #@! TF.FilePolarity,Positive*
%FSLAX46Y46*%
G04 Gerber Fmt 4.6, Leading zero omitted, Abs format (unit mm)*
G04 Created by KiCad (PCBNEW (5.1.4)-1) date 2019-11-14 00:10:30*
%MOMM*%
%LPD*%
G04 APERTURE LIST*
%ADD10O,1.700000X1.700000*%
%ADD11R,1.700000X1.700000*%
%ADD12C,0.685800*%
%ADD13C,0.800000*%
%ADD14C,0.152400*%
%ADD15C,0.254000*%
G04 APERTURE END LIST*
D10*
X170500000Y-68980000D03*
X170500000Y-71520000D03*
X170500000Y-74060000D03*
D11*
X170500000Y-76600000D03*
D12*
X150500000Y-70000000D03*
X150500000Y-75000000D03*
D13*
X154500000Y-68500000D03*
X162750000Y-69000000D03*
X159750000Y-74750000D03*
X169500000Y-80500000D03*
X158750000Y-72250000D03*
X158750000Y-80500000D03*
D14*
X150500000Y-70000000D02*
X150500000Y-75000000D01*
X158750000Y-72250000D02*
X158750000Y-80500000D01*
D15*
G36*
X180224000Y-81844000D02*
G01*
X143906000Y-81844000D01*
X143906000Y-69928702D01*
X149776100Y-69928702D01*
X149776100Y-70071298D01*
X149803919Y-70211154D01*
X149858488Y-70342895D01*
X149937710Y-70461460D01*
X150038540Y-70562290D01*
X150042800Y-70565136D01*
X150042801Y-74434863D01*
X150038540Y-74437710D01*
X149937710Y-74538540D01*
X149858488Y-74657105D01*
X149803919Y-74788846D01*
X149776100Y-74928702D01*
X149776100Y-75071298D01*
X149803919Y-75211154D01*
X149858488Y-75342895D01*
X149937710Y-75461460D01*
X150038540Y-75562290D01*
X150157105Y-75641512D01*
X150288846Y-75696081D01*
X150428702Y-75723900D01*
X150571298Y-75723900D01*
X150711154Y-75696081D01*
X150842895Y-75641512D01*
X150961460Y-75562290D01*
X151062290Y-75461460D01*
X151141512Y-75342895D01*
X151196081Y-75211154D01*
X151223900Y-75071298D01*
X151223900Y-74928702D01*
X151196081Y-74788846D01*
X151141512Y-74657105D01*
X151062290Y-74538540D01*
X150961460Y-74437710D01*
X150957200Y-74434864D01*
X150957200Y-72173078D01*
X157969000Y-72173078D01*
X157969000Y-72326922D01*
X157999013Y-72477809D01*
X158057887Y-72619942D01*
X158143358Y-72747859D01*
X158252141Y-72856642D01*
X158292800Y-72883809D01*
X158292801Y-79866190D01*
X158252141Y-79893358D01*
X158143358Y-80002141D01*
X158057887Y-80130058D01*
X157999013Y-80272191D01*
X157969000Y-80423078D01*
X157969000Y-80576922D01*
X157999013Y-80727809D01*
X158057887Y-80869942D01*
X158143358Y-80997859D01*
X158252141Y-81106642D01*
X158380058Y-81192113D01*
X158522191Y-81250987D01*
X158673078Y-81281000D01*
X158826922Y-81281000D01*
X158977809Y-81250987D01*
X159119942Y-81192113D01*
X159247859Y-81106642D01*
X159356642Y-80997859D01*
X159442113Y-80869942D01*
X159500987Y-80727809D01*
X159531000Y-80576922D01*
X159531000Y-80423078D01*
X159500987Y-80272191D01*
X159442113Y-80130058D01*
X159356642Y-80002141D01*
X159247859Y-79893358D01*
X159207200Y-79866191D01*
X159207200Y-75750000D01*
X169267157Y-75750000D01*
X169267157Y-77450000D01*
X169274513Y-77524689D01*
X169296299Y-77596508D01*
X169331678Y-77662696D01*
X169379289Y-77720711D01*
X169437304Y-77768322D01*
X169503492Y-77803701D01*
X169575311Y-77825487D01*
X169650000Y-77832843D01*
X171350000Y-77832843D01*
X171424689Y-77825487D01*
X171496508Y-77803701D01*
X171562696Y-77768322D01*
X171620711Y-77720711D01*
X171668322Y-77662696D01*
X171703701Y-77596508D01*
X171725487Y-77524689D01*
X171732843Y-77450000D01*
X171732843Y-75750000D01*
X171725487Y-75675311D01*
X171703701Y-75603492D01*
X171668322Y-75537304D01*
X171620711Y-75479289D01*
X171562696Y-75431678D01*
X171496508Y-75396299D01*
X171424689Y-75374513D01*
X171350000Y-75367157D01*
X169650000Y-75367157D01*
X169575311Y-75374513D01*
X169503492Y-75396299D01*
X169437304Y-75431678D01*
X169379289Y-75479289D01*
X169331678Y-75537304D01*
X169296299Y-75603492D01*
X169274513Y-75675311D01*
X169267157Y-75750000D01*
X159207200Y-75750000D01*
X159207200Y-74060000D01*
X169263044Y-74060000D01*
X169286812Y-74301318D01*
X169357202Y-74533363D01*
X169471509Y-74747216D01*
X169625340Y-74934660D01*
X169812784Y-75088491D01*
X170026637Y-75202798D01*
X170258682Y-75273188D01*
X170439528Y-75291000D01*
X170560472Y-75291000D01*
X170741318Y-75273188D01*
X170973363Y-75202798D01*
X171187216Y-75088491D01*
X171374660Y-74934660D01*
X171528491Y-74747216D01*
X171642798Y-74533363D01*
X171713188Y-74301318D01*
X171736956Y-74060000D01*
X171713188Y-73818682D01*
X171642798Y-73586637D01*
X171528491Y-73372784D01*
X171374660Y-73185340D01*
X171187216Y-73031509D01*
X170973363Y-72917202D01*
X170741318Y-72846812D01*
X170560472Y-72829000D01*
X170439528Y-72829000D01*
X170258682Y-72846812D01*
X170026637Y-72917202D01*
X169812784Y-73031509D01*
X169625340Y-73185340D01*
X169471509Y-73372784D01*
X169357202Y-73586637D01*
X169286812Y-73818682D01*
X169263044Y-74060000D01*
X159207200Y-74060000D01*
X159207200Y-72883809D01*
X159247859Y-72856642D01*
X159356642Y-72747859D01*
X159442113Y-72619942D01*
X159500987Y-72477809D01*
X159531000Y-72326922D01*
X159531000Y-72173078D01*
X159500987Y-72022191D01*
X159442113Y-71880058D01*
X159356642Y-71752141D01*
X159247859Y-71643358D01*
X159119942Y-71557887D01*
X158977809Y-71499013D01*
X158826922Y-71469000D01*
X158673078Y-71469000D01*
X158522191Y-71499013D01*
X158380058Y-71557887D01*
X158252141Y-71643358D01*
X158143358Y-71752141D01*
X158057887Y-71880058D01*
X157999013Y-72022191D01*
X157969000Y-72173078D01*
X150957200Y-72173078D01*
X150957200Y-70565136D01*
X150961460Y-70562290D01*
X151062290Y-70461460D01*
X151141512Y-70342895D01*
X151196081Y-70211154D01*
X151223900Y-70071298D01*
X151223900Y-69928702D01*
X151196081Y-69788846D01*
X151141512Y-69657105D01*
X151062290Y-69538540D01*
X150961460Y-69437710D01*
X150842895Y-69358488D01*
X150790753Y-69336890D01*
X169058524Y-69336890D01*
X169103175Y-69484099D01*
X169228359Y-69746920D01*
X169402412Y-69980269D01*
X169618645Y-70175178D01*
X169868748Y-70324157D01*
X170023305Y-70378983D01*
X169812784Y-70491509D01*
X169625340Y-70645340D01*
X169471509Y-70832784D01*
X169357202Y-71046637D01*
X169286812Y-71278682D01*
X169263044Y-71520000D01*
X169286812Y-71761318D01*
X169357202Y-71993363D01*
X169471509Y-72207216D01*
X169625340Y-72394660D01*
X169812784Y-72548491D01*
X170026637Y-72662798D01*
X170258682Y-72733188D01*
X170439528Y-72751000D01*
X170560472Y-72751000D01*
X170741318Y-72733188D01*
X170973363Y-72662798D01*
X171187216Y-72548491D01*
X171374660Y-72394660D01*
X171528491Y-72207216D01*
X171642798Y-71993363D01*
X171713188Y-71761318D01*
X171736956Y-71520000D01*
X171713188Y-71278682D01*
X171642798Y-71046637D01*
X171528491Y-70832784D01*
X171374660Y-70645340D01*
X171187216Y-70491509D01*
X170976695Y-70378983D01*
X171131252Y-70324157D01*
X171381355Y-70175178D01*
X171597588Y-69980269D01*
X171771641Y-69746920D01*
X171896825Y-69484099D01*
X171941476Y-69336890D01*
X171820155Y-69107000D01*
X170627000Y-69107000D01*
X170627000Y-69127000D01*
X170373000Y-69127000D01*
X170373000Y-69107000D01*
X169179845Y-69107000D01*
X169058524Y-69336890D01*
X150790753Y-69336890D01*
X150711154Y-69303919D01*
X150571298Y-69276100D01*
X150428702Y-69276100D01*
X150288846Y-69303919D01*
X150157105Y-69358488D01*
X150038540Y-69437710D01*
X149937710Y-69538540D01*
X149858488Y-69657105D01*
X149803919Y-69788846D01*
X149776100Y-69928702D01*
X143906000Y-69928702D01*
X143906000Y-68623110D01*
X169058524Y-68623110D01*
X169179845Y-68853000D01*
X170373000Y-68853000D01*
X170373000Y-67659186D01*
X170627000Y-67659186D01*
X170627000Y-68853000D01*
X171820155Y-68853000D01*
X171941476Y-68623110D01*
X171896825Y-68475901D01*
X171771641Y-68213080D01*
X171597588Y-67979731D01*
X171381355Y-67784822D01*
X171131252Y-67635843D01*
X170856891Y-67538519D01*
X170627000Y-67659186D01*
X170373000Y-67659186D01*
X170143109Y-67538519D01*
X169868748Y-67635843D01*
X169618645Y-67784822D01*
X169402412Y-67979731D01*
X169228359Y-68213080D01*
X169103175Y-68475901D01*
X169058524Y-68623110D01*
X143906000Y-68623110D01*
X143906000Y-63656000D01*
X180224001Y-63656000D01*
X180224000Y-81844000D01*
X180224000Y-81844000D01*
G37*
X180224000Y-81844000D02*
X143906000Y-81844000D01*
X143906000Y-69928702D01*
X149776100Y-69928702D01*
X149776100Y-70071298D01*
X149803919Y-70211154D01*
X149858488Y-70342895D01*
X149937710Y-70461460D01*
X150038540Y-70562290D01*
X150042800Y-70565136D01*
X150042801Y-74434863D01*
X150038540Y-74437710D01*
X149937710Y-74538540D01*
X149858488Y-74657105D01*
X149803919Y-74788846D01*
X149776100Y-74928702D01*
X149776100Y-75071298D01*
X149803919Y-75211154D01*
X149858488Y-75342895D01*
X149937710Y-75461460D01*
X150038540Y-75562290D01*
X150157105Y-75641512D01*
X150288846Y-75696081D01*
X150428702Y-75723900D01*
X150571298Y-75723900D01*
X150711154Y-75696081D01*
X150842895Y-75641512D01*
X150961460Y-75562290D01*
X151062290Y-75461460D01*
X151141512Y-75342895D01*
X151196081Y-75211154D01*
X151223900Y-75071298D01*
X151223900Y-74928702D01*
X151196081Y-74788846D01*
X151141512Y-74657105D01*
X151062290Y-74538540D01*
X150961460Y-74437710D01*
X150957200Y-74434864D01*
X150957200Y-72173078D01*
X157969000Y-72173078D01*
X157969000Y-72326922D01*
X157999013Y-72477809D01*
X158057887Y-72619942D01*
X158143358Y-72747859D01*
X158252141Y-72856642D01*
X158292800Y-72883809D01*
X158292801Y-79866190D01*
X158252141Y-79893358D01*
X158143358Y-80002141D01*
X158057887Y-80130058D01*
X157999013Y-80272191D01*
X157969000Y-80423078D01*
X157969000Y-80576922D01*
X157999013Y-80727809D01*
X158057887Y-80869942D01*
X158143358Y-80997859D01*
X158252141Y-81106642D01*
X158380058Y-81192113D01*
X158522191Y-81250987D01*
X158673078Y-81281000D01*
X158826922Y-81281000D01*
X158977809Y-81250987D01*
X159119942Y-81192113D01*
X159247859Y-81106642D01*
X159356642Y-80997859D01*
X159442113Y-80869942D01*
X159500987Y-80727809D01*
X159531000Y-80576922D01*
X159531000Y-80423078D01*
X159500987Y-80272191D01*
X159442113Y-80130058D01*
X159356642Y-80002141D01*
X159247859Y-79893358D01*
X159207200Y-79866191D01*
X159207200Y-75750000D01*
X169267157Y-75750000D01*
X169267157Y-77450000D01*
X169274513Y-77524689D01*
X169296299Y-77596508D01*
X169331678Y-77662696D01*
X169379289Y-77720711D01*
X169437304Y-77768322D01*
X169503492Y-77803701D01*
X169575311Y-77825487D01*
X169650000Y-77832843D01*
X171350000Y-77832843D01*
X171424689Y-77825487D01*
X171496508Y-77803701D01*
X171562696Y-77768322D01*
X171620711Y-77720711D01*
X171668322Y-77662696D01*
X171703701Y-77596508D01*
X171725487Y-77524689D01*
X171732843Y-77450000D01*
X171732843Y-75750000D01*
X171725487Y-75675311D01*
X171703701Y-75603492D01*
X171668322Y-75537304D01*
X171620711Y-75479289D01*
X171562696Y-75431678D01*
X171496508Y-75396299D01*
X171424689Y-75374513D01*
X171350000Y-75367157D01*
X169650000Y-75367157D01*
X169575311Y-75374513D01*
X169503492Y-75396299D01*
X169437304Y-75431678D01*
X169379289Y-75479289D01*
X169331678Y-75537304D01*
X169296299Y-75603492D01*
X169274513Y-75675311D01*
X169267157Y-75750000D01*
X159207200Y-75750000D01*
X159207200Y-74060000D01*
X169263044Y-74060000D01*
X169286812Y-74301318D01*
X169357202Y-74533363D01*
X169471509Y-74747216D01*
X169625340Y-74934660D01*
X169812784Y-75088491D01*
X170026637Y-75202798D01*
X170258682Y-75273188D01*
X170439528Y-75291000D01*
X170560472Y-75291000D01*
X170741318Y-75273188D01*
X170973363Y-75202798D01*
X171187216Y-75088491D01*
X171374660Y-74934660D01*
X171528491Y-74747216D01*
X171642798Y-74533363D01*
X171713188Y-74301318D01*
X171736956Y-74060000D01*
X171713188Y-73818682D01*
X171642798Y-73586637D01*
X171528491Y-73372784D01*
X171374660Y-73185340D01*
X171187216Y-73031509D01*
X170973363Y-72917202D01*
X170741318Y-72846812D01*
X170560472Y-72829000D01*
X170439528Y-72829000D01*
X170258682Y-72846812D01*
X170026637Y-72917202D01*
X169812784Y-73031509D01*
X169625340Y-73185340D01*
X169471509Y-73372784D01*
X169357202Y-73586637D01*
X169286812Y-73818682D01*
X169263044Y-74060000D01*
X159207200Y-74060000D01*
X159207200Y-72883809D01*
X159247859Y-72856642D01*
X159356642Y-72747859D01*
X159442113Y-72619942D01*
X159500987Y-72477809D01*
X159531000Y-72326922D01*
X159531000Y-72173078D01*
X159500987Y-72022191D01*
X159442113Y-71880058D01*
X159356642Y-71752141D01*
X159247859Y-71643358D01*
X159119942Y-71557887D01*
X158977809Y-71499013D01*
X158826922Y-71469000D01*
X158673078Y-71469000D01*
X158522191Y-71499013D01*
X158380058Y-71557887D01*
X158252141Y-71643358D01*
X158143358Y-71752141D01*
X158057887Y-71880058D01*
X157999013Y-72022191D01*
X157969000Y-72173078D01*
X150957200Y-72173078D01*
X150957200Y-70565136D01*
X150961460Y-70562290D01*
X151062290Y-70461460D01*
X151141512Y-70342895D01*
X151196081Y-70211154D01*
X151223900Y-70071298D01*
X151223900Y-69928702D01*
X151196081Y-69788846D01*
X151141512Y-69657105D01*
X151062290Y-69538540D01*
X150961460Y-69437710D01*
X150842895Y-69358488D01*
X150790753Y-69336890D01*
X169058524Y-69336890D01*
X169103175Y-69484099D01*
X169228359Y-69746920D01*
X169402412Y-69980269D01*
X169618645Y-70175178D01*
X169868748Y-70324157D01*
X170023305Y-70378983D01*
X169812784Y-70491509D01*
X169625340Y-70645340D01*
X169471509Y-70832784D01*
X169357202Y-71046637D01*
X169286812Y-71278682D01*
X169263044Y-71520000D01*
X169286812Y-71761318D01*
X169357202Y-71993363D01*
X169471509Y-72207216D01*
X169625340Y-72394660D01*
X169812784Y-72548491D01*
X170026637Y-72662798D01*
X170258682Y-72733188D01*
X170439528Y-72751000D01*
X170560472Y-72751000D01*
X170741318Y-72733188D01*
X170973363Y-72662798D01*
X171187216Y-72548491D01*
X171374660Y-72394660D01*
X171528491Y-72207216D01*
X171642798Y-71993363D01*
X171713188Y-71761318D01*
X171736956Y-71520000D01*
X171713188Y-71278682D01*
X171642798Y-71046637D01*
X171528491Y-70832784D01*
X171374660Y-70645340D01*
X171187216Y-70491509D01*
X170976695Y-70378983D01*
X171131252Y-70324157D01*
X171381355Y-70175178D01*
X171597588Y-69980269D01*
X171771641Y-69746920D01*
X171896825Y-69484099D01*
X171941476Y-69336890D01*
X171820155Y-69107000D01*
X170627000Y-69107000D01*
X170627000Y-69127000D01*
X170373000Y-69127000D01*
X170373000Y-69107000D01*
X169179845Y-69107000D01*
X169058524Y-69336890D01*
X150790753Y-69336890D01*
X150711154Y-69303919D01*
X150571298Y-69276100D01*
X150428702Y-69276100D01*
X150288846Y-69303919D01*
X150157105Y-69358488D01*
X150038540Y-69437710D01*
X149937710Y-69538540D01*
X149858488Y-69657105D01*
X149803919Y-69788846D01*
X149776100Y-69928702D01*
X143906000Y-69928702D01*
X143906000Y-68623110D01*
X169058524Y-68623110D01*
X169179845Y-68853000D01*
X170373000Y-68853000D01*
X170373000Y-67659186D01*
X170627000Y-67659186D01*
X170627000Y-68853000D01*
X171820155Y-68853000D01*
X171941476Y-68623110D01*
X171896825Y-68475901D01*
X171771641Y-68213080D01*
X171597588Y-67979731D01*
X171381355Y-67784822D01*
X171131252Y-67635843D01*
X170856891Y-67538519D01*
X170627000Y-67659186D01*
X170373000Y-67659186D01*
X170143109Y-67538519D01*
X169868748Y-67635843D01*
X169618645Y-67784822D01*
X169402412Y-67979731D01*
X169228359Y-68213080D01*
X169103175Y-68475901D01*
X169058524Y-68623110D01*
X143906000Y-68623110D01*
X143906000Y-63656000D01*
X180224001Y-63656000D01*
X180224000Y-81844000D01*
M02*
