G04 #@! TF.GenerationSoftware,KiCad,Pcbnew,(5.1.4)-1*
G04 #@! TF.CreationDate,2019-11-14T00:10:30-06:00*
G04 #@! TF.ProjectId,USB_Serial,5553425f-5365-4726-9961-6c2e6b696361,rev?*
G04 #@! TF.SameCoordinates,Original*
G04 #@! TF.FileFunction,Copper,L1,Top*
G04 #@! TF.FilePolarity,Positive*
%FSLAX46Y46*%
G04 Gerber Fmt 4.6, Leading zero omitted, Abs format (unit mm)*
G04 Created by KiCad (PCBNEW (5.1.4)-1) date 2019-11-14 00:10:30*
%MOMM*%
%LPD*%
G04 APERTURE LIST*
%ADD10C,0.100000*%
%ADD11C,0.975000*%
%ADD12O,1.700000X1.700000*%
%ADD13R,1.700000X1.700000*%
%ADD14R,0.400000X1.200000*%
%ADD15R,1.900000X1.175000*%
%ADD16R,1.900000X2.375000*%
%ADD17R,2.100000X1.475000*%
%ADD18R,1.380000X0.450000*%
%ADD19C,0.685800*%
%ADD20C,0.800000*%
%ADD21C,0.152400*%
%ADD22C,0.254000*%
G04 APERTURE END LIST*
D10*
G36*
X166955142Y-79801174D02*
G01*
X166978803Y-79804684D01*
X167002007Y-79810496D01*
X167024529Y-79818554D01*
X167046153Y-79828782D01*
X167066670Y-79841079D01*
X167085883Y-79855329D01*
X167103607Y-79871393D01*
X167119671Y-79889117D01*
X167133921Y-79908330D01*
X167146218Y-79928847D01*
X167156446Y-79950471D01*
X167164504Y-79972993D01*
X167170316Y-79996197D01*
X167173826Y-80019858D01*
X167175000Y-80043750D01*
X167175000Y-80956250D01*
X167173826Y-80980142D01*
X167170316Y-81003803D01*
X167164504Y-81027007D01*
X167156446Y-81049529D01*
X167146218Y-81071153D01*
X167133921Y-81091670D01*
X167119671Y-81110883D01*
X167103607Y-81128607D01*
X167085883Y-81144671D01*
X167066670Y-81158921D01*
X167046153Y-81171218D01*
X167024529Y-81181446D01*
X167002007Y-81189504D01*
X166978803Y-81195316D01*
X166955142Y-81198826D01*
X166931250Y-81200000D01*
X166443750Y-81200000D01*
X166419858Y-81198826D01*
X166396197Y-81195316D01*
X166372993Y-81189504D01*
X166350471Y-81181446D01*
X166328847Y-81171218D01*
X166308330Y-81158921D01*
X166289117Y-81144671D01*
X166271393Y-81128607D01*
X166255329Y-81110883D01*
X166241079Y-81091670D01*
X166228782Y-81071153D01*
X166218554Y-81049529D01*
X166210496Y-81027007D01*
X166204684Y-81003803D01*
X166201174Y-80980142D01*
X166200000Y-80956250D01*
X166200000Y-80043750D01*
X166201174Y-80019858D01*
X166204684Y-79996197D01*
X166210496Y-79972993D01*
X166218554Y-79950471D01*
X166228782Y-79928847D01*
X166241079Y-79908330D01*
X166255329Y-79889117D01*
X166271393Y-79871393D01*
X166289117Y-79855329D01*
X166308330Y-79841079D01*
X166328847Y-79828782D01*
X166350471Y-79818554D01*
X166372993Y-79810496D01*
X166396197Y-79804684D01*
X166419858Y-79801174D01*
X166443750Y-79800000D01*
X166931250Y-79800000D01*
X166955142Y-79801174D01*
X166955142Y-79801174D01*
G37*
D11*
X166687500Y-80500000D03*
D10*
G36*
X165080142Y-79801174D02*
G01*
X165103803Y-79804684D01*
X165127007Y-79810496D01*
X165149529Y-79818554D01*
X165171153Y-79828782D01*
X165191670Y-79841079D01*
X165210883Y-79855329D01*
X165228607Y-79871393D01*
X165244671Y-79889117D01*
X165258921Y-79908330D01*
X165271218Y-79928847D01*
X165281446Y-79950471D01*
X165289504Y-79972993D01*
X165295316Y-79996197D01*
X165298826Y-80019858D01*
X165300000Y-80043750D01*
X165300000Y-80956250D01*
X165298826Y-80980142D01*
X165295316Y-81003803D01*
X165289504Y-81027007D01*
X165281446Y-81049529D01*
X165271218Y-81071153D01*
X165258921Y-81091670D01*
X165244671Y-81110883D01*
X165228607Y-81128607D01*
X165210883Y-81144671D01*
X165191670Y-81158921D01*
X165171153Y-81171218D01*
X165149529Y-81181446D01*
X165127007Y-81189504D01*
X165103803Y-81195316D01*
X165080142Y-81198826D01*
X165056250Y-81200000D01*
X164568750Y-81200000D01*
X164544858Y-81198826D01*
X164521197Y-81195316D01*
X164497993Y-81189504D01*
X164475471Y-81181446D01*
X164453847Y-81171218D01*
X164433330Y-81158921D01*
X164414117Y-81144671D01*
X164396393Y-81128607D01*
X164380329Y-81110883D01*
X164366079Y-81091670D01*
X164353782Y-81071153D01*
X164343554Y-81049529D01*
X164335496Y-81027007D01*
X164329684Y-81003803D01*
X164326174Y-80980142D01*
X164325000Y-80956250D01*
X164325000Y-80043750D01*
X164326174Y-80019858D01*
X164329684Y-79996197D01*
X164335496Y-79972993D01*
X164343554Y-79950471D01*
X164353782Y-79928847D01*
X164366079Y-79908330D01*
X164380329Y-79889117D01*
X164396393Y-79871393D01*
X164414117Y-79855329D01*
X164433330Y-79841079D01*
X164453847Y-79828782D01*
X164475471Y-79818554D01*
X164497993Y-79810496D01*
X164521197Y-79804684D01*
X164544858Y-79801174D01*
X164568750Y-79800000D01*
X165056250Y-79800000D01*
X165080142Y-79801174D01*
X165080142Y-79801174D01*
G37*
D11*
X164812500Y-80500000D03*
D10*
G36*
X166955142Y-77801174D02*
G01*
X166978803Y-77804684D01*
X167002007Y-77810496D01*
X167024529Y-77818554D01*
X167046153Y-77828782D01*
X167066670Y-77841079D01*
X167085883Y-77855329D01*
X167103607Y-77871393D01*
X167119671Y-77889117D01*
X167133921Y-77908330D01*
X167146218Y-77928847D01*
X167156446Y-77950471D01*
X167164504Y-77972993D01*
X167170316Y-77996197D01*
X167173826Y-78019858D01*
X167175000Y-78043750D01*
X167175000Y-78956250D01*
X167173826Y-78980142D01*
X167170316Y-79003803D01*
X167164504Y-79027007D01*
X167156446Y-79049529D01*
X167146218Y-79071153D01*
X167133921Y-79091670D01*
X167119671Y-79110883D01*
X167103607Y-79128607D01*
X167085883Y-79144671D01*
X167066670Y-79158921D01*
X167046153Y-79171218D01*
X167024529Y-79181446D01*
X167002007Y-79189504D01*
X166978803Y-79195316D01*
X166955142Y-79198826D01*
X166931250Y-79200000D01*
X166443750Y-79200000D01*
X166419858Y-79198826D01*
X166396197Y-79195316D01*
X166372993Y-79189504D01*
X166350471Y-79181446D01*
X166328847Y-79171218D01*
X166308330Y-79158921D01*
X166289117Y-79144671D01*
X166271393Y-79128607D01*
X166255329Y-79110883D01*
X166241079Y-79091670D01*
X166228782Y-79071153D01*
X166218554Y-79049529D01*
X166210496Y-79027007D01*
X166204684Y-79003803D01*
X166201174Y-78980142D01*
X166200000Y-78956250D01*
X166200000Y-78043750D01*
X166201174Y-78019858D01*
X166204684Y-77996197D01*
X166210496Y-77972993D01*
X166218554Y-77950471D01*
X166228782Y-77928847D01*
X166241079Y-77908330D01*
X166255329Y-77889117D01*
X166271393Y-77871393D01*
X166289117Y-77855329D01*
X166308330Y-77841079D01*
X166328847Y-77828782D01*
X166350471Y-77818554D01*
X166372993Y-77810496D01*
X166396197Y-77804684D01*
X166419858Y-77801174D01*
X166443750Y-77800000D01*
X166931250Y-77800000D01*
X166955142Y-77801174D01*
X166955142Y-77801174D01*
G37*
D11*
X166687500Y-78500000D03*
D10*
G36*
X165080142Y-77801174D02*
G01*
X165103803Y-77804684D01*
X165127007Y-77810496D01*
X165149529Y-77818554D01*
X165171153Y-77828782D01*
X165191670Y-77841079D01*
X165210883Y-77855329D01*
X165228607Y-77871393D01*
X165244671Y-77889117D01*
X165258921Y-77908330D01*
X165271218Y-77928847D01*
X165281446Y-77950471D01*
X165289504Y-77972993D01*
X165295316Y-77996197D01*
X165298826Y-78019858D01*
X165300000Y-78043750D01*
X165300000Y-78956250D01*
X165298826Y-78980142D01*
X165295316Y-79003803D01*
X165289504Y-79027007D01*
X165281446Y-79049529D01*
X165271218Y-79071153D01*
X165258921Y-79091670D01*
X165244671Y-79110883D01*
X165228607Y-79128607D01*
X165210883Y-79144671D01*
X165191670Y-79158921D01*
X165171153Y-79171218D01*
X165149529Y-79181446D01*
X165127007Y-79189504D01*
X165103803Y-79195316D01*
X165080142Y-79198826D01*
X165056250Y-79200000D01*
X164568750Y-79200000D01*
X164544858Y-79198826D01*
X164521197Y-79195316D01*
X164497993Y-79189504D01*
X164475471Y-79181446D01*
X164453847Y-79171218D01*
X164433330Y-79158921D01*
X164414117Y-79144671D01*
X164396393Y-79128607D01*
X164380329Y-79110883D01*
X164366079Y-79091670D01*
X164353782Y-79071153D01*
X164343554Y-79049529D01*
X164335496Y-79027007D01*
X164329684Y-79003803D01*
X164326174Y-78980142D01*
X164325000Y-78956250D01*
X164325000Y-78043750D01*
X164326174Y-78019858D01*
X164329684Y-77996197D01*
X164335496Y-77972993D01*
X164343554Y-77950471D01*
X164353782Y-77928847D01*
X164366079Y-77908330D01*
X164380329Y-77889117D01*
X164396393Y-77871393D01*
X164414117Y-77855329D01*
X164433330Y-77841079D01*
X164453847Y-77828782D01*
X164475471Y-77818554D01*
X164497993Y-77810496D01*
X164521197Y-77804684D01*
X164544858Y-77801174D01*
X164568750Y-77800000D01*
X165056250Y-77800000D01*
X165080142Y-77801174D01*
X165080142Y-77801174D01*
G37*
D11*
X164812500Y-78500000D03*
D10*
G36*
X154980142Y-64826174D02*
G01*
X155003803Y-64829684D01*
X155027007Y-64835496D01*
X155049529Y-64843554D01*
X155071153Y-64853782D01*
X155091670Y-64866079D01*
X155110883Y-64880329D01*
X155128607Y-64896393D01*
X155144671Y-64914117D01*
X155158921Y-64933330D01*
X155171218Y-64953847D01*
X155181446Y-64975471D01*
X155189504Y-64997993D01*
X155195316Y-65021197D01*
X155198826Y-65044858D01*
X155200000Y-65068750D01*
X155200000Y-65556250D01*
X155198826Y-65580142D01*
X155195316Y-65603803D01*
X155189504Y-65627007D01*
X155181446Y-65649529D01*
X155171218Y-65671153D01*
X155158921Y-65691670D01*
X155144671Y-65710883D01*
X155128607Y-65728607D01*
X155110883Y-65744671D01*
X155091670Y-65758921D01*
X155071153Y-65771218D01*
X155049529Y-65781446D01*
X155027007Y-65789504D01*
X155003803Y-65795316D01*
X154980142Y-65798826D01*
X154956250Y-65800000D01*
X154043750Y-65800000D01*
X154019858Y-65798826D01*
X153996197Y-65795316D01*
X153972993Y-65789504D01*
X153950471Y-65781446D01*
X153928847Y-65771218D01*
X153908330Y-65758921D01*
X153889117Y-65744671D01*
X153871393Y-65728607D01*
X153855329Y-65710883D01*
X153841079Y-65691670D01*
X153828782Y-65671153D01*
X153818554Y-65649529D01*
X153810496Y-65627007D01*
X153804684Y-65603803D01*
X153801174Y-65580142D01*
X153800000Y-65556250D01*
X153800000Y-65068750D01*
X153801174Y-65044858D01*
X153804684Y-65021197D01*
X153810496Y-64997993D01*
X153818554Y-64975471D01*
X153828782Y-64953847D01*
X153841079Y-64933330D01*
X153855329Y-64914117D01*
X153871393Y-64896393D01*
X153889117Y-64880329D01*
X153908330Y-64866079D01*
X153928847Y-64853782D01*
X153950471Y-64843554D01*
X153972993Y-64835496D01*
X153996197Y-64829684D01*
X154019858Y-64826174D01*
X154043750Y-64825000D01*
X154956250Y-64825000D01*
X154980142Y-64826174D01*
X154980142Y-64826174D01*
G37*
D11*
X154500000Y-65312500D03*
D10*
G36*
X154980142Y-66701174D02*
G01*
X155003803Y-66704684D01*
X155027007Y-66710496D01*
X155049529Y-66718554D01*
X155071153Y-66728782D01*
X155091670Y-66741079D01*
X155110883Y-66755329D01*
X155128607Y-66771393D01*
X155144671Y-66789117D01*
X155158921Y-66808330D01*
X155171218Y-66828847D01*
X155181446Y-66850471D01*
X155189504Y-66872993D01*
X155195316Y-66896197D01*
X155198826Y-66919858D01*
X155200000Y-66943750D01*
X155200000Y-67431250D01*
X155198826Y-67455142D01*
X155195316Y-67478803D01*
X155189504Y-67502007D01*
X155181446Y-67524529D01*
X155171218Y-67546153D01*
X155158921Y-67566670D01*
X155144671Y-67585883D01*
X155128607Y-67603607D01*
X155110883Y-67619671D01*
X155091670Y-67633921D01*
X155071153Y-67646218D01*
X155049529Y-67656446D01*
X155027007Y-67664504D01*
X155003803Y-67670316D01*
X154980142Y-67673826D01*
X154956250Y-67675000D01*
X154043750Y-67675000D01*
X154019858Y-67673826D01*
X153996197Y-67670316D01*
X153972993Y-67664504D01*
X153950471Y-67656446D01*
X153928847Y-67646218D01*
X153908330Y-67633921D01*
X153889117Y-67619671D01*
X153871393Y-67603607D01*
X153855329Y-67585883D01*
X153841079Y-67566670D01*
X153828782Y-67546153D01*
X153818554Y-67524529D01*
X153810496Y-67502007D01*
X153804684Y-67478803D01*
X153801174Y-67455142D01*
X153800000Y-67431250D01*
X153800000Y-66943750D01*
X153801174Y-66919858D01*
X153804684Y-66896197D01*
X153810496Y-66872993D01*
X153818554Y-66850471D01*
X153828782Y-66828847D01*
X153841079Y-66808330D01*
X153855329Y-66789117D01*
X153871393Y-66771393D01*
X153889117Y-66755329D01*
X153908330Y-66741079D01*
X153928847Y-66728782D01*
X153950471Y-66718554D01*
X153972993Y-66710496D01*
X153996197Y-66704684D01*
X154019858Y-66701174D01*
X154043750Y-66700000D01*
X154956250Y-66700000D01*
X154980142Y-66701174D01*
X154980142Y-66701174D01*
G37*
D11*
X154500000Y-67187500D03*
D10*
G36*
X152980142Y-64826174D02*
G01*
X153003803Y-64829684D01*
X153027007Y-64835496D01*
X153049529Y-64843554D01*
X153071153Y-64853782D01*
X153091670Y-64866079D01*
X153110883Y-64880329D01*
X153128607Y-64896393D01*
X153144671Y-64914117D01*
X153158921Y-64933330D01*
X153171218Y-64953847D01*
X153181446Y-64975471D01*
X153189504Y-64997993D01*
X153195316Y-65021197D01*
X153198826Y-65044858D01*
X153200000Y-65068750D01*
X153200000Y-65556250D01*
X153198826Y-65580142D01*
X153195316Y-65603803D01*
X153189504Y-65627007D01*
X153181446Y-65649529D01*
X153171218Y-65671153D01*
X153158921Y-65691670D01*
X153144671Y-65710883D01*
X153128607Y-65728607D01*
X153110883Y-65744671D01*
X153091670Y-65758921D01*
X153071153Y-65771218D01*
X153049529Y-65781446D01*
X153027007Y-65789504D01*
X153003803Y-65795316D01*
X152980142Y-65798826D01*
X152956250Y-65800000D01*
X152043750Y-65800000D01*
X152019858Y-65798826D01*
X151996197Y-65795316D01*
X151972993Y-65789504D01*
X151950471Y-65781446D01*
X151928847Y-65771218D01*
X151908330Y-65758921D01*
X151889117Y-65744671D01*
X151871393Y-65728607D01*
X151855329Y-65710883D01*
X151841079Y-65691670D01*
X151828782Y-65671153D01*
X151818554Y-65649529D01*
X151810496Y-65627007D01*
X151804684Y-65603803D01*
X151801174Y-65580142D01*
X151800000Y-65556250D01*
X151800000Y-65068750D01*
X151801174Y-65044858D01*
X151804684Y-65021197D01*
X151810496Y-64997993D01*
X151818554Y-64975471D01*
X151828782Y-64953847D01*
X151841079Y-64933330D01*
X151855329Y-64914117D01*
X151871393Y-64896393D01*
X151889117Y-64880329D01*
X151908330Y-64866079D01*
X151928847Y-64853782D01*
X151950471Y-64843554D01*
X151972993Y-64835496D01*
X151996197Y-64829684D01*
X152019858Y-64826174D01*
X152043750Y-64825000D01*
X152956250Y-64825000D01*
X152980142Y-64826174D01*
X152980142Y-64826174D01*
G37*
D11*
X152500000Y-65312500D03*
D10*
G36*
X152980142Y-66701174D02*
G01*
X153003803Y-66704684D01*
X153027007Y-66710496D01*
X153049529Y-66718554D01*
X153071153Y-66728782D01*
X153091670Y-66741079D01*
X153110883Y-66755329D01*
X153128607Y-66771393D01*
X153144671Y-66789117D01*
X153158921Y-66808330D01*
X153171218Y-66828847D01*
X153181446Y-66850471D01*
X153189504Y-66872993D01*
X153195316Y-66896197D01*
X153198826Y-66919858D01*
X153200000Y-66943750D01*
X153200000Y-67431250D01*
X153198826Y-67455142D01*
X153195316Y-67478803D01*
X153189504Y-67502007D01*
X153181446Y-67524529D01*
X153171218Y-67546153D01*
X153158921Y-67566670D01*
X153144671Y-67585883D01*
X153128607Y-67603607D01*
X153110883Y-67619671D01*
X153091670Y-67633921D01*
X153071153Y-67646218D01*
X153049529Y-67656446D01*
X153027007Y-67664504D01*
X153003803Y-67670316D01*
X152980142Y-67673826D01*
X152956250Y-67675000D01*
X152043750Y-67675000D01*
X152019858Y-67673826D01*
X151996197Y-67670316D01*
X151972993Y-67664504D01*
X151950471Y-67656446D01*
X151928847Y-67646218D01*
X151908330Y-67633921D01*
X151889117Y-67619671D01*
X151871393Y-67603607D01*
X151855329Y-67585883D01*
X151841079Y-67566670D01*
X151828782Y-67546153D01*
X151818554Y-67524529D01*
X151810496Y-67502007D01*
X151804684Y-67478803D01*
X151801174Y-67455142D01*
X151800000Y-67431250D01*
X151800000Y-66943750D01*
X151801174Y-66919858D01*
X151804684Y-66896197D01*
X151810496Y-66872993D01*
X151818554Y-66850471D01*
X151828782Y-66828847D01*
X151841079Y-66808330D01*
X151855329Y-66789117D01*
X151871393Y-66771393D01*
X151889117Y-66755329D01*
X151908330Y-66741079D01*
X151928847Y-66728782D01*
X151950471Y-66718554D01*
X151972993Y-66710496D01*
X151996197Y-66704684D01*
X152019858Y-66701174D01*
X152043750Y-66700000D01*
X152956250Y-66700000D01*
X152980142Y-66701174D01*
X152980142Y-66701174D01*
G37*
D11*
X152500000Y-67187500D03*
D12*
X170500000Y-68980000D03*
X170500000Y-71520000D03*
X170500000Y-74060000D03*
D13*
X170500000Y-76600000D03*
D10*
G36*
X154980142Y-70638674D02*
G01*
X155003803Y-70642184D01*
X155027007Y-70647996D01*
X155049529Y-70656054D01*
X155071153Y-70666282D01*
X155091670Y-70678579D01*
X155110883Y-70692829D01*
X155128607Y-70708893D01*
X155144671Y-70726617D01*
X155158921Y-70745830D01*
X155171218Y-70766347D01*
X155181446Y-70787971D01*
X155189504Y-70810493D01*
X155195316Y-70833697D01*
X155198826Y-70857358D01*
X155200000Y-70881250D01*
X155200000Y-71368750D01*
X155198826Y-71392642D01*
X155195316Y-71416303D01*
X155189504Y-71439507D01*
X155181446Y-71462029D01*
X155171218Y-71483653D01*
X155158921Y-71504170D01*
X155144671Y-71523383D01*
X155128607Y-71541107D01*
X155110883Y-71557171D01*
X155091670Y-71571421D01*
X155071153Y-71583718D01*
X155049529Y-71593946D01*
X155027007Y-71602004D01*
X155003803Y-71607816D01*
X154980142Y-71611326D01*
X154956250Y-71612500D01*
X154043750Y-71612500D01*
X154019858Y-71611326D01*
X153996197Y-71607816D01*
X153972993Y-71602004D01*
X153950471Y-71593946D01*
X153928847Y-71583718D01*
X153908330Y-71571421D01*
X153889117Y-71557171D01*
X153871393Y-71541107D01*
X153855329Y-71523383D01*
X153841079Y-71504170D01*
X153828782Y-71483653D01*
X153818554Y-71462029D01*
X153810496Y-71439507D01*
X153804684Y-71416303D01*
X153801174Y-71392642D01*
X153800000Y-71368750D01*
X153800000Y-70881250D01*
X153801174Y-70857358D01*
X153804684Y-70833697D01*
X153810496Y-70810493D01*
X153818554Y-70787971D01*
X153828782Y-70766347D01*
X153841079Y-70745830D01*
X153855329Y-70726617D01*
X153871393Y-70708893D01*
X153889117Y-70692829D01*
X153908330Y-70678579D01*
X153928847Y-70666282D01*
X153950471Y-70656054D01*
X153972993Y-70647996D01*
X153996197Y-70642184D01*
X154019858Y-70638674D01*
X154043750Y-70637500D01*
X154956250Y-70637500D01*
X154980142Y-70638674D01*
X154980142Y-70638674D01*
G37*
D11*
X154500000Y-71125000D03*
D10*
G36*
X154980142Y-72513674D02*
G01*
X155003803Y-72517184D01*
X155027007Y-72522996D01*
X155049529Y-72531054D01*
X155071153Y-72541282D01*
X155091670Y-72553579D01*
X155110883Y-72567829D01*
X155128607Y-72583893D01*
X155144671Y-72601617D01*
X155158921Y-72620830D01*
X155171218Y-72641347D01*
X155181446Y-72662971D01*
X155189504Y-72685493D01*
X155195316Y-72708697D01*
X155198826Y-72732358D01*
X155200000Y-72756250D01*
X155200000Y-73243750D01*
X155198826Y-73267642D01*
X155195316Y-73291303D01*
X155189504Y-73314507D01*
X155181446Y-73337029D01*
X155171218Y-73358653D01*
X155158921Y-73379170D01*
X155144671Y-73398383D01*
X155128607Y-73416107D01*
X155110883Y-73432171D01*
X155091670Y-73446421D01*
X155071153Y-73458718D01*
X155049529Y-73468946D01*
X155027007Y-73477004D01*
X155003803Y-73482816D01*
X154980142Y-73486326D01*
X154956250Y-73487500D01*
X154043750Y-73487500D01*
X154019858Y-73486326D01*
X153996197Y-73482816D01*
X153972993Y-73477004D01*
X153950471Y-73468946D01*
X153928847Y-73458718D01*
X153908330Y-73446421D01*
X153889117Y-73432171D01*
X153871393Y-73416107D01*
X153855329Y-73398383D01*
X153841079Y-73379170D01*
X153828782Y-73358653D01*
X153818554Y-73337029D01*
X153810496Y-73314507D01*
X153804684Y-73291303D01*
X153801174Y-73267642D01*
X153800000Y-73243750D01*
X153800000Y-72756250D01*
X153801174Y-72732358D01*
X153804684Y-72708697D01*
X153810496Y-72685493D01*
X153818554Y-72662971D01*
X153828782Y-72641347D01*
X153841079Y-72620830D01*
X153855329Y-72601617D01*
X153871393Y-72583893D01*
X153889117Y-72567829D01*
X153908330Y-72553579D01*
X153928847Y-72541282D01*
X153950471Y-72531054D01*
X153972993Y-72522996D01*
X153996197Y-72517184D01*
X154019858Y-72513674D01*
X154043750Y-72512500D01*
X154956250Y-72512500D01*
X154980142Y-72513674D01*
X154980142Y-72513674D01*
G37*
D11*
X154500000Y-73000000D03*
D10*
G36*
X156980142Y-73451174D02*
G01*
X157003803Y-73454684D01*
X157027007Y-73460496D01*
X157049529Y-73468554D01*
X157071153Y-73478782D01*
X157091670Y-73491079D01*
X157110883Y-73505329D01*
X157128607Y-73521393D01*
X157144671Y-73539117D01*
X157158921Y-73558330D01*
X157171218Y-73578847D01*
X157181446Y-73600471D01*
X157189504Y-73622993D01*
X157195316Y-73646197D01*
X157198826Y-73669858D01*
X157200000Y-73693750D01*
X157200000Y-74181250D01*
X157198826Y-74205142D01*
X157195316Y-74228803D01*
X157189504Y-74252007D01*
X157181446Y-74274529D01*
X157171218Y-74296153D01*
X157158921Y-74316670D01*
X157144671Y-74335883D01*
X157128607Y-74353607D01*
X157110883Y-74369671D01*
X157091670Y-74383921D01*
X157071153Y-74396218D01*
X157049529Y-74406446D01*
X157027007Y-74414504D01*
X157003803Y-74420316D01*
X156980142Y-74423826D01*
X156956250Y-74425000D01*
X156043750Y-74425000D01*
X156019858Y-74423826D01*
X155996197Y-74420316D01*
X155972993Y-74414504D01*
X155950471Y-74406446D01*
X155928847Y-74396218D01*
X155908330Y-74383921D01*
X155889117Y-74369671D01*
X155871393Y-74353607D01*
X155855329Y-74335883D01*
X155841079Y-74316670D01*
X155828782Y-74296153D01*
X155818554Y-74274529D01*
X155810496Y-74252007D01*
X155804684Y-74228803D01*
X155801174Y-74205142D01*
X155800000Y-74181250D01*
X155800000Y-73693750D01*
X155801174Y-73669858D01*
X155804684Y-73646197D01*
X155810496Y-73622993D01*
X155818554Y-73600471D01*
X155828782Y-73578847D01*
X155841079Y-73558330D01*
X155855329Y-73539117D01*
X155871393Y-73521393D01*
X155889117Y-73505329D01*
X155908330Y-73491079D01*
X155928847Y-73478782D01*
X155950471Y-73468554D01*
X155972993Y-73460496D01*
X155996197Y-73454684D01*
X156019858Y-73451174D01*
X156043750Y-73450000D01*
X156956250Y-73450000D01*
X156980142Y-73451174D01*
X156980142Y-73451174D01*
G37*
D11*
X156500000Y-73937500D03*
D10*
G36*
X156980142Y-71576174D02*
G01*
X157003803Y-71579684D01*
X157027007Y-71585496D01*
X157049529Y-71593554D01*
X157071153Y-71603782D01*
X157091670Y-71616079D01*
X157110883Y-71630329D01*
X157128607Y-71646393D01*
X157144671Y-71664117D01*
X157158921Y-71683330D01*
X157171218Y-71703847D01*
X157181446Y-71725471D01*
X157189504Y-71747993D01*
X157195316Y-71771197D01*
X157198826Y-71794858D01*
X157200000Y-71818750D01*
X157200000Y-72306250D01*
X157198826Y-72330142D01*
X157195316Y-72353803D01*
X157189504Y-72377007D01*
X157181446Y-72399529D01*
X157171218Y-72421153D01*
X157158921Y-72441670D01*
X157144671Y-72460883D01*
X157128607Y-72478607D01*
X157110883Y-72494671D01*
X157091670Y-72508921D01*
X157071153Y-72521218D01*
X157049529Y-72531446D01*
X157027007Y-72539504D01*
X157003803Y-72545316D01*
X156980142Y-72548826D01*
X156956250Y-72550000D01*
X156043750Y-72550000D01*
X156019858Y-72548826D01*
X155996197Y-72545316D01*
X155972993Y-72539504D01*
X155950471Y-72531446D01*
X155928847Y-72521218D01*
X155908330Y-72508921D01*
X155889117Y-72494671D01*
X155871393Y-72478607D01*
X155855329Y-72460883D01*
X155841079Y-72441670D01*
X155828782Y-72421153D01*
X155818554Y-72399529D01*
X155810496Y-72377007D01*
X155804684Y-72353803D01*
X155801174Y-72330142D01*
X155800000Y-72306250D01*
X155800000Y-71818750D01*
X155801174Y-71794858D01*
X155804684Y-71771197D01*
X155810496Y-71747993D01*
X155818554Y-71725471D01*
X155828782Y-71703847D01*
X155841079Y-71683330D01*
X155855329Y-71664117D01*
X155871393Y-71646393D01*
X155889117Y-71630329D01*
X155908330Y-71616079D01*
X155928847Y-71603782D01*
X155950471Y-71593554D01*
X155972993Y-71585496D01*
X155996197Y-71579684D01*
X156019858Y-71576174D01*
X156043750Y-71575000D01*
X156956250Y-71575000D01*
X156980142Y-71576174D01*
X156980142Y-71576174D01*
G37*
D11*
X156500000Y-72062500D03*
D10*
G36*
X150980142Y-72451174D02*
G01*
X151003803Y-72454684D01*
X151027007Y-72460496D01*
X151049529Y-72468554D01*
X151071153Y-72478782D01*
X151091670Y-72491079D01*
X151110883Y-72505329D01*
X151128607Y-72521393D01*
X151144671Y-72539117D01*
X151158921Y-72558330D01*
X151171218Y-72578847D01*
X151181446Y-72600471D01*
X151189504Y-72622993D01*
X151195316Y-72646197D01*
X151198826Y-72669858D01*
X151200000Y-72693750D01*
X151200000Y-73181250D01*
X151198826Y-73205142D01*
X151195316Y-73228803D01*
X151189504Y-73252007D01*
X151181446Y-73274529D01*
X151171218Y-73296153D01*
X151158921Y-73316670D01*
X151144671Y-73335883D01*
X151128607Y-73353607D01*
X151110883Y-73369671D01*
X151091670Y-73383921D01*
X151071153Y-73396218D01*
X151049529Y-73406446D01*
X151027007Y-73414504D01*
X151003803Y-73420316D01*
X150980142Y-73423826D01*
X150956250Y-73425000D01*
X150043750Y-73425000D01*
X150019858Y-73423826D01*
X149996197Y-73420316D01*
X149972993Y-73414504D01*
X149950471Y-73406446D01*
X149928847Y-73396218D01*
X149908330Y-73383921D01*
X149889117Y-73369671D01*
X149871393Y-73353607D01*
X149855329Y-73335883D01*
X149841079Y-73316670D01*
X149828782Y-73296153D01*
X149818554Y-73274529D01*
X149810496Y-73252007D01*
X149804684Y-73228803D01*
X149801174Y-73205142D01*
X149800000Y-73181250D01*
X149800000Y-72693750D01*
X149801174Y-72669858D01*
X149804684Y-72646197D01*
X149810496Y-72622993D01*
X149818554Y-72600471D01*
X149828782Y-72578847D01*
X149841079Y-72558330D01*
X149855329Y-72539117D01*
X149871393Y-72521393D01*
X149889117Y-72505329D01*
X149908330Y-72491079D01*
X149928847Y-72478782D01*
X149950471Y-72468554D01*
X149972993Y-72460496D01*
X149996197Y-72454684D01*
X150019858Y-72451174D01*
X150043750Y-72450000D01*
X150956250Y-72450000D01*
X150980142Y-72451174D01*
X150980142Y-72451174D01*
G37*
D11*
X150500000Y-72937500D03*
D10*
G36*
X150980142Y-70576174D02*
G01*
X151003803Y-70579684D01*
X151027007Y-70585496D01*
X151049529Y-70593554D01*
X151071153Y-70603782D01*
X151091670Y-70616079D01*
X151110883Y-70630329D01*
X151128607Y-70646393D01*
X151144671Y-70664117D01*
X151158921Y-70683330D01*
X151171218Y-70703847D01*
X151181446Y-70725471D01*
X151189504Y-70747993D01*
X151195316Y-70771197D01*
X151198826Y-70794858D01*
X151200000Y-70818750D01*
X151200000Y-71306250D01*
X151198826Y-71330142D01*
X151195316Y-71353803D01*
X151189504Y-71377007D01*
X151181446Y-71399529D01*
X151171218Y-71421153D01*
X151158921Y-71441670D01*
X151144671Y-71460883D01*
X151128607Y-71478607D01*
X151110883Y-71494671D01*
X151091670Y-71508921D01*
X151071153Y-71521218D01*
X151049529Y-71531446D01*
X151027007Y-71539504D01*
X151003803Y-71545316D01*
X150980142Y-71548826D01*
X150956250Y-71550000D01*
X150043750Y-71550000D01*
X150019858Y-71548826D01*
X149996197Y-71545316D01*
X149972993Y-71539504D01*
X149950471Y-71531446D01*
X149928847Y-71521218D01*
X149908330Y-71508921D01*
X149889117Y-71494671D01*
X149871393Y-71478607D01*
X149855329Y-71460883D01*
X149841079Y-71441670D01*
X149828782Y-71421153D01*
X149818554Y-71399529D01*
X149810496Y-71377007D01*
X149804684Y-71353803D01*
X149801174Y-71330142D01*
X149800000Y-71306250D01*
X149800000Y-70818750D01*
X149801174Y-70794858D01*
X149804684Y-70771197D01*
X149810496Y-70747993D01*
X149818554Y-70725471D01*
X149828782Y-70703847D01*
X149841079Y-70683330D01*
X149855329Y-70664117D01*
X149871393Y-70646393D01*
X149889117Y-70630329D01*
X149908330Y-70616079D01*
X149928847Y-70603782D01*
X149950471Y-70593554D01*
X149972993Y-70585496D01*
X149996197Y-70579684D01*
X150019858Y-70576174D01*
X150043750Y-70575000D01*
X150956250Y-70575000D01*
X150980142Y-70576174D01*
X150980142Y-70576174D01*
G37*
D11*
X150500000Y-71062500D03*
D10*
G36*
X152980142Y-71513674D02*
G01*
X153003803Y-71517184D01*
X153027007Y-71522996D01*
X153049529Y-71531054D01*
X153071153Y-71541282D01*
X153091670Y-71553579D01*
X153110883Y-71567829D01*
X153128607Y-71583893D01*
X153144671Y-71601617D01*
X153158921Y-71620830D01*
X153171218Y-71641347D01*
X153181446Y-71662971D01*
X153189504Y-71685493D01*
X153195316Y-71708697D01*
X153198826Y-71732358D01*
X153200000Y-71756250D01*
X153200000Y-72243750D01*
X153198826Y-72267642D01*
X153195316Y-72291303D01*
X153189504Y-72314507D01*
X153181446Y-72337029D01*
X153171218Y-72358653D01*
X153158921Y-72379170D01*
X153144671Y-72398383D01*
X153128607Y-72416107D01*
X153110883Y-72432171D01*
X153091670Y-72446421D01*
X153071153Y-72458718D01*
X153049529Y-72468946D01*
X153027007Y-72477004D01*
X153003803Y-72482816D01*
X152980142Y-72486326D01*
X152956250Y-72487500D01*
X152043750Y-72487500D01*
X152019858Y-72486326D01*
X151996197Y-72482816D01*
X151972993Y-72477004D01*
X151950471Y-72468946D01*
X151928847Y-72458718D01*
X151908330Y-72446421D01*
X151889117Y-72432171D01*
X151871393Y-72416107D01*
X151855329Y-72398383D01*
X151841079Y-72379170D01*
X151828782Y-72358653D01*
X151818554Y-72337029D01*
X151810496Y-72314507D01*
X151804684Y-72291303D01*
X151801174Y-72267642D01*
X151800000Y-72243750D01*
X151800000Y-71756250D01*
X151801174Y-71732358D01*
X151804684Y-71708697D01*
X151810496Y-71685493D01*
X151818554Y-71662971D01*
X151828782Y-71641347D01*
X151841079Y-71620830D01*
X151855329Y-71601617D01*
X151871393Y-71583893D01*
X151889117Y-71567829D01*
X151908330Y-71553579D01*
X151928847Y-71541282D01*
X151950471Y-71531054D01*
X151972993Y-71522996D01*
X151996197Y-71517184D01*
X152019858Y-71513674D01*
X152043750Y-71512500D01*
X152956250Y-71512500D01*
X152980142Y-71513674D01*
X152980142Y-71513674D01*
G37*
D11*
X152500000Y-72000000D03*
D10*
G36*
X152980142Y-73388674D02*
G01*
X153003803Y-73392184D01*
X153027007Y-73397996D01*
X153049529Y-73406054D01*
X153071153Y-73416282D01*
X153091670Y-73428579D01*
X153110883Y-73442829D01*
X153128607Y-73458893D01*
X153144671Y-73476617D01*
X153158921Y-73495830D01*
X153171218Y-73516347D01*
X153181446Y-73537971D01*
X153189504Y-73560493D01*
X153195316Y-73583697D01*
X153198826Y-73607358D01*
X153200000Y-73631250D01*
X153200000Y-74118750D01*
X153198826Y-74142642D01*
X153195316Y-74166303D01*
X153189504Y-74189507D01*
X153181446Y-74212029D01*
X153171218Y-74233653D01*
X153158921Y-74254170D01*
X153144671Y-74273383D01*
X153128607Y-74291107D01*
X153110883Y-74307171D01*
X153091670Y-74321421D01*
X153071153Y-74333718D01*
X153049529Y-74343946D01*
X153027007Y-74352004D01*
X153003803Y-74357816D01*
X152980142Y-74361326D01*
X152956250Y-74362500D01*
X152043750Y-74362500D01*
X152019858Y-74361326D01*
X151996197Y-74357816D01*
X151972993Y-74352004D01*
X151950471Y-74343946D01*
X151928847Y-74333718D01*
X151908330Y-74321421D01*
X151889117Y-74307171D01*
X151871393Y-74291107D01*
X151855329Y-74273383D01*
X151841079Y-74254170D01*
X151828782Y-74233653D01*
X151818554Y-74212029D01*
X151810496Y-74189507D01*
X151804684Y-74166303D01*
X151801174Y-74142642D01*
X151800000Y-74118750D01*
X151800000Y-73631250D01*
X151801174Y-73607358D01*
X151804684Y-73583697D01*
X151810496Y-73560493D01*
X151818554Y-73537971D01*
X151828782Y-73516347D01*
X151841079Y-73495830D01*
X151855329Y-73476617D01*
X151871393Y-73458893D01*
X151889117Y-73442829D01*
X151908330Y-73428579D01*
X151928847Y-73416282D01*
X151950471Y-73406054D01*
X151972993Y-73397996D01*
X151996197Y-73392184D01*
X152019858Y-73388674D01*
X152043750Y-73387500D01*
X152956250Y-73387500D01*
X152980142Y-73388674D01*
X152980142Y-73388674D01*
G37*
D11*
X152500000Y-73875000D03*
D10*
G36*
X150980142Y-75763674D02*
G01*
X151003803Y-75767184D01*
X151027007Y-75772996D01*
X151049529Y-75781054D01*
X151071153Y-75791282D01*
X151091670Y-75803579D01*
X151110883Y-75817829D01*
X151128607Y-75833893D01*
X151144671Y-75851617D01*
X151158921Y-75870830D01*
X151171218Y-75891347D01*
X151181446Y-75912971D01*
X151189504Y-75935493D01*
X151195316Y-75958697D01*
X151198826Y-75982358D01*
X151200000Y-76006250D01*
X151200000Y-76493750D01*
X151198826Y-76517642D01*
X151195316Y-76541303D01*
X151189504Y-76564507D01*
X151181446Y-76587029D01*
X151171218Y-76608653D01*
X151158921Y-76629170D01*
X151144671Y-76648383D01*
X151128607Y-76666107D01*
X151110883Y-76682171D01*
X151091670Y-76696421D01*
X151071153Y-76708718D01*
X151049529Y-76718946D01*
X151027007Y-76727004D01*
X151003803Y-76732816D01*
X150980142Y-76736326D01*
X150956250Y-76737500D01*
X150043750Y-76737500D01*
X150019858Y-76736326D01*
X149996197Y-76732816D01*
X149972993Y-76727004D01*
X149950471Y-76718946D01*
X149928847Y-76708718D01*
X149908330Y-76696421D01*
X149889117Y-76682171D01*
X149871393Y-76666107D01*
X149855329Y-76648383D01*
X149841079Y-76629170D01*
X149828782Y-76608653D01*
X149818554Y-76587029D01*
X149810496Y-76564507D01*
X149804684Y-76541303D01*
X149801174Y-76517642D01*
X149800000Y-76493750D01*
X149800000Y-76006250D01*
X149801174Y-75982358D01*
X149804684Y-75958697D01*
X149810496Y-75935493D01*
X149818554Y-75912971D01*
X149828782Y-75891347D01*
X149841079Y-75870830D01*
X149855329Y-75851617D01*
X149871393Y-75833893D01*
X149889117Y-75817829D01*
X149908330Y-75803579D01*
X149928847Y-75791282D01*
X149950471Y-75781054D01*
X149972993Y-75772996D01*
X149996197Y-75767184D01*
X150019858Y-75763674D01*
X150043750Y-75762500D01*
X150956250Y-75762500D01*
X150980142Y-75763674D01*
X150980142Y-75763674D01*
G37*
D11*
X150500000Y-76250000D03*
D10*
G36*
X150980142Y-77638674D02*
G01*
X151003803Y-77642184D01*
X151027007Y-77647996D01*
X151049529Y-77656054D01*
X151071153Y-77666282D01*
X151091670Y-77678579D01*
X151110883Y-77692829D01*
X151128607Y-77708893D01*
X151144671Y-77726617D01*
X151158921Y-77745830D01*
X151171218Y-77766347D01*
X151181446Y-77787971D01*
X151189504Y-77810493D01*
X151195316Y-77833697D01*
X151198826Y-77857358D01*
X151200000Y-77881250D01*
X151200000Y-78368750D01*
X151198826Y-78392642D01*
X151195316Y-78416303D01*
X151189504Y-78439507D01*
X151181446Y-78462029D01*
X151171218Y-78483653D01*
X151158921Y-78504170D01*
X151144671Y-78523383D01*
X151128607Y-78541107D01*
X151110883Y-78557171D01*
X151091670Y-78571421D01*
X151071153Y-78583718D01*
X151049529Y-78593946D01*
X151027007Y-78602004D01*
X151003803Y-78607816D01*
X150980142Y-78611326D01*
X150956250Y-78612500D01*
X150043750Y-78612500D01*
X150019858Y-78611326D01*
X149996197Y-78607816D01*
X149972993Y-78602004D01*
X149950471Y-78593946D01*
X149928847Y-78583718D01*
X149908330Y-78571421D01*
X149889117Y-78557171D01*
X149871393Y-78541107D01*
X149855329Y-78523383D01*
X149841079Y-78504170D01*
X149828782Y-78483653D01*
X149818554Y-78462029D01*
X149810496Y-78439507D01*
X149804684Y-78416303D01*
X149801174Y-78392642D01*
X149800000Y-78368750D01*
X149800000Y-77881250D01*
X149801174Y-77857358D01*
X149804684Y-77833697D01*
X149810496Y-77810493D01*
X149818554Y-77787971D01*
X149828782Y-77766347D01*
X149841079Y-77745830D01*
X149855329Y-77726617D01*
X149871393Y-77708893D01*
X149889117Y-77692829D01*
X149908330Y-77678579D01*
X149928847Y-77666282D01*
X149950471Y-77656054D01*
X149972993Y-77647996D01*
X149996197Y-77642184D01*
X150019858Y-77638674D01*
X150043750Y-77637500D01*
X150956250Y-77637500D01*
X150980142Y-77638674D01*
X150980142Y-77638674D01*
G37*
D11*
X150500000Y-78125000D03*
D10*
G36*
X152980142Y-77638674D02*
G01*
X153003803Y-77642184D01*
X153027007Y-77647996D01*
X153049529Y-77656054D01*
X153071153Y-77666282D01*
X153091670Y-77678579D01*
X153110883Y-77692829D01*
X153128607Y-77708893D01*
X153144671Y-77726617D01*
X153158921Y-77745830D01*
X153171218Y-77766347D01*
X153181446Y-77787971D01*
X153189504Y-77810493D01*
X153195316Y-77833697D01*
X153198826Y-77857358D01*
X153200000Y-77881250D01*
X153200000Y-78368750D01*
X153198826Y-78392642D01*
X153195316Y-78416303D01*
X153189504Y-78439507D01*
X153181446Y-78462029D01*
X153171218Y-78483653D01*
X153158921Y-78504170D01*
X153144671Y-78523383D01*
X153128607Y-78541107D01*
X153110883Y-78557171D01*
X153091670Y-78571421D01*
X153071153Y-78583718D01*
X153049529Y-78593946D01*
X153027007Y-78602004D01*
X153003803Y-78607816D01*
X152980142Y-78611326D01*
X152956250Y-78612500D01*
X152043750Y-78612500D01*
X152019858Y-78611326D01*
X151996197Y-78607816D01*
X151972993Y-78602004D01*
X151950471Y-78593946D01*
X151928847Y-78583718D01*
X151908330Y-78571421D01*
X151889117Y-78557171D01*
X151871393Y-78541107D01*
X151855329Y-78523383D01*
X151841079Y-78504170D01*
X151828782Y-78483653D01*
X151818554Y-78462029D01*
X151810496Y-78439507D01*
X151804684Y-78416303D01*
X151801174Y-78392642D01*
X151800000Y-78368750D01*
X151800000Y-77881250D01*
X151801174Y-77857358D01*
X151804684Y-77833697D01*
X151810496Y-77810493D01*
X151818554Y-77787971D01*
X151828782Y-77766347D01*
X151841079Y-77745830D01*
X151855329Y-77726617D01*
X151871393Y-77708893D01*
X151889117Y-77692829D01*
X151908330Y-77678579D01*
X151928847Y-77666282D01*
X151950471Y-77656054D01*
X151972993Y-77647996D01*
X151996197Y-77642184D01*
X152019858Y-77638674D01*
X152043750Y-77637500D01*
X152956250Y-77637500D01*
X152980142Y-77638674D01*
X152980142Y-77638674D01*
G37*
D11*
X152500000Y-78125000D03*
D10*
G36*
X152980142Y-75763674D02*
G01*
X153003803Y-75767184D01*
X153027007Y-75772996D01*
X153049529Y-75781054D01*
X153071153Y-75791282D01*
X153091670Y-75803579D01*
X153110883Y-75817829D01*
X153128607Y-75833893D01*
X153144671Y-75851617D01*
X153158921Y-75870830D01*
X153171218Y-75891347D01*
X153181446Y-75912971D01*
X153189504Y-75935493D01*
X153195316Y-75958697D01*
X153198826Y-75982358D01*
X153200000Y-76006250D01*
X153200000Y-76493750D01*
X153198826Y-76517642D01*
X153195316Y-76541303D01*
X153189504Y-76564507D01*
X153181446Y-76587029D01*
X153171218Y-76608653D01*
X153158921Y-76629170D01*
X153144671Y-76648383D01*
X153128607Y-76666107D01*
X153110883Y-76682171D01*
X153091670Y-76696421D01*
X153071153Y-76708718D01*
X153049529Y-76718946D01*
X153027007Y-76727004D01*
X153003803Y-76732816D01*
X152980142Y-76736326D01*
X152956250Y-76737500D01*
X152043750Y-76737500D01*
X152019858Y-76736326D01*
X151996197Y-76732816D01*
X151972993Y-76727004D01*
X151950471Y-76718946D01*
X151928847Y-76708718D01*
X151908330Y-76696421D01*
X151889117Y-76682171D01*
X151871393Y-76666107D01*
X151855329Y-76648383D01*
X151841079Y-76629170D01*
X151828782Y-76608653D01*
X151818554Y-76587029D01*
X151810496Y-76564507D01*
X151804684Y-76541303D01*
X151801174Y-76517642D01*
X151800000Y-76493750D01*
X151800000Y-76006250D01*
X151801174Y-75982358D01*
X151804684Y-75958697D01*
X151810496Y-75935493D01*
X151818554Y-75912971D01*
X151828782Y-75891347D01*
X151841079Y-75870830D01*
X151855329Y-75851617D01*
X151871393Y-75833893D01*
X151889117Y-75817829D01*
X151908330Y-75803579D01*
X151928847Y-75791282D01*
X151950471Y-75781054D01*
X151972993Y-75772996D01*
X151996197Y-75767184D01*
X152019858Y-75763674D01*
X152043750Y-75762500D01*
X152956250Y-75762500D01*
X152980142Y-75763674D01*
X152980142Y-75763674D01*
G37*
D11*
X152500000Y-76250000D03*
D10*
G36*
X163455142Y-79801174D02*
G01*
X163478803Y-79804684D01*
X163502007Y-79810496D01*
X163524529Y-79818554D01*
X163546153Y-79828782D01*
X163566670Y-79841079D01*
X163585883Y-79855329D01*
X163603607Y-79871393D01*
X163619671Y-79889117D01*
X163633921Y-79908330D01*
X163646218Y-79928847D01*
X163656446Y-79950471D01*
X163664504Y-79972993D01*
X163670316Y-79996197D01*
X163673826Y-80019858D01*
X163675000Y-80043750D01*
X163675000Y-80956250D01*
X163673826Y-80980142D01*
X163670316Y-81003803D01*
X163664504Y-81027007D01*
X163656446Y-81049529D01*
X163646218Y-81071153D01*
X163633921Y-81091670D01*
X163619671Y-81110883D01*
X163603607Y-81128607D01*
X163585883Y-81144671D01*
X163566670Y-81158921D01*
X163546153Y-81171218D01*
X163524529Y-81181446D01*
X163502007Y-81189504D01*
X163478803Y-81195316D01*
X163455142Y-81198826D01*
X163431250Y-81200000D01*
X162943750Y-81200000D01*
X162919858Y-81198826D01*
X162896197Y-81195316D01*
X162872993Y-81189504D01*
X162850471Y-81181446D01*
X162828847Y-81171218D01*
X162808330Y-81158921D01*
X162789117Y-81144671D01*
X162771393Y-81128607D01*
X162755329Y-81110883D01*
X162741079Y-81091670D01*
X162728782Y-81071153D01*
X162718554Y-81049529D01*
X162710496Y-81027007D01*
X162704684Y-81003803D01*
X162701174Y-80980142D01*
X162700000Y-80956250D01*
X162700000Y-80043750D01*
X162701174Y-80019858D01*
X162704684Y-79996197D01*
X162710496Y-79972993D01*
X162718554Y-79950471D01*
X162728782Y-79928847D01*
X162741079Y-79908330D01*
X162755329Y-79889117D01*
X162771393Y-79871393D01*
X162789117Y-79855329D01*
X162808330Y-79841079D01*
X162828847Y-79828782D01*
X162850471Y-79818554D01*
X162872993Y-79810496D01*
X162896197Y-79804684D01*
X162919858Y-79801174D01*
X162943750Y-79800000D01*
X163431250Y-79800000D01*
X163455142Y-79801174D01*
X163455142Y-79801174D01*
G37*
D11*
X163187500Y-80500000D03*
D10*
G36*
X161580142Y-79801174D02*
G01*
X161603803Y-79804684D01*
X161627007Y-79810496D01*
X161649529Y-79818554D01*
X161671153Y-79828782D01*
X161691670Y-79841079D01*
X161710883Y-79855329D01*
X161728607Y-79871393D01*
X161744671Y-79889117D01*
X161758921Y-79908330D01*
X161771218Y-79928847D01*
X161781446Y-79950471D01*
X161789504Y-79972993D01*
X161795316Y-79996197D01*
X161798826Y-80019858D01*
X161800000Y-80043750D01*
X161800000Y-80956250D01*
X161798826Y-80980142D01*
X161795316Y-81003803D01*
X161789504Y-81027007D01*
X161781446Y-81049529D01*
X161771218Y-81071153D01*
X161758921Y-81091670D01*
X161744671Y-81110883D01*
X161728607Y-81128607D01*
X161710883Y-81144671D01*
X161691670Y-81158921D01*
X161671153Y-81171218D01*
X161649529Y-81181446D01*
X161627007Y-81189504D01*
X161603803Y-81195316D01*
X161580142Y-81198826D01*
X161556250Y-81200000D01*
X161068750Y-81200000D01*
X161044858Y-81198826D01*
X161021197Y-81195316D01*
X160997993Y-81189504D01*
X160975471Y-81181446D01*
X160953847Y-81171218D01*
X160933330Y-81158921D01*
X160914117Y-81144671D01*
X160896393Y-81128607D01*
X160880329Y-81110883D01*
X160866079Y-81091670D01*
X160853782Y-81071153D01*
X160843554Y-81049529D01*
X160835496Y-81027007D01*
X160829684Y-81003803D01*
X160826174Y-80980142D01*
X160825000Y-80956250D01*
X160825000Y-80043750D01*
X160826174Y-80019858D01*
X160829684Y-79996197D01*
X160835496Y-79972993D01*
X160843554Y-79950471D01*
X160853782Y-79928847D01*
X160866079Y-79908330D01*
X160880329Y-79889117D01*
X160896393Y-79871393D01*
X160914117Y-79855329D01*
X160933330Y-79841079D01*
X160953847Y-79828782D01*
X160975471Y-79818554D01*
X160997993Y-79810496D01*
X161021197Y-79804684D01*
X161044858Y-79801174D01*
X161068750Y-79800000D01*
X161556250Y-79800000D01*
X161580142Y-79801174D01*
X161580142Y-79801174D01*
G37*
D11*
X161312500Y-80500000D03*
D10*
G36*
X163455142Y-77801174D02*
G01*
X163478803Y-77804684D01*
X163502007Y-77810496D01*
X163524529Y-77818554D01*
X163546153Y-77828782D01*
X163566670Y-77841079D01*
X163585883Y-77855329D01*
X163603607Y-77871393D01*
X163619671Y-77889117D01*
X163633921Y-77908330D01*
X163646218Y-77928847D01*
X163656446Y-77950471D01*
X163664504Y-77972993D01*
X163670316Y-77996197D01*
X163673826Y-78019858D01*
X163675000Y-78043750D01*
X163675000Y-78956250D01*
X163673826Y-78980142D01*
X163670316Y-79003803D01*
X163664504Y-79027007D01*
X163656446Y-79049529D01*
X163646218Y-79071153D01*
X163633921Y-79091670D01*
X163619671Y-79110883D01*
X163603607Y-79128607D01*
X163585883Y-79144671D01*
X163566670Y-79158921D01*
X163546153Y-79171218D01*
X163524529Y-79181446D01*
X163502007Y-79189504D01*
X163478803Y-79195316D01*
X163455142Y-79198826D01*
X163431250Y-79200000D01*
X162943750Y-79200000D01*
X162919858Y-79198826D01*
X162896197Y-79195316D01*
X162872993Y-79189504D01*
X162850471Y-79181446D01*
X162828847Y-79171218D01*
X162808330Y-79158921D01*
X162789117Y-79144671D01*
X162771393Y-79128607D01*
X162755329Y-79110883D01*
X162741079Y-79091670D01*
X162728782Y-79071153D01*
X162718554Y-79049529D01*
X162710496Y-79027007D01*
X162704684Y-79003803D01*
X162701174Y-78980142D01*
X162700000Y-78956250D01*
X162700000Y-78043750D01*
X162701174Y-78019858D01*
X162704684Y-77996197D01*
X162710496Y-77972993D01*
X162718554Y-77950471D01*
X162728782Y-77928847D01*
X162741079Y-77908330D01*
X162755329Y-77889117D01*
X162771393Y-77871393D01*
X162789117Y-77855329D01*
X162808330Y-77841079D01*
X162828847Y-77828782D01*
X162850471Y-77818554D01*
X162872993Y-77810496D01*
X162896197Y-77804684D01*
X162919858Y-77801174D01*
X162943750Y-77800000D01*
X163431250Y-77800000D01*
X163455142Y-77801174D01*
X163455142Y-77801174D01*
G37*
D11*
X163187500Y-78500000D03*
D10*
G36*
X161580142Y-77801174D02*
G01*
X161603803Y-77804684D01*
X161627007Y-77810496D01*
X161649529Y-77818554D01*
X161671153Y-77828782D01*
X161691670Y-77841079D01*
X161710883Y-77855329D01*
X161728607Y-77871393D01*
X161744671Y-77889117D01*
X161758921Y-77908330D01*
X161771218Y-77928847D01*
X161781446Y-77950471D01*
X161789504Y-77972993D01*
X161795316Y-77996197D01*
X161798826Y-78019858D01*
X161800000Y-78043750D01*
X161800000Y-78956250D01*
X161798826Y-78980142D01*
X161795316Y-79003803D01*
X161789504Y-79027007D01*
X161781446Y-79049529D01*
X161771218Y-79071153D01*
X161758921Y-79091670D01*
X161744671Y-79110883D01*
X161728607Y-79128607D01*
X161710883Y-79144671D01*
X161691670Y-79158921D01*
X161671153Y-79171218D01*
X161649529Y-79181446D01*
X161627007Y-79189504D01*
X161603803Y-79195316D01*
X161580142Y-79198826D01*
X161556250Y-79200000D01*
X161068750Y-79200000D01*
X161044858Y-79198826D01*
X161021197Y-79195316D01*
X160997993Y-79189504D01*
X160975471Y-79181446D01*
X160953847Y-79171218D01*
X160933330Y-79158921D01*
X160914117Y-79144671D01*
X160896393Y-79128607D01*
X160880329Y-79110883D01*
X160866079Y-79091670D01*
X160853782Y-79071153D01*
X160843554Y-79049529D01*
X160835496Y-79027007D01*
X160829684Y-79003803D01*
X160826174Y-78980142D01*
X160825000Y-78956250D01*
X160825000Y-78043750D01*
X160826174Y-78019858D01*
X160829684Y-77996197D01*
X160835496Y-77972993D01*
X160843554Y-77950471D01*
X160853782Y-77928847D01*
X160866079Y-77908330D01*
X160880329Y-77889117D01*
X160896393Y-77871393D01*
X160914117Y-77855329D01*
X160933330Y-77841079D01*
X160953847Y-77828782D01*
X160975471Y-77818554D01*
X160997993Y-77810496D01*
X161021197Y-77804684D01*
X161044858Y-77801174D01*
X161068750Y-77800000D01*
X161556250Y-77800000D01*
X161580142Y-77801174D01*
X161580142Y-77801174D01*
G37*
D11*
X161312500Y-78500000D03*
D10*
G36*
X161705142Y-68301174D02*
G01*
X161728803Y-68304684D01*
X161752007Y-68310496D01*
X161774529Y-68318554D01*
X161796153Y-68328782D01*
X161816670Y-68341079D01*
X161835883Y-68355329D01*
X161853607Y-68371393D01*
X161869671Y-68389117D01*
X161883921Y-68408330D01*
X161896218Y-68428847D01*
X161906446Y-68450471D01*
X161914504Y-68472993D01*
X161920316Y-68496197D01*
X161923826Y-68519858D01*
X161925000Y-68543750D01*
X161925000Y-69456250D01*
X161923826Y-69480142D01*
X161920316Y-69503803D01*
X161914504Y-69527007D01*
X161906446Y-69549529D01*
X161896218Y-69571153D01*
X161883921Y-69591670D01*
X161869671Y-69610883D01*
X161853607Y-69628607D01*
X161835883Y-69644671D01*
X161816670Y-69658921D01*
X161796153Y-69671218D01*
X161774529Y-69681446D01*
X161752007Y-69689504D01*
X161728803Y-69695316D01*
X161705142Y-69698826D01*
X161681250Y-69700000D01*
X161193750Y-69700000D01*
X161169858Y-69698826D01*
X161146197Y-69695316D01*
X161122993Y-69689504D01*
X161100471Y-69681446D01*
X161078847Y-69671218D01*
X161058330Y-69658921D01*
X161039117Y-69644671D01*
X161021393Y-69628607D01*
X161005329Y-69610883D01*
X160991079Y-69591670D01*
X160978782Y-69571153D01*
X160968554Y-69549529D01*
X160960496Y-69527007D01*
X160954684Y-69503803D01*
X160951174Y-69480142D01*
X160950000Y-69456250D01*
X160950000Y-68543750D01*
X160951174Y-68519858D01*
X160954684Y-68496197D01*
X160960496Y-68472993D01*
X160968554Y-68450471D01*
X160978782Y-68428847D01*
X160991079Y-68408330D01*
X161005329Y-68389117D01*
X161021393Y-68371393D01*
X161039117Y-68355329D01*
X161058330Y-68341079D01*
X161078847Y-68328782D01*
X161100471Y-68318554D01*
X161122993Y-68310496D01*
X161146197Y-68304684D01*
X161169858Y-68301174D01*
X161193750Y-68300000D01*
X161681250Y-68300000D01*
X161705142Y-68301174D01*
X161705142Y-68301174D01*
G37*
D11*
X161437500Y-69000000D03*
D10*
G36*
X159830142Y-68301174D02*
G01*
X159853803Y-68304684D01*
X159877007Y-68310496D01*
X159899529Y-68318554D01*
X159921153Y-68328782D01*
X159941670Y-68341079D01*
X159960883Y-68355329D01*
X159978607Y-68371393D01*
X159994671Y-68389117D01*
X160008921Y-68408330D01*
X160021218Y-68428847D01*
X160031446Y-68450471D01*
X160039504Y-68472993D01*
X160045316Y-68496197D01*
X160048826Y-68519858D01*
X160050000Y-68543750D01*
X160050000Y-69456250D01*
X160048826Y-69480142D01*
X160045316Y-69503803D01*
X160039504Y-69527007D01*
X160031446Y-69549529D01*
X160021218Y-69571153D01*
X160008921Y-69591670D01*
X159994671Y-69610883D01*
X159978607Y-69628607D01*
X159960883Y-69644671D01*
X159941670Y-69658921D01*
X159921153Y-69671218D01*
X159899529Y-69681446D01*
X159877007Y-69689504D01*
X159853803Y-69695316D01*
X159830142Y-69698826D01*
X159806250Y-69700000D01*
X159318750Y-69700000D01*
X159294858Y-69698826D01*
X159271197Y-69695316D01*
X159247993Y-69689504D01*
X159225471Y-69681446D01*
X159203847Y-69671218D01*
X159183330Y-69658921D01*
X159164117Y-69644671D01*
X159146393Y-69628607D01*
X159130329Y-69610883D01*
X159116079Y-69591670D01*
X159103782Y-69571153D01*
X159093554Y-69549529D01*
X159085496Y-69527007D01*
X159079684Y-69503803D01*
X159076174Y-69480142D01*
X159075000Y-69456250D01*
X159075000Y-68543750D01*
X159076174Y-68519858D01*
X159079684Y-68496197D01*
X159085496Y-68472993D01*
X159093554Y-68450471D01*
X159103782Y-68428847D01*
X159116079Y-68408330D01*
X159130329Y-68389117D01*
X159146393Y-68371393D01*
X159164117Y-68355329D01*
X159183330Y-68341079D01*
X159203847Y-68328782D01*
X159225471Y-68318554D01*
X159247993Y-68310496D01*
X159271197Y-68304684D01*
X159294858Y-68301174D01*
X159318750Y-68300000D01*
X159806250Y-68300000D01*
X159830142Y-68301174D01*
X159830142Y-68301174D01*
G37*
D11*
X159562500Y-69000000D03*
D10*
G36*
X156980142Y-77638674D02*
G01*
X157003803Y-77642184D01*
X157027007Y-77647996D01*
X157049529Y-77656054D01*
X157071153Y-77666282D01*
X157091670Y-77678579D01*
X157110883Y-77692829D01*
X157128607Y-77708893D01*
X157144671Y-77726617D01*
X157158921Y-77745830D01*
X157171218Y-77766347D01*
X157181446Y-77787971D01*
X157189504Y-77810493D01*
X157195316Y-77833697D01*
X157198826Y-77857358D01*
X157200000Y-77881250D01*
X157200000Y-78368750D01*
X157198826Y-78392642D01*
X157195316Y-78416303D01*
X157189504Y-78439507D01*
X157181446Y-78462029D01*
X157171218Y-78483653D01*
X157158921Y-78504170D01*
X157144671Y-78523383D01*
X157128607Y-78541107D01*
X157110883Y-78557171D01*
X157091670Y-78571421D01*
X157071153Y-78583718D01*
X157049529Y-78593946D01*
X157027007Y-78602004D01*
X157003803Y-78607816D01*
X156980142Y-78611326D01*
X156956250Y-78612500D01*
X156043750Y-78612500D01*
X156019858Y-78611326D01*
X155996197Y-78607816D01*
X155972993Y-78602004D01*
X155950471Y-78593946D01*
X155928847Y-78583718D01*
X155908330Y-78571421D01*
X155889117Y-78557171D01*
X155871393Y-78541107D01*
X155855329Y-78523383D01*
X155841079Y-78504170D01*
X155828782Y-78483653D01*
X155818554Y-78462029D01*
X155810496Y-78439507D01*
X155804684Y-78416303D01*
X155801174Y-78392642D01*
X155800000Y-78368750D01*
X155800000Y-77881250D01*
X155801174Y-77857358D01*
X155804684Y-77833697D01*
X155810496Y-77810493D01*
X155818554Y-77787971D01*
X155828782Y-77766347D01*
X155841079Y-77745830D01*
X155855329Y-77726617D01*
X155871393Y-77708893D01*
X155889117Y-77692829D01*
X155908330Y-77678579D01*
X155928847Y-77666282D01*
X155950471Y-77656054D01*
X155972993Y-77647996D01*
X155996197Y-77642184D01*
X156019858Y-77638674D01*
X156043750Y-77637500D01*
X156956250Y-77637500D01*
X156980142Y-77638674D01*
X156980142Y-77638674D01*
G37*
D11*
X156500000Y-78125000D03*
D10*
G36*
X156980142Y-75763674D02*
G01*
X157003803Y-75767184D01*
X157027007Y-75772996D01*
X157049529Y-75781054D01*
X157071153Y-75791282D01*
X157091670Y-75803579D01*
X157110883Y-75817829D01*
X157128607Y-75833893D01*
X157144671Y-75851617D01*
X157158921Y-75870830D01*
X157171218Y-75891347D01*
X157181446Y-75912971D01*
X157189504Y-75935493D01*
X157195316Y-75958697D01*
X157198826Y-75982358D01*
X157200000Y-76006250D01*
X157200000Y-76493750D01*
X157198826Y-76517642D01*
X157195316Y-76541303D01*
X157189504Y-76564507D01*
X157181446Y-76587029D01*
X157171218Y-76608653D01*
X157158921Y-76629170D01*
X157144671Y-76648383D01*
X157128607Y-76666107D01*
X157110883Y-76682171D01*
X157091670Y-76696421D01*
X157071153Y-76708718D01*
X157049529Y-76718946D01*
X157027007Y-76727004D01*
X157003803Y-76732816D01*
X156980142Y-76736326D01*
X156956250Y-76737500D01*
X156043750Y-76737500D01*
X156019858Y-76736326D01*
X155996197Y-76732816D01*
X155972993Y-76727004D01*
X155950471Y-76718946D01*
X155928847Y-76708718D01*
X155908330Y-76696421D01*
X155889117Y-76682171D01*
X155871393Y-76666107D01*
X155855329Y-76648383D01*
X155841079Y-76629170D01*
X155828782Y-76608653D01*
X155818554Y-76587029D01*
X155810496Y-76564507D01*
X155804684Y-76541303D01*
X155801174Y-76517642D01*
X155800000Y-76493750D01*
X155800000Y-76006250D01*
X155801174Y-75982358D01*
X155804684Y-75958697D01*
X155810496Y-75935493D01*
X155818554Y-75912971D01*
X155828782Y-75891347D01*
X155841079Y-75870830D01*
X155855329Y-75851617D01*
X155871393Y-75833893D01*
X155889117Y-75817829D01*
X155908330Y-75803579D01*
X155928847Y-75791282D01*
X155950471Y-75781054D01*
X155972993Y-75772996D01*
X155996197Y-75767184D01*
X156019858Y-75763674D01*
X156043750Y-75762500D01*
X156956250Y-75762500D01*
X156980142Y-75763674D01*
X156980142Y-75763674D01*
G37*
D11*
X156500000Y-76250000D03*
D10*
G36*
X154980142Y-77638674D02*
G01*
X155003803Y-77642184D01*
X155027007Y-77647996D01*
X155049529Y-77656054D01*
X155071153Y-77666282D01*
X155091670Y-77678579D01*
X155110883Y-77692829D01*
X155128607Y-77708893D01*
X155144671Y-77726617D01*
X155158921Y-77745830D01*
X155171218Y-77766347D01*
X155181446Y-77787971D01*
X155189504Y-77810493D01*
X155195316Y-77833697D01*
X155198826Y-77857358D01*
X155200000Y-77881250D01*
X155200000Y-78368750D01*
X155198826Y-78392642D01*
X155195316Y-78416303D01*
X155189504Y-78439507D01*
X155181446Y-78462029D01*
X155171218Y-78483653D01*
X155158921Y-78504170D01*
X155144671Y-78523383D01*
X155128607Y-78541107D01*
X155110883Y-78557171D01*
X155091670Y-78571421D01*
X155071153Y-78583718D01*
X155049529Y-78593946D01*
X155027007Y-78602004D01*
X155003803Y-78607816D01*
X154980142Y-78611326D01*
X154956250Y-78612500D01*
X154043750Y-78612500D01*
X154019858Y-78611326D01*
X153996197Y-78607816D01*
X153972993Y-78602004D01*
X153950471Y-78593946D01*
X153928847Y-78583718D01*
X153908330Y-78571421D01*
X153889117Y-78557171D01*
X153871393Y-78541107D01*
X153855329Y-78523383D01*
X153841079Y-78504170D01*
X153828782Y-78483653D01*
X153818554Y-78462029D01*
X153810496Y-78439507D01*
X153804684Y-78416303D01*
X153801174Y-78392642D01*
X153800000Y-78368750D01*
X153800000Y-77881250D01*
X153801174Y-77857358D01*
X153804684Y-77833697D01*
X153810496Y-77810493D01*
X153818554Y-77787971D01*
X153828782Y-77766347D01*
X153841079Y-77745830D01*
X153855329Y-77726617D01*
X153871393Y-77708893D01*
X153889117Y-77692829D01*
X153908330Y-77678579D01*
X153928847Y-77666282D01*
X153950471Y-77656054D01*
X153972993Y-77647996D01*
X153996197Y-77642184D01*
X154019858Y-77638674D01*
X154043750Y-77637500D01*
X154956250Y-77637500D01*
X154980142Y-77638674D01*
X154980142Y-77638674D01*
G37*
D11*
X154500000Y-78125000D03*
D10*
G36*
X154980142Y-75763674D02*
G01*
X155003803Y-75767184D01*
X155027007Y-75772996D01*
X155049529Y-75781054D01*
X155071153Y-75791282D01*
X155091670Y-75803579D01*
X155110883Y-75817829D01*
X155128607Y-75833893D01*
X155144671Y-75851617D01*
X155158921Y-75870830D01*
X155171218Y-75891347D01*
X155181446Y-75912971D01*
X155189504Y-75935493D01*
X155195316Y-75958697D01*
X155198826Y-75982358D01*
X155200000Y-76006250D01*
X155200000Y-76493750D01*
X155198826Y-76517642D01*
X155195316Y-76541303D01*
X155189504Y-76564507D01*
X155181446Y-76587029D01*
X155171218Y-76608653D01*
X155158921Y-76629170D01*
X155144671Y-76648383D01*
X155128607Y-76666107D01*
X155110883Y-76682171D01*
X155091670Y-76696421D01*
X155071153Y-76708718D01*
X155049529Y-76718946D01*
X155027007Y-76727004D01*
X155003803Y-76732816D01*
X154980142Y-76736326D01*
X154956250Y-76737500D01*
X154043750Y-76737500D01*
X154019858Y-76736326D01*
X153996197Y-76732816D01*
X153972993Y-76727004D01*
X153950471Y-76718946D01*
X153928847Y-76708718D01*
X153908330Y-76696421D01*
X153889117Y-76682171D01*
X153871393Y-76666107D01*
X153855329Y-76648383D01*
X153841079Y-76629170D01*
X153828782Y-76608653D01*
X153818554Y-76587029D01*
X153810496Y-76564507D01*
X153804684Y-76541303D01*
X153801174Y-76517642D01*
X153800000Y-76493750D01*
X153800000Y-76006250D01*
X153801174Y-75982358D01*
X153804684Y-75958697D01*
X153810496Y-75935493D01*
X153818554Y-75912971D01*
X153828782Y-75891347D01*
X153841079Y-75870830D01*
X153855329Y-75851617D01*
X153871393Y-75833893D01*
X153889117Y-75817829D01*
X153908330Y-75803579D01*
X153928847Y-75791282D01*
X153950471Y-75781054D01*
X153972993Y-75772996D01*
X153996197Y-75767184D01*
X154019858Y-75763674D01*
X154043750Y-75762500D01*
X154956250Y-75762500D01*
X154980142Y-75763674D01*
X154980142Y-75763674D01*
G37*
D11*
X154500000Y-76250000D03*
D14*
X162472500Y-76100000D03*
X161837500Y-76100000D03*
X161202500Y-76100000D03*
X160567500Y-76100000D03*
X159932500Y-76100000D03*
X159297500Y-76100000D03*
X158662500Y-76100000D03*
X158027500Y-76100000D03*
X158027500Y-70900000D03*
X158662500Y-70900000D03*
X159297500Y-70900000D03*
X159932500Y-70900000D03*
X160567500Y-70900000D03*
X161202500Y-70900000D03*
X161837500Y-70900000D03*
X162472500Y-70900000D03*
D15*
X145550000Y-73590000D03*
X145550000Y-71910000D03*
D16*
X145550000Y-75660000D03*
X145550000Y-69840000D03*
D17*
X147850000Y-75212500D03*
X147850000Y-70287500D03*
D18*
X148210000Y-74050000D03*
X148210000Y-73400000D03*
X148210000Y-72750000D03*
X148210000Y-72100000D03*
X148210000Y-71450000D03*
D19*
X150500000Y-70000000D03*
X150500000Y-75000000D03*
D20*
X154500000Y-68500000D03*
X162750000Y-69000000D03*
X159750000Y-74750000D03*
X169500000Y-80500000D03*
X158750000Y-72250000D03*
X158750000Y-80500000D03*
D21*
X150312500Y-72750000D02*
X150500000Y-72937500D01*
X148210000Y-72750000D02*
X150312500Y-72750000D01*
X154437500Y-72937500D02*
X154500000Y-73000000D01*
X150500000Y-72937500D02*
X154437500Y-72937500D01*
X152400000Y-72100000D02*
X152500000Y-72000000D01*
X148210000Y-72100000D02*
X152400000Y-72100000D01*
X156437500Y-72000000D02*
X156500000Y-72062500D01*
X152500000Y-72000000D02*
X156437500Y-72000000D01*
X159932500Y-69370000D02*
X159562500Y-69000000D01*
X159932500Y-70900000D02*
X159932500Y-69370000D01*
X148210000Y-73400000D02*
X148210000Y-74050000D01*
X148210000Y-74050000D02*
X149450000Y-74050000D01*
X150500000Y-76250000D02*
X152500000Y-76250000D01*
X150127164Y-70000000D02*
X150500000Y-70000000D01*
X149523790Y-70603374D02*
X150127164Y-70000000D01*
X149523790Y-70978610D02*
X149523790Y-70603374D01*
X148210000Y-71450000D02*
X149052400Y-71450000D01*
X149052400Y-71450000D02*
X149523790Y-70978610D01*
X150500000Y-75000000D02*
X150500000Y-76250000D01*
X152500000Y-78125000D02*
X156500000Y-78125000D01*
X157300000Y-78125000D02*
X156500000Y-78125000D01*
X158659900Y-78125000D02*
X157300000Y-78125000D01*
X159932500Y-76852400D02*
X158659900Y-78125000D01*
X159932500Y-76100000D02*
X159932500Y-76852400D01*
X161202500Y-69235000D02*
X161437500Y-69000000D01*
X161202500Y-70900000D02*
X161202500Y-69235000D01*
X154500000Y-67187500D02*
X154500000Y-68500000D01*
X161437500Y-69000000D02*
X162750000Y-69000000D01*
X159297500Y-76100000D02*
X159297500Y-75202500D01*
X159297500Y-75202500D02*
X159750000Y-74750000D01*
X158662500Y-76100000D02*
X159297500Y-76100000D01*
X166687500Y-80500000D02*
X169500000Y-80500000D01*
X166687500Y-80500000D02*
X166687500Y-78500000D01*
X161202500Y-78390000D02*
X161312500Y-78500000D01*
X161202500Y-76100000D02*
X161202500Y-78390000D01*
X158662500Y-70900000D02*
X158662500Y-72162500D01*
X158662500Y-72162500D02*
X158750000Y-72250000D01*
X158750000Y-80500000D02*
X161312500Y-80500000D01*
X145997500Y-75212500D02*
X145550000Y-75660000D01*
X147850000Y-75212500D02*
X145997500Y-75212500D01*
X145550000Y-75660000D02*
X145550000Y-73590000D01*
X145550000Y-72850100D02*
X145550000Y-69840000D01*
X145550000Y-73590000D02*
X145550000Y-72850100D01*
X147099900Y-70287500D02*
X147850000Y-70287500D01*
X146652400Y-69840000D02*
X147099900Y-70287500D01*
X145550000Y-69840000D02*
X146652400Y-69840000D01*
X169047919Y-74060000D02*
X170250000Y-74060000D01*
X163060000Y-74060000D02*
X169047919Y-74060000D01*
X160567500Y-71567500D02*
X163060000Y-74060000D01*
X160567500Y-70900000D02*
X160567500Y-71567500D01*
X158027500Y-75465000D02*
X158027500Y-76100000D01*
X156500000Y-73937500D02*
X158027500Y-75465000D01*
X157802500Y-71125000D02*
X158027500Y-70900000D01*
X154500000Y-71125000D02*
X157802500Y-71125000D01*
X169630000Y-70900000D02*
X170250000Y-71520000D01*
X162472500Y-70900000D02*
X169630000Y-70900000D01*
X163187500Y-78500000D02*
X164812500Y-78500000D01*
X163775000Y-80500000D02*
X164812500Y-80500000D01*
X163187500Y-80500000D02*
X163775000Y-80500000D01*
X152500000Y-65312500D02*
X154500000Y-65312500D01*
D22*
G36*
X180224000Y-81844000D02*
G01*
X143906000Y-81844000D01*
X143906000Y-80423078D01*
X157969000Y-80423078D01*
X157969000Y-80576922D01*
X157999013Y-80727809D01*
X158057887Y-80869942D01*
X158143358Y-80997859D01*
X158252141Y-81106642D01*
X158380058Y-81192113D01*
X158522191Y-81250987D01*
X158673078Y-81281000D01*
X158826922Y-81281000D01*
X158977809Y-81250987D01*
X159119942Y-81192113D01*
X159247859Y-81106642D01*
X159356642Y-80997859D01*
X159383809Y-80957200D01*
X160442251Y-80957200D01*
X160454197Y-81078492D01*
X160489854Y-81196037D01*
X160547757Y-81304366D01*
X160625682Y-81399318D01*
X160720634Y-81477243D01*
X160828963Y-81535146D01*
X160946508Y-81570803D01*
X161068750Y-81582843D01*
X161556250Y-81582843D01*
X161678492Y-81570803D01*
X161796037Y-81535146D01*
X161904366Y-81477243D01*
X161999318Y-81399318D01*
X162077243Y-81304366D01*
X162135146Y-81196037D01*
X162170803Y-81078492D01*
X162182843Y-80956250D01*
X162182843Y-80043750D01*
X162170803Y-79921508D01*
X162135146Y-79803963D01*
X162077243Y-79695634D01*
X161999318Y-79600682D01*
X161904366Y-79522757D01*
X161861791Y-79500000D01*
X161904366Y-79477243D01*
X161999318Y-79399318D01*
X162077243Y-79304366D01*
X162135146Y-79196037D01*
X162170803Y-79078492D01*
X162182843Y-78956250D01*
X162182843Y-78043750D01*
X162317157Y-78043750D01*
X162317157Y-78956250D01*
X162329197Y-79078492D01*
X162364854Y-79196037D01*
X162422757Y-79304366D01*
X162500682Y-79399318D01*
X162595634Y-79477243D01*
X162638209Y-79500000D01*
X162595634Y-79522757D01*
X162500682Y-79600682D01*
X162422757Y-79695634D01*
X162364854Y-79803963D01*
X162329197Y-79921508D01*
X162317157Y-80043750D01*
X162317157Y-80956250D01*
X162329197Y-81078492D01*
X162364854Y-81196037D01*
X162422757Y-81304366D01*
X162500682Y-81399318D01*
X162595634Y-81477243D01*
X162703963Y-81535146D01*
X162821508Y-81570803D01*
X162943750Y-81582843D01*
X163431250Y-81582843D01*
X163553492Y-81570803D01*
X163671037Y-81535146D01*
X163779366Y-81477243D01*
X163874318Y-81399318D01*
X163952243Y-81304366D01*
X164000000Y-81215019D01*
X164047757Y-81304366D01*
X164125682Y-81399318D01*
X164220634Y-81477243D01*
X164328963Y-81535146D01*
X164446508Y-81570803D01*
X164568750Y-81582843D01*
X165056250Y-81582843D01*
X165178492Y-81570803D01*
X165296037Y-81535146D01*
X165404366Y-81477243D01*
X165499318Y-81399318D01*
X165577243Y-81304366D01*
X165635146Y-81196037D01*
X165670803Y-81078492D01*
X165682843Y-80956250D01*
X165682843Y-80043750D01*
X165670803Y-79921508D01*
X165635146Y-79803963D01*
X165577243Y-79695634D01*
X165499318Y-79600682D01*
X165404366Y-79522757D01*
X165361791Y-79500000D01*
X165404366Y-79477243D01*
X165499318Y-79399318D01*
X165577243Y-79304366D01*
X165635146Y-79196037D01*
X165670803Y-79078492D01*
X165682843Y-78956250D01*
X165682843Y-78043750D01*
X165817157Y-78043750D01*
X165817157Y-78956250D01*
X165829197Y-79078492D01*
X165864854Y-79196037D01*
X165922757Y-79304366D01*
X166000682Y-79399318D01*
X166095634Y-79477243D01*
X166138209Y-79500000D01*
X166095634Y-79522757D01*
X166000682Y-79600682D01*
X165922757Y-79695634D01*
X165864854Y-79803963D01*
X165829197Y-79921508D01*
X165817157Y-80043750D01*
X165817157Y-80956250D01*
X165829197Y-81078492D01*
X165864854Y-81196037D01*
X165922757Y-81304366D01*
X166000682Y-81399318D01*
X166095634Y-81477243D01*
X166203963Y-81535146D01*
X166321508Y-81570803D01*
X166443750Y-81582843D01*
X166931250Y-81582843D01*
X167053492Y-81570803D01*
X167171037Y-81535146D01*
X167279366Y-81477243D01*
X167374318Y-81399318D01*
X167452243Y-81304366D01*
X167510146Y-81196037D01*
X167545803Y-81078492D01*
X167557749Y-80957200D01*
X168866191Y-80957200D01*
X168893358Y-80997859D01*
X169002141Y-81106642D01*
X169130058Y-81192113D01*
X169272191Y-81250987D01*
X169423078Y-81281000D01*
X169576922Y-81281000D01*
X169727809Y-81250987D01*
X169869942Y-81192113D01*
X169997859Y-81106642D01*
X170106642Y-80997859D01*
X170192113Y-80869942D01*
X170250987Y-80727809D01*
X170281000Y-80576922D01*
X170281000Y-80423078D01*
X170250987Y-80272191D01*
X170192113Y-80130058D01*
X170106642Y-80002141D01*
X169997859Y-79893358D01*
X169869942Y-79807887D01*
X169727809Y-79749013D01*
X169576922Y-79719000D01*
X169423078Y-79719000D01*
X169272191Y-79749013D01*
X169130058Y-79807887D01*
X169002141Y-79893358D01*
X168893358Y-80002141D01*
X168866191Y-80042800D01*
X167557749Y-80042800D01*
X167545803Y-79921508D01*
X167510146Y-79803963D01*
X167452243Y-79695634D01*
X167374318Y-79600682D01*
X167279366Y-79522757D01*
X167236791Y-79500000D01*
X167279366Y-79477243D01*
X167374318Y-79399318D01*
X167452243Y-79304366D01*
X167510146Y-79196037D01*
X167545803Y-79078492D01*
X167557843Y-78956250D01*
X167557843Y-78043750D01*
X167545803Y-77921508D01*
X167510146Y-77803963D01*
X167452243Y-77695634D01*
X167374318Y-77600682D01*
X167279366Y-77522757D01*
X167171037Y-77464854D01*
X167122071Y-77450000D01*
X169011928Y-77450000D01*
X169024188Y-77574482D01*
X169060498Y-77694180D01*
X169119463Y-77804494D01*
X169198815Y-77901185D01*
X169295506Y-77980537D01*
X169405820Y-78039502D01*
X169525518Y-78075812D01*
X169650000Y-78088072D01*
X170214250Y-78085000D01*
X170373000Y-77926250D01*
X170373000Y-76727000D01*
X170627000Y-76727000D01*
X170627000Y-77926250D01*
X170785750Y-78085000D01*
X171350000Y-78088072D01*
X171474482Y-78075812D01*
X171594180Y-78039502D01*
X171704494Y-77980537D01*
X171801185Y-77901185D01*
X171880537Y-77804494D01*
X171939502Y-77694180D01*
X171975812Y-77574482D01*
X171988072Y-77450000D01*
X171985000Y-76885750D01*
X171826250Y-76727000D01*
X170627000Y-76727000D01*
X170373000Y-76727000D01*
X169173750Y-76727000D01*
X169015000Y-76885750D01*
X169011928Y-77450000D01*
X167122071Y-77450000D01*
X167053492Y-77429197D01*
X166931250Y-77417157D01*
X166443750Y-77417157D01*
X166321508Y-77429197D01*
X166203963Y-77464854D01*
X166095634Y-77522757D01*
X166000682Y-77600682D01*
X165922757Y-77695634D01*
X165864854Y-77803963D01*
X165829197Y-77921508D01*
X165817157Y-78043750D01*
X165682843Y-78043750D01*
X165670803Y-77921508D01*
X165635146Y-77803963D01*
X165577243Y-77695634D01*
X165499318Y-77600682D01*
X165404366Y-77522757D01*
X165296037Y-77464854D01*
X165178492Y-77429197D01*
X165056250Y-77417157D01*
X164568750Y-77417157D01*
X164446508Y-77429197D01*
X164328963Y-77464854D01*
X164220634Y-77522757D01*
X164125682Y-77600682D01*
X164047757Y-77695634D01*
X164000000Y-77784981D01*
X163952243Y-77695634D01*
X163874318Y-77600682D01*
X163779366Y-77522757D01*
X163671037Y-77464854D01*
X163553492Y-77429197D01*
X163431250Y-77417157D01*
X162943750Y-77417157D01*
X162821508Y-77429197D01*
X162703963Y-77464854D01*
X162595634Y-77522757D01*
X162500682Y-77600682D01*
X162422757Y-77695634D01*
X162364854Y-77803963D01*
X162329197Y-77921508D01*
X162317157Y-78043750D01*
X162182843Y-78043750D01*
X162170803Y-77921508D01*
X162135146Y-77803963D01*
X162077243Y-77695634D01*
X161999318Y-77600682D01*
X161904366Y-77522757D01*
X161796037Y-77464854D01*
X161678492Y-77429197D01*
X161659700Y-77427346D01*
X161659700Y-77082843D01*
X162037500Y-77082843D01*
X162112189Y-77075487D01*
X162155000Y-77062500D01*
X162197811Y-77075487D01*
X162272500Y-77082843D01*
X162672500Y-77082843D01*
X162747189Y-77075487D01*
X162819008Y-77053701D01*
X162885196Y-77018322D01*
X162943211Y-76970711D01*
X162990822Y-76912696D01*
X163026201Y-76846508D01*
X163047987Y-76774689D01*
X163055343Y-76700000D01*
X163055343Y-75500000D01*
X163047987Y-75425311D01*
X163026201Y-75353492D01*
X162990822Y-75287304D01*
X162943211Y-75229289D01*
X162885196Y-75181678D01*
X162819008Y-75146299D01*
X162747189Y-75124513D01*
X162672500Y-75117157D01*
X162272500Y-75117157D01*
X162197811Y-75124513D01*
X162155000Y-75137500D01*
X162112189Y-75124513D01*
X162037500Y-75117157D01*
X161637500Y-75117157D01*
X161562811Y-75124513D01*
X161520000Y-75137500D01*
X161477189Y-75124513D01*
X161402500Y-75117157D01*
X161274323Y-75117157D01*
X161226423Y-75056688D01*
X161131119Y-74975675D01*
X161021841Y-74914811D01*
X160902789Y-74876436D01*
X160799250Y-74865000D01*
X160640500Y-75023750D01*
X160640500Y-75380850D01*
X160627013Y-75425311D01*
X160619657Y-75500000D01*
X160619657Y-76700000D01*
X160627013Y-76774689D01*
X160640500Y-76819150D01*
X160640500Y-77176250D01*
X160745301Y-77281051D01*
X160745301Y-77509572D01*
X160720634Y-77522757D01*
X160625682Y-77600682D01*
X160547757Y-77695634D01*
X160489854Y-77803963D01*
X160454197Y-77921508D01*
X160442157Y-78043750D01*
X160442157Y-78956250D01*
X160454197Y-79078492D01*
X160489854Y-79196037D01*
X160547757Y-79304366D01*
X160625682Y-79399318D01*
X160720634Y-79477243D01*
X160763209Y-79500000D01*
X160720634Y-79522757D01*
X160625682Y-79600682D01*
X160547757Y-79695634D01*
X160489854Y-79803963D01*
X160454197Y-79921508D01*
X160442251Y-80042800D01*
X159383809Y-80042800D01*
X159356642Y-80002141D01*
X159247859Y-79893358D01*
X159119942Y-79807887D01*
X158977809Y-79749013D01*
X158826922Y-79719000D01*
X158673078Y-79719000D01*
X158522191Y-79749013D01*
X158380058Y-79807887D01*
X158252141Y-79893358D01*
X158143358Y-80002141D01*
X158057887Y-80130058D01*
X157999013Y-80272191D01*
X157969000Y-80423078D01*
X143906000Y-80423078D01*
X143906000Y-78612500D01*
X149161928Y-78612500D01*
X149174188Y-78736982D01*
X149210498Y-78856680D01*
X149269463Y-78966994D01*
X149348815Y-79063685D01*
X149445506Y-79143037D01*
X149555820Y-79202002D01*
X149675518Y-79238312D01*
X149800000Y-79250572D01*
X150214250Y-79247500D01*
X150373000Y-79088750D01*
X150373000Y-78252000D01*
X149323750Y-78252000D01*
X149165000Y-78410750D01*
X149161928Y-78612500D01*
X143906000Y-78612500D01*
X143906000Y-68652500D01*
X144217157Y-68652500D01*
X144217157Y-71027500D01*
X144224513Y-71102189D01*
X144246299Y-71174008D01*
X144246829Y-71175000D01*
X144246299Y-71175992D01*
X144224513Y-71247811D01*
X144217157Y-71322500D01*
X144217157Y-72497500D01*
X144224513Y-72572189D01*
X144246299Y-72644008D01*
X144281678Y-72710196D01*
X144314344Y-72750000D01*
X144281678Y-72789804D01*
X144246299Y-72855992D01*
X144224513Y-72927811D01*
X144217157Y-73002500D01*
X144217157Y-74177500D01*
X144224513Y-74252189D01*
X144246299Y-74324008D01*
X144246829Y-74325000D01*
X144246299Y-74325992D01*
X144224513Y-74397811D01*
X144217157Y-74472500D01*
X144217157Y-76847500D01*
X144224513Y-76922189D01*
X144246299Y-76994008D01*
X144281678Y-77060196D01*
X144329289Y-77118211D01*
X144387304Y-77165822D01*
X144453492Y-77201201D01*
X144525311Y-77222987D01*
X144600000Y-77230343D01*
X146500000Y-77230343D01*
X146574689Y-77222987D01*
X146646508Y-77201201D01*
X146712696Y-77165822D01*
X146770711Y-77118211D01*
X146818322Y-77060196D01*
X146853701Y-76994008D01*
X146875487Y-76922189D01*
X146882843Y-76847500D01*
X146882843Y-76332843D01*
X148900000Y-76332843D01*
X148974689Y-76325487D01*
X149046508Y-76303701D01*
X149112696Y-76268322D01*
X149170711Y-76220711D01*
X149218322Y-76162696D01*
X149253701Y-76096508D01*
X149275487Y-76024689D01*
X149282843Y-75950000D01*
X149282843Y-74781852D01*
X149344021Y-74733237D01*
X149424887Y-74637808D01*
X149485581Y-74528437D01*
X149523773Y-74409326D01*
X149535000Y-74306750D01*
X149376250Y-74148000D01*
X149262522Y-74148000D01*
X149344021Y-74083237D01*
X149424887Y-73987808D01*
X149485581Y-73878437D01*
X149502463Y-73825787D01*
X149535000Y-73793250D01*
X149527530Y-73725000D01*
X149535000Y-73656750D01*
X149502463Y-73624213D01*
X149485581Y-73571563D01*
X149460852Y-73527002D01*
X149521493Y-73527002D01*
X149522757Y-73529366D01*
X149600682Y-73624318D01*
X149695634Y-73702243D01*
X149803963Y-73760146D01*
X149921508Y-73795803D01*
X150043750Y-73807843D01*
X150956250Y-73807843D01*
X151078492Y-73795803D01*
X151196037Y-73760146D01*
X151287179Y-73711429D01*
X151323750Y-73748000D01*
X152373000Y-73748000D01*
X152373000Y-73728000D01*
X152627000Y-73728000D01*
X152627000Y-73748000D01*
X153675233Y-73748000D01*
X153695634Y-73764743D01*
X153803963Y-73822646D01*
X153921508Y-73858303D01*
X154043750Y-73870343D01*
X154956250Y-73870343D01*
X155078492Y-73858303D01*
X155196037Y-73822646D01*
X155304366Y-73764743D01*
X155399318Y-73686818D01*
X155420366Y-73661171D01*
X155417157Y-73693750D01*
X155417157Y-74181250D01*
X155429197Y-74303492D01*
X155464854Y-74421037D01*
X155522757Y-74529366D01*
X155600682Y-74624318D01*
X155695634Y-74702243D01*
X155803963Y-74760146D01*
X155921508Y-74795803D01*
X156043750Y-74807843D01*
X156723766Y-74807843D01*
X157041526Y-75125603D01*
X156785750Y-75127500D01*
X156627000Y-75286250D01*
X156627000Y-76123000D01*
X156647000Y-76123000D01*
X156647000Y-76377000D01*
X156627000Y-76377000D01*
X156627000Y-76397000D01*
X156373000Y-76397000D01*
X156373000Y-76377000D01*
X154627000Y-76377000D01*
X154627000Y-76397000D01*
X154373000Y-76397000D01*
X154373000Y-76377000D01*
X154353000Y-76377000D01*
X154353000Y-76123000D01*
X154373000Y-76123000D01*
X154373000Y-75286250D01*
X154627000Y-75286250D01*
X154627000Y-76123000D01*
X156373000Y-76123000D01*
X156373000Y-75286250D01*
X156214250Y-75127500D01*
X155800000Y-75124428D01*
X155675518Y-75136688D01*
X155555820Y-75172998D01*
X155500000Y-75202835D01*
X155444180Y-75172998D01*
X155324482Y-75136688D01*
X155200000Y-75124428D01*
X154785750Y-75127500D01*
X154627000Y-75286250D01*
X154373000Y-75286250D01*
X154214250Y-75127500D01*
X153800000Y-75124428D01*
X153675518Y-75136688D01*
X153555820Y-75172998D01*
X153445506Y-75231963D01*
X153348815Y-75311315D01*
X153269463Y-75408006D01*
X153245103Y-75453580D01*
X153196037Y-75427354D01*
X153078492Y-75391697D01*
X152956250Y-75379657D01*
X152043750Y-75379657D01*
X151921508Y-75391697D01*
X151803963Y-75427354D01*
X151695634Y-75485257D01*
X151600682Y-75563182D01*
X151522757Y-75658134D01*
X151500000Y-75700709D01*
X151477243Y-75658134D01*
X151399318Y-75563182D01*
X151304366Y-75485257D01*
X151196037Y-75427354D01*
X151103779Y-75399368D01*
X151141512Y-75342895D01*
X151196081Y-75211154D01*
X151223900Y-75071298D01*
X151223900Y-74928702D01*
X151196081Y-74788846D01*
X151141512Y-74657105D01*
X151062290Y-74538540D01*
X150961460Y-74437710D01*
X150848900Y-74362500D01*
X151161928Y-74362500D01*
X151174188Y-74486982D01*
X151210498Y-74606680D01*
X151269463Y-74716994D01*
X151348815Y-74813685D01*
X151445506Y-74893037D01*
X151555820Y-74952002D01*
X151675518Y-74988312D01*
X151800000Y-75000572D01*
X152214250Y-74997500D01*
X152373000Y-74838750D01*
X152373000Y-74002000D01*
X152627000Y-74002000D01*
X152627000Y-74838750D01*
X152785750Y-74997500D01*
X153200000Y-75000572D01*
X153324482Y-74988312D01*
X153444180Y-74952002D01*
X153554494Y-74893037D01*
X153651185Y-74813685D01*
X153730537Y-74716994D01*
X153789502Y-74606680D01*
X153825812Y-74486982D01*
X153838072Y-74362500D01*
X153835000Y-74160750D01*
X153676250Y-74002000D01*
X152627000Y-74002000D01*
X152373000Y-74002000D01*
X151323750Y-74002000D01*
X151165000Y-74160750D01*
X151161928Y-74362500D01*
X150848900Y-74362500D01*
X150842895Y-74358488D01*
X150711154Y-74303919D01*
X150571298Y-74276100D01*
X150428702Y-74276100D01*
X150288846Y-74303919D01*
X150157105Y-74358488D01*
X150038540Y-74437710D01*
X149937710Y-74538540D01*
X149858488Y-74657105D01*
X149803919Y-74788846D01*
X149776100Y-74928702D01*
X149776100Y-75071298D01*
X149803919Y-75211154D01*
X149858488Y-75342895D01*
X149896221Y-75399368D01*
X149803963Y-75427354D01*
X149695634Y-75485257D01*
X149600682Y-75563182D01*
X149522757Y-75658134D01*
X149464854Y-75766463D01*
X149429197Y-75884008D01*
X149417157Y-76006250D01*
X149417157Y-76493750D01*
X149429197Y-76615992D01*
X149464854Y-76733537D01*
X149522757Y-76841866D01*
X149600682Y-76936818D01*
X149690155Y-77010246D01*
X149675518Y-77011688D01*
X149555820Y-77047998D01*
X149445506Y-77106963D01*
X149348815Y-77186315D01*
X149269463Y-77283006D01*
X149210498Y-77393320D01*
X149174188Y-77513018D01*
X149161928Y-77637500D01*
X149165000Y-77839250D01*
X149323750Y-77998000D01*
X150373000Y-77998000D01*
X150373000Y-77978000D01*
X150627000Y-77978000D01*
X150627000Y-77998000D01*
X150647000Y-77998000D01*
X150647000Y-78252000D01*
X150627000Y-78252000D01*
X150627000Y-79088750D01*
X150785750Y-79247500D01*
X151200000Y-79250572D01*
X151324482Y-79238312D01*
X151444180Y-79202002D01*
X151554494Y-79143037D01*
X151651185Y-79063685D01*
X151730537Y-78966994D01*
X151754897Y-78921420D01*
X151803963Y-78947646D01*
X151921508Y-78983303D01*
X152043750Y-78995343D01*
X152956250Y-78995343D01*
X153078492Y-78983303D01*
X153196037Y-78947646D01*
X153304366Y-78889743D01*
X153399318Y-78811818D01*
X153477243Y-78716866D01*
X153500000Y-78674291D01*
X153522757Y-78716866D01*
X153600682Y-78811818D01*
X153695634Y-78889743D01*
X153803963Y-78947646D01*
X153921508Y-78983303D01*
X154043750Y-78995343D01*
X154956250Y-78995343D01*
X155078492Y-78983303D01*
X155196037Y-78947646D01*
X155304366Y-78889743D01*
X155399318Y-78811818D01*
X155477243Y-78716866D01*
X155500000Y-78674291D01*
X155522757Y-78716866D01*
X155600682Y-78811818D01*
X155695634Y-78889743D01*
X155803963Y-78947646D01*
X155921508Y-78983303D01*
X156043750Y-78995343D01*
X156956250Y-78995343D01*
X157078492Y-78983303D01*
X157196037Y-78947646D01*
X157304366Y-78889743D01*
X157399318Y-78811818D01*
X157477243Y-78716866D01*
X157535146Y-78608537D01*
X157543135Y-78582200D01*
X158637450Y-78582200D01*
X158659900Y-78584411D01*
X158682350Y-78582200D01*
X158682360Y-78582200D01*
X158749527Y-78575585D01*
X158835709Y-78549441D01*
X158915136Y-78506987D01*
X158984753Y-78449853D01*
X158999074Y-78432403D01*
X160138213Y-77293265D01*
X160232211Y-77323564D01*
X160335750Y-77335000D01*
X160494500Y-77176250D01*
X160494500Y-76819150D01*
X160507987Y-76774689D01*
X160515343Y-76700000D01*
X160515343Y-75500000D01*
X160507987Y-75425311D01*
X160494500Y-75380850D01*
X160494500Y-75023750D01*
X160485631Y-75014881D01*
X160500987Y-74977809D01*
X160531000Y-74826922D01*
X160531000Y-74673078D01*
X160500987Y-74522191D01*
X160442113Y-74380058D01*
X160356642Y-74252141D01*
X160247859Y-74143358D01*
X160119942Y-74057887D01*
X159977809Y-73999013D01*
X159826922Y-73969000D01*
X159673078Y-73969000D01*
X159522191Y-73999013D01*
X159380058Y-74057887D01*
X159252141Y-74143358D01*
X159143358Y-74252141D01*
X159057887Y-74380058D01*
X158999013Y-74522191D01*
X158969000Y-74673078D01*
X158969000Y-74826922D01*
X158978186Y-74873102D01*
X158972648Y-74877647D01*
X158958331Y-74895092D01*
X158958330Y-74895093D01*
X158915513Y-74947265D01*
X158874632Y-75023750D01*
X158873060Y-75026691D01*
X158846916Y-75112873D01*
X158846494Y-75117157D01*
X158462500Y-75117157D01*
X158387811Y-75124513D01*
X158348013Y-75136585D01*
X158334909Y-75125831D01*
X157557249Y-74348172D01*
X157570803Y-74303492D01*
X157582843Y-74181250D01*
X157582843Y-73693750D01*
X157570803Y-73571508D01*
X157535146Y-73453963D01*
X157477243Y-73345634D01*
X157399318Y-73250682D01*
X157304366Y-73172757D01*
X157196037Y-73114854D01*
X157078492Y-73079197D01*
X156956250Y-73067157D01*
X156043750Y-73067157D01*
X155921508Y-73079197D01*
X155803963Y-73114854D01*
X155695634Y-73172757D01*
X155600682Y-73250682D01*
X155579634Y-73276329D01*
X155582843Y-73243750D01*
X155582843Y-72756250D01*
X155579634Y-72723671D01*
X155600682Y-72749318D01*
X155695634Y-72827243D01*
X155803963Y-72885146D01*
X155921508Y-72920803D01*
X156043750Y-72932843D01*
X156956250Y-72932843D01*
X157078492Y-72920803D01*
X157196037Y-72885146D01*
X157304366Y-72827243D01*
X157399318Y-72749318D01*
X157477243Y-72654366D01*
X157535146Y-72546037D01*
X157570803Y-72428492D01*
X157582843Y-72306250D01*
X157582843Y-71818750D01*
X157579987Y-71789748D01*
X157614804Y-71818322D01*
X157680992Y-71853701D01*
X157752811Y-71875487D01*
X157827500Y-71882843D01*
X158056733Y-71882843D01*
X157999013Y-72022191D01*
X157969000Y-72173078D01*
X157969000Y-72326922D01*
X157999013Y-72477809D01*
X158057887Y-72619942D01*
X158143358Y-72747859D01*
X158252141Y-72856642D01*
X158380058Y-72942113D01*
X158522191Y-73000987D01*
X158673078Y-73031000D01*
X158826922Y-73031000D01*
X158977809Y-73000987D01*
X159119942Y-72942113D01*
X159247859Y-72856642D01*
X159356642Y-72747859D01*
X159442113Y-72619942D01*
X159500987Y-72477809D01*
X159531000Y-72326922D01*
X159531000Y-72173078D01*
X159515940Y-72097367D01*
X159597211Y-72123564D01*
X159700750Y-72135000D01*
X159859500Y-71976250D01*
X159859500Y-71619150D01*
X159872987Y-71574689D01*
X159880343Y-71500000D01*
X159880343Y-70753000D01*
X159984657Y-70753000D01*
X159984657Y-71500000D01*
X159992013Y-71574689D01*
X160005500Y-71619150D01*
X160005500Y-71976250D01*
X160164250Y-72135000D01*
X160267789Y-72123564D01*
X160386841Y-72085189D01*
X160420092Y-72066669D01*
X162720830Y-74367408D01*
X162735147Y-74384853D01*
X162752592Y-74399170D01*
X162804763Y-74441987D01*
X162816408Y-74448211D01*
X162884191Y-74484441D01*
X162970373Y-74510585D01*
X163037540Y-74517200D01*
X163037549Y-74517200D01*
X163059999Y-74519411D01*
X163082449Y-74517200D01*
X169352299Y-74517200D01*
X169357202Y-74533363D01*
X169471509Y-74747216D01*
X169625340Y-74934660D01*
X169812784Y-75088491D01*
X169858758Y-75113065D01*
X169650000Y-75111928D01*
X169525518Y-75124188D01*
X169405820Y-75160498D01*
X169295506Y-75219463D01*
X169198815Y-75298815D01*
X169119463Y-75395506D01*
X169060498Y-75505820D01*
X169024188Y-75625518D01*
X169011928Y-75750000D01*
X169015000Y-76314250D01*
X169173750Y-76473000D01*
X170373000Y-76473000D01*
X170373000Y-76453000D01*
X170627000Y-76453000D01*
X170627000Y-76473000D01*
X171826250Y-76473000D01*
X171985000Y-76314250D01*
X171988072Y-75750000D01*
X171975812Y-75625518D01*
X171939502Y-75505820D01*
X171880537Y-75395506D01*
X171801185Y-75298815D01*
X171704494Y-75219463D01*
X171594180Y-75160498D01*
X171474482Y-75124188D01*
X171350000Y-75111928D01*
X171141242Y-75113065D01*
X171187216Y-75088491D01*
X171374660Y-74934660D01*
X171528491Y-74747216D01*
X171642798Y-74533363D01*
X171713188Y-74301318D01*
X171736956Y-74060000D01*
X171713188Y-73818682D01*
X171642798Y-73586637D01*
X171528491Y-73372784D01*
X171374660Y-73185340D01*
X171187216Y-73031509D01*
X170973363Y-72917202D01*
X170741318Y-72846812D01*
X170560472Y-72829000D01*
X170439528Y-72829000D01*
X170258682Y-72846812D01*
X170026637Y-72917202D01*
X169812784Y-73031509D01*
X169625340Y-73185340D01*
X169471509Y-73372784D01*
X169357202Y-73586637D01*
X169352299Y-73602800D01*
X163249378Y-73602800D01*
X161511620Y-71865043D01*
X161520000Y-71862500D01*
X161562811Y-71875487D01*
X161637500Y-71882843D01*
X162037500Y-71882843D01*
X162112189Y-71875487D01*
X162155000Y-71862500D01*
X162197811Y-71875487D01*
X162272500Y-71882843D01*
X162672500Y-71882843D01*
X162747189Y-71875487D01*
X162819008Y-71853701D01*
X162885196Y-71818322D01*
X162943211Y-71770711D01*
X162990822Y-71712696D01*
X163026201Y-71646508D01*
X163047987Y-71574689D01*
X163055343Y-71500000D01*
X163055343Y-71357200D01*
X169279079Y-71357200D01*
X169263044Y-71520000D01*
X169286812Y-71761318D01*
X169357202Y-71993363D01*
X169471509Y-72207216D01*
X169625340Y-72394660D01*
X169812784Y-72548491D01*
X170026637Y-72662798D01*
X170258682Y-72733188D01*
X170439528Y-72751000D01*
X170560472Y-72751000D01*
X170741318Y-72733188D01*
X170973363Y-72662798D01*
X171187216Y-72548491D01*
X171374660Y-72394660D01*
X171528491Y-72207216D01*
X171642798Y-71993363D01*
X171713188Y-71761318D01*
X171736956Y-71520000D01*
X171713188Y-71278682D01*
X171642798Y-71046637D01*
X171528491Y-70832784D01*
X171374660Y-70645340D01*
X171187216Y-70491509D01*
X170973363Y-70377202D01*
X170741318Y-70306812D01*
X170560472Y-70289000D01*
X170439528Y-70289000D01*
X170258682Y-70306812D01*
X170026637Y-70377202D01*
X169824217Y-70485398D01*
X169805809Y-70475559D01*
X169719627Y-70449415D01*
X169652460Y-70442800D01*
X169652450Y-70442800D01*
X169630000Y-70440589D01*
X169607550Y-70442800D01*
X163055343Y-70442800D01*
X163055343Y-70300000D01*
X163047987Y-70225311D01*
X163026201Y-70153492D01*
X162990822Y-70087304D01*
X162943211Y-70029289D01*
X162885196Y-69981678D01*
X162819008Y-69946299D01*
X162747189Y-69924513D01*
X162672500Y-69917157D01*
X162272500Y-69917157D01*
X162197811Y-69924513D01*
X162155000Y-69937500D01*
X162112189Y-69924513D01*
X162095608Y-69922880D01*
X162124318Y-69899318D01*
X162202243Y-69804366D01*
X162260146Y-69696037D01*
X162281345Y-69626155D01*
X162380058Y-69692113D01*
X162522191Y-69750987D01*
X162673078Y-69781000D01*
X162826922Y-69781000D01*
X162977809Y-69750987D01*
X163119942Y-69692113D01*
X163247859Y-69606642D01*
X163356642Y-69497859D01*
X163442113Y-69369942D01*
X163500987Y-69227809D01*
X163531000Y-69076922D01*
X163531000Y-68980000D01*
X169263044Y-68980000D01*
X169286812Y-69221318D01*
X169357202Y-69453363D01*
X169471509Y-69667216D01*
X169625340Y-69854660D01*
X169812784Y-70008491D01*
X170026637Y-70122798D01*
X170258682Y-70193188D01*
X170439528Y-70211000D01*
X170560472Y-70211000D01*
X170741318Y-70193188D01*
X170973363Y-70122798D01*
X171187216Y-70008491D01*
X171374660Y-69854660D01*
X171528491Y-69667216D01*
X171642798Y-69453363D01*
X171713188Y-69221318D01*
X171736956Y-68980000D01*
X171713188Y-68738682D01*
X171642798Y-68506637D01*
X171528491Y-68292784D01*
X171374660Y-68105340D01*
X171187216Y-67951509D01*
X170973363Y-67837202D01*
X170741318Y-67766812D01*
X170560472Y-67749000D01*
X170439528Y-67749000D01*
X170258682Y-67766812D01*
X170026637Y-67837202D01*
X169812784Y-67951509D01*
X169625340Y-68105340D01*
X169471509Y-68292784D01*
X169357202Y-68506637D01*
X169286812Y-68738682D01*
X169263044Y-68980000D01*
X163531000Y-68980000D01*
X163531000Y-68923078D01*
X163500987Y-68772191D01*
X163442113Y-68630058D01*
X163356642Y-68502141D01*
X163247859Y-68393358D01*
X163119942Y-68307887D01*
X162977809Y-68249013D01*
X162826922Y-68219000D01*
X162673078Y-68219000D01*
X162522191Y-68249013D01*
X162380058Y-68307887D01*
X162281345Y-68373845D01*
X162260146Y-68303963D01*
X162202243Y-68195634D01*
X162124318Y-68100682D01*
X162029366Y-68022757D01*
X161921037Y-67964854D01*
X161803492Y-67929197D01*
X161681250Y-67917157D01*
X161193750Y-67917157D01*
X161071508Y-67929197D01*
X160953963Y-67964854D01*
X160845634Y-68022757D01*
X160750682Y-68100682D01*
X160677254Y-68190155D01*
X160675812Y-68175518D01*
X160639502Y-68055820D01*
X160580537Y-67945506D01*
X160501185Y-67848815D01*
X160404494Y-67769463D01*
X160294180Y-67710498D01*
X160174482Y-67674188D01*
X160050000Y-67661928D01*
X159848250Y-67665000D01*
X159689500Y-67823750D01*
X159689500Y-68873000D01*
X159709500Y-68873000D01*
X159709500Y-69127000D01*
X159689500Y-69127000D01*
X159689500Y-69147000D01*
X159435500Y-69147000D01*
X159435500Y-69127000D01*
X158598750Y-69127000D01*
X158440000Y-69285750D01*
X158436928Y-69700000D01*
X158449188Y-69824482D01*
X158477301Y-69917157D01*
X158462500Y-69917157D01*
X158387811Y-69924513D01*
X158345000Y-69937500D01*
X158302189Y-69924513D01*
X158227500Y-69917157D01*
X157827500Y-69917157D01*
X157752811Y-69924513D01*
X157680992Y-69946299D01*
X157614804Y-69981678D01*
X157556789Y-70029289D01*
X157509178Y-70087304D01*
X157473799Y-70153492D01*
X157452013Y-70225311D01*
X157444657Y-70300000D01*
X157444657Y-70667800D01*
X155543135Y-70667800D01*
X155535146Y-70641463D01*
X155477243Y-70533134D01*
X155399318Y-70438182D01*
X155304366Y-70360257D01*
X155196037Y-70302354D01*
X155078492Y-70266697D01*
X154956250Y-70254657D01*
X154043750Y-70254657D01*
X153921508Y-70266697D01*
X153803963Y-70302354D01*
X153695634Y-70360257D01*
X153600682Y-70438182D01*
X153522757Y-70533134D01*
X153464854Y-70641463D01*
X153429197Y-70759008D01*
X153417157Y-70881250D01*
X153417157Y-71334919D01*
X153399318Y-71313182D01*
X153304366Y-71235257D01*
X153196037Y-71177354D01*
X153078492Y-71141697D01*
X152956250Y-71129657D01*
X152043750Y-71129657D01*
X151921508Y-71141697D01*
X151803963Y-71177354D01*
X151712821Y-71226071D01*
X151676250Y-71189500D01*
X150627000Y-71189500D01*
X150627000Y-71209500D01*
X150373000Y-71209500D01*
X150373000Y-71189500D01*
X150353000Y-71189500D01*
X150353000Y-70935500D01*
X150373000Y-70935500D01*
X150373000Y-70915500D01*
X150627000Y-70915500D01*
X150627000Y-70935500D01*
X151676250Y-70935500D01*
X151835000Y-70776750D01*
X151838072Y-70575000D01*
X151825812Y-70450518D01*
X151789502Y-70330820D01*
X151730537Y-70220506D01*
X151651185Y-70123815D01*
X151554494Y-70044463D01*
X151444180Y-69985498D01*
X151324482Y-69949188D01*
X151223900Y-69939282D01*
X151223900Y-69928702D01*
X151196081Y-69788846D01*
X151141512Y-69657105D01*
X151062290Y-69538540D01*
X150961460Y-69437710D01*
X150842895Y-69358488D01*
X150711154Y-69303919D01*
X150571298Y-69276100D01*
X150428702Y-69276100D01*
X150288846Y-69303919D01*
X150157105Y-69358488D01*
X150038540Y-69437710D01*
X149937710Y-69538540D01*
X149891653Y-69607470D01*
X149871928Y-69618013D01*
X149819756Y-69660829D01*
X149819750Y-69660835D01*
X149802311Y-69675147D01*
X149787998Y-69692587D01*
X149393184Y-70087403D01*
X149348815Y-70123815D01*
X149312402Y-70168185D01*
X149282843Y-70197744D01*
X149282843Y-69550000D01*
X149275487Y-69475311D01*
X149253701Y-69403492D01*
X149218322Y-69337304D01*
X149170711Y-69279289D01*
X149112696Y-69231678D01*
X149046508Y-69196299D01*
X148974689Y-69174513D01*
X148900000Y-69167157D01*
X146882843Y-69167157D01*
X146882843Y-68652500D01*
X146875487Y-68577811D01*
X146853701Y-68505992D01*
X146818322Y-68439804D01*
X146770711Y-68381789D01*
X146712696Y-68334178D01*
X146646508Y-68298799D01*
X146574689Y-68277013D01*
X146500000Y-68269657D01*
X144600000Y-68269657D01*
X144525311Y-68277013D01*
X144453492Y-68298799D01*
X144387304Y-68334178D01*
X144329289Y-68381789D01*
X144281678Y-68439804D01*
X144246299Y-68505992D01*
X144224513Y-68577811D01*
X144217157Y-68652500D01*
X143906000Y-68652500D01*
X143906000Y-67675000D01*
X151161928Y-67675000D01*
X151174188Y-67799482D01*
X151210498Y-67919180D01*
X151269463Y-68029494D01*
X151348815Y-68126185D01*
X151445506Y-68205537D01*
X151555820Y-68264502D01*
X151675518Y-68300812D01*
X151800000Y-68313072D01*
X152214250Y-68310000D01*
X152373000Y-68151250D01*
X152373000Y-67314500D01*
X151323750Y-67314500D01*
X151165000Y-67473250D01*
X151161928Y-67675000D01*
X143906000Y-67675000D01*
X143906000Y-66700000D01*
X151161928Y-66700000D01*
X151165000Y-66901750D01*
X151323750Y-67060500D01*
X152373000Y-67060500D01*
X152373000Y-67040500D01*
X152627000Y-67040500D01*
X152627000Y-67060500D01*
X152647000Y-67060500D01*
X152647000Y-67314500D01*
X152627000Y-67314500D01*
X152627000Y-68151250D01*
X152785750Y-68310000D01*
X153200000Y-68313072D01*
X153324482Y-68300812D01*
X153444180Y-68264502D01*
X153554494Y-68205537D01*
X153651185Y-68126185D01*
X153730537Y-68029494D01*
X153754897Y-67983920D01*
X153803963Y-68010146D01*
X153873845Y-68031345D01*
X153807887Y-68130058D01*
X153749013Y-68272191D01*
X153719000Y-68423078D01*
X153719000Y-68576922D01*
X153749013Y-68727809D01*
X153807887Y-68869942D01*
X153893358Y-68997859D01*
X154002141Y-69106642D01*
X154130058Y-69192113D01*
X154272191Y-69250987D01*
X154423078Y-69281000D01*
X154576922Y-69281000D01*
X154727809Y-69250987D01*
X154869942Y-69192113D01*
X154997859Y-69106642D01*
X155106642Y-68997859D01*
X155192113Y-68869942D01*
X155250987Y-68727809D01*
X155281000Y-68576922D01*
X155281000Y-68423078D01*
X155256519Y-68300000D01*
X158436928Y-68300000D01*
X158440000Y-68714250D01*
X158598750Y-68873000D01*
X159435500Y-68873000D01*
X159435500Y-67823750D01*
X159276750Y-67665000D01*
X159075000Y-67661928D01*
X158950518Y-67674188D01*
X158830820Y-67710498D01*
X158720506Y-67769463D01*
X158623815Y-67848815D01*
X158544463Y-67945506D01*
X158485498Y-68055820D01*
X158449188Y-68175518D01*
X158436928Y-68300000D01*
X155256519Y-68300000D01*
X155250987Y-68272191D01*
X155192113Y-68130058D01*
X155126155Y-68031345D01*
X155196037Y-68010146D01*
X155304366Y-67952243D01*
X155399318Y-67874318D01*
X155477243Y-67779366D01*
X155535146Y-67671037D01*
X155570803Y-67553492D01*
X155582843Y-67431250D01*
X155582843Y-66943750D01*
X155570803Y-66821508D01*
X155535146Y-66703963D01*
X155477243Y-66595634D01*
X155399318Y-66500682D01*
X155304366Y-66422757D01*
X155196037Y-66364854D01*
X155078492Y-66329197D01*
X154956250Y-66317157D01*
X154043750Y-66317157D01*
X153921508Y-66329197D01*
X153803963Y-66364854D01*
X153754897Y-66391080D01*
X153730537Y-66345506D01*
X153651185Y-66248815D01*
X153554494Y-66169463D01*
X153444180Y-66110498D01*
X153324482Y-66074188D01*
X153309845Y-66072746D01*
X153399318Y-65999318D01*
X153477243Y-65904366D01*
X153500000Y-65861791D01*
X153522757Y-65904366D01*
X153600682Y-65999318D01*
X153695634Y-66077243D01*
X153803963Y-66135146D01*
X153921508Y-66170803D01*
X154043750Y-66182843D01*
X154956250Y-66182843D01*
X155078492Y-66170803D01*
X155196037Y-66135146D01*
X155304366Y-66077243D01*
X155399318Y-65999318D01*
X155477243Y-65904366D01*
X155535146Y-65796037D01*
X155570803Y-65678492D01*
X155582843Y-65556250D01*
X155582843Y-65068750D01*
X155570803Y-64946508D01*
X155535146Y-64828963D01*
X155477243Y-64720634D01*
X155399318Y-64625682D01*
X155304366Y-64547757D01*
X155196037Y-64489854D01*
X155078492Y-64454197D01*
X154956250Y-64442157D01*
X154043750Y-64442157D01*
X153921508Y-64454197D01*
X153803963Y-64489854D01*
X153695634Y-64547757D01*
X153600682Y-64625682D01*
X153522757Y-64720634D01*
X153500000Y-64763209D01*
X153477243Y-64720634D01*
X153399318Y-64625682D01*
X153304366Y-64547757D01*
X153196037Y-64489854D01*
X153078492Y-64454197D01*
X152956250Y-64442157D01*
X152043750Y-64442157D01*
X151921508Y-64454197D01*
X151803963Y-64489854D01*
X151695634Y-64547757D01*
X151600682Y-64625682D01*
X151522757Y-64720634D01*
X151464854Y-64828963D01*
X151429197Y-64946508D01*
X151417157Y-65068750D01*
X151417157Y-65556250D01*
X151429197Y-65678492D01*
X151464854Y-65796037D01*
X151522757Y-65904366D01*
X151600682Y-65999318D01*
X151690155Y-66072746D01*
X151675518Y-66074188D01*
X151555820Y-66110498D01*
X151445506Y-66169463D01*
X151348815Y-66248815D01*
X151269463Y-66345506D01*
X151210498Y-66455820D01*
X151174188Y-66575518D01*
X151161928Y-66700000D01*
X143906000Y-66700000D01*
X143906000Y-63656000D01*
X180224001Y-63656000D01*
X180224000Y-81844000D01*
X180224000Y-81844000D01*
G37*
X180224000Y-81844000D02*
X143906000Y-81844000D01*
X143906000Y-80423078D01*
X157969000Y-80423078D01*
X157969000Y-80576922D01*
X157999013Y-80727809D01*
X158057887Y-80869942D01*
X158143358Y-80997859D01*
X158252141Y-81106642D01*
X158380058Y-81192113D01*
X158522191Y-81250987D01*
X158673078Y-81281000D01*
X158826922Y-81281000D01*
X158977809Y-81250987D01*
X159119942Y-81192113D01*
X159247859Y-81106642D01*
X159356642Y-80997859D01*
X159383809Y-80957200D01*
X160442251Y-80957200D01*
X160454197Y-81078492D01*
X160489854Y-81196037D01*
X160547757Y-81304366D01*
X160625682Y-81399318D01*
X160720634Y-81477243D01*
X160828963Y-81535146D01*
X160946508Y-81570803D01*
X161068750Y-81582843D01*
X161556250Y-81582843D01*
X161678492Y-81570803D01*
X161796037Y-81535146D01*
X161904366Y-81477243D01*
X161999318Y-81399318D01*
X162077243Y-81304366D01*
X162135146Y-81196037D01*
X162170803Y-81078492D01*
X162182843Y-80956250D01*
X162182843Y-80043750D01*
X162170803Y-79921508D01*
X162135146Y-79803963D01*
X162077243Y-79695634D01*
X161999318Y-79600682D01*
X161904366Y-79522757D01*
X161861791Y-79500000D01*
X161904366Y-79477243D01*
X161999318Y-79399318D01*
X162077243Y-79304366D01*
X162135146Y-79196037D01*
X162170803Y-79078492D01*
X162182843Y-78956250D01*
X162182843Y-78043750D01*
X162317157Y-78043750D01*
X162317157Y-78956250D01*
X162329197Y-79078492D01*
X162364854Y-79196037D01*
X162422757Y-79304366D01*
X162500682Y-79399318D01*
X162595634Y-79477243D01*
X162638209Y-79500000D01*
X162595634Y-79522757D01*
X162500682Y-79600682D01*
X162422757Y-79695634D01*
X162364854Y-79803963D01*
X162329197Y-79921508D01*
X162317157Y-80043750D01*
X162317157Y-80956250D01*
X162329197Y-81078492D01*
X162364854Y-81196037D01*
X162422757Y-81304366D01*
X162500682Y-81399318D01*
X162595634Y-81477243D01*
X162703963Y-81535146D01*
X162821508Y-81570803D01*
X162943750Y-81582843D01*
X163431250Y-81582843D01*
X163553492Y-81570803D01*
X163671037Y-81535146D01*
X163779366Y-81477243D01*
X163874318Y-81399318D01*
X163952243Y-81304366D01*
X164000000Y-81215019D01*
X164047757Y-81304366D01*
X164125682Y-81399318D01*
X164220634Y-81477243D01*
X164328963Y-81535146D01*
X164446508Y-81570803D01*
X164568750Y-81582843D01*
X165056250Y-81582843D01*
X165178492Y-81570803D01*
X165296037Y-81535146D01*
X165404366Y-81477243D01*
X165499318Y-81399318D01*
X165577243Y-81304366D01*
X165635146Y-81196037D01*
X165670803Y-81078492D01*
X165682843Y-80956250D01*
X165682843Y-80043750D01*
X165670803Y-79921508D01*
X165635146Y-79803963D01*
X165577243Y-79695634D01*
X165499318Y-79600682D01*
X165404366Y-79522757D01*
X165361791Y-79500000D01*
X165404366Y-79477243D01*
X165499318Y-79399318D01*
X165577243Y-79304366D01*
X165635146Y-79196037D01*
X165670803Y-79078492D01*
X165682843Y-78956250D01*
X165682843Y-78043750D01*
X165817157Y-78043750D01*
X165817157Y-78956250D01*
X165829197Y-79078492D01*
X165864854Y-79196037D01*
X165922757Y-79304366D01*
X166000682Y-79399318D01*
X166095634Y-79477243D01*
X166138209Y-79500000D01*
X166095634Y-79522757D01*
X166000682Y-79600682D01*
X165922757Y-79695634D01*
X165864854Y-79803963D01*
X165829197Y-79921508D01*
X165817157Y-80043750D01*
X165817157Y-80956250D01*
X165829197Y-81078492D01*
X165864854Y-81196037D01*
X165922757Y-81304366D01*
X166000682Y-81399318D01*
X166095634Y-81477243D01*
X166203963Y-81535146D01*
X166321508Y-81570803D01*
X166443750Y-81582843D01*
X166931250Y-81582843D01*
X167053492Y-81570803D01*
X167171037Y-81535146D01*
X167279366Y-81477243D01*
X167374318Y-81399318D01*
X167452243Y-81304366D01*
X167510146Y-81196037D01*
X167545803Y-81078492D01*
X167557749Y-80957200D01*
X168866191Y-80957200D01*
X168893358Y-80997859D01*
X169002141Y-81106642D01*
X169130058Y-81192113D01*
X169272191Y-81250987D01*
X169423078Y-81281000D01*
X169576922Y-81281000D01*
X169727809Y-81250987D01*
X169869942Y-81192113D01*
X169997859Y-81106642D01*
X170106642Y-80997859D01*
X170192113Y-80869942D01*
X170250987Y-80727809D01*
X170281000Y-80576922D01*
X170281000Y-80423078D01*
X170250987Y-80272191D01*
X170192113Y-80130058D01*
X170106642Y-80002141D01*
X169997859Y-79893358D01*
X169869942Y-79807887D01*
X169727809Y-79749013D01*
X169576922Y-79719000D01*
X169423078Y-79719000D01*
X169272191Y-79749013D01*
X169130058Y-79807887D01*
X169002141Y-79893358D01*
X168893358Y-80002141D01*
X168866191Y-80042800D01*
X167557749Y-80042800D01*
X167545803Y-79921508D01*
X167510146Y-79803963D01*
X167452243Y-79695634D01*
X167374318Y-79600682D01*
X167279366Y-79522757D01*
X167236791Y-79500000D01*
X167279366Y-79477243D01*
X167374318Y-79399318D01*
X167452243Y-79304366D01*
X167510146Y-79196037D01*
X167545803Y-79078492D01*
X167557843Y-78956250D01*
X167557843Y-78043750D01*
X167545803Y-77921508D01*
X167510146Y-77803963D01*
X167452243Y-77695634D01*
X167374318Y-77600682D01*
X167279366Y-77522757D01*
X167171037Y-77464854D01*
X167122071Y-77450000D01*
X169011928Y-77450000D01*
X169024188Y-77574482D01*
X169060498Y-77694180D01*
X169119463Y-77804494D01*
X169198815Y-77901185D01*
X169295506Y-77980537D01*
X169405820Y-78039502D01*
X169525518Y-78075812D01*
X169650000Y-78088072D01*
X170214250Y-78085000D01*
X170373000Y-77926250D01*
X170373000Y-76727000D01*
X170627000Y-76727000D01*
X170627000Y-77926250D01*
X170785750Y-78085000D01*
X171350000Y-78088072D01*
X171474482Y-78075812D01*
X171594180Y-78039502D01*
X171704494Y-77980537D01*
X171801185Y-77901185D01*
X171880537Y-77804494D01*
X171939502Y-77694180D01*
X171975812Y-77574482D01*
X171988072Y-77450000D01*
X171985000Y-76885750D01*
X171826250Y-76727000D01*
X170627000Y-76727000D01*
X170373000Y-76727000D01*
X169173750Y-76727000D01*
X169015000Y-76885750D01*
X169011928Y-77450000D01*
X167122071Y-77450000D01*
X167053492Y-77429197D01*
X166931250Y-77417157D01*
X166443750Y-77417157D01*
X166321508Y-77429197D01*
X166203963Y-77464854D01*
X166095634Y-77522757D01*
X166000682Y-77600682D01*
X165922757Y-77695634D01*
X165864854Y-77803963D01*
X165829197Y-77921508D01*
X165817157Y-78043750D01*
X165682843Y-78043750D01*
X165670803Y-77921508D01*
X165635146Y-77803963D01*
X165577243Y-77695634D01*
X165499318Y-77600682D01*
X165404366Y-77522757D01*
X165296037Y-77464854D01*
X165178492Y-77429197D01*
X165056250Y-77417157D01*
X164568750Y-77417157D01*
X164446508Y-77429197D01*
X164328963Y-77464854D01*
X164220634Y-77522757D01*
X164125682Y-77600682D01*
X164047757Y-77695634D01*
X164000000Y-77784981D01*
X163952243Y-77695634D01*
X163874318Y-77600682D01*
X163779366Y-77522757D01*
X163671037Y-77464854D01*
X163553492Y-77429197D01*
X163431250Y-77417157D01*
X162943750Y-77417157D01*
X162821508Y-77429197D01*
X162703963Y-77464854D01*
X162595634Y-77522757D01*
X162500682Y-77600682D01*
X162422757Y-77695634D01*
X162364854Y-77803963D01*
X162329197Y-77921508D01*
X162317157Y-78043750D01*
X162182843Y-78043750D01*
X162170803Y-77921508D01*
X162135146Y-77803963D01*
X162077243Y-77695634D01*
X161999318Y-77600682D01*
X161904366Y-77522757D01*
X161796037Y-77464854D01*
X161678492Y-77429197D01*
X161659700Y-77427346D01*
X161659700Y-77082843D01*
X162037500Y-77082843D01*
X162112189Y-77075487D01*
X162155000Y-77062500D01*
X162197811Y-77075487D01*
X162272500Y-77082843D01*
X162672500Y-77082843D01*
X162747189Y-77075487D01*
X162819008Y-77053701D01*
X162885196Y-77018322D01*
X162943211Y-76970711D01*
X162990822Y-76912696D01*
X163026201Y-76846508D01*
X163047987Y-76774689D01*
X163055343Y-76700000D01*
X163055343Y-75500000D01*
X163047987Y-75425311D01*
X163026201Y-75353492D01*
X162990822Y-75287304D01*
X162943211Y-75229289D01*
X162885196Y-75181678D01*
X162819008Y-75146299D01*
X162747189Y-75124513D01*
X162672500Y-75117157D01*
X162272500Y-75117157D01*
X162197811Y-75124513D01*
X162155000Y-75137500D01*
X162112189Y-75124513D01*
X162037500Y-75117157D01*
X161637500Y-75117157D01*
X161562811Y-75124513D01*
X161520000Y-75137500D01*
X161477189Y-75124513D01*
X161402500Y-75117157D01*
X161274323Y-75117157D01*
X161226423Y-75056688D01*
X161131119Y-74975675D01*
X161021841Y-74914811D01*
X160902789Y-74876436D01*
X160799250Y-74865000D01*
X160640500Y-75023750D01*
X160640500Y-75380850D01*
X160627013Y-75425311D01*
X160619657Y-75500000D01*
X160619657Y-76700000D01*
X160627013Y-76774689D01*
X160640500Y-76819150D01*
X160640500Y-77176250D01*
X160745301Y-77281051D01*
X160745301Y-77509572D01*
X160720634Y-77522757D01*
X160625682Y-77600682D01*
X160547757Y-77695634D01*
X160489854Y-77803963D01*
X160454197Y-77921508D01*
X160442157Y-78043750D01*
X160442157Y-78956250D01*
X160454197Y-79078492D01*
X160489854Y-79196037D01*
X160547757Y-79304366D01*
X160625682Y-79399318D01*
X160720634Y-79477243D01*
X160763209Y-79500000D01*
X160720634Y-79522757D01*
X160625682Y-79600682D01*
X160547757Y-79695634D01*
X160489854Y-79803963D01*
X160454197Y-79921508D01*
X160442251Y-80042800D01*
X159383809Y-80042800D01*
X159356642Y-80002141D01*
X159247859Y-79893358D01*
X159119942Y-79807887D01*
X158977809Y-79749013D01*
X158826922Y-79719000D01*
X158673078Y-79719000D01*
X158522191Y-79749013D01*
X158380058Y-79807887D01*
X158252141Y-79893358D01*
X158143358Y-80002141D01*
X158057887Y-80130058D01*
X157999013Y-80272191D01*
X157969000Y-80423078D01*
X143906000Y-80423078D01*
X143906000Y-78612500D01*
X149161928Y-78612500D01*
X149174188Y-78736982D01*
X149210498Y-78856680D01*
X149269463Y-78966994D01*
X149348815Y-79063685D01*
X149445506Y-79143037D01*
X149555820Y-79202002D01*
X149675518Y-79238312D01*
X149800000Y-79250572D01*
X150214250Y-79247500D01*
X150373000Y-79088750D01*
X150373000Y-78252000D01*
X149323750Y-78252000D01*
X149165000Y-78410750D01*
X149161928Y-78612500D01*
X143906000Y-78612500D01*
X143906000Y-68652500D01*
X144217157Y-68652500D01*
X144217157Y-71027500D01*
X144224513Y-71102189D01*
X144246299Y-71174008D01*
X144246829Y-71175000D01*
X144246299Y-71175992D01*
X144224513Y-71247811D01*
X144217157Y-71322500D01*
X144217157Y-72497500D01*
X144224513Y-72572189D01*
X144246299Y-72644008D01*
X144281678Y-72710196D01*
X144314344Y-72750000D01*
X144281678Y-72789804D01*
X144246299Y-72855992D01*
X144224513Y-72927811D01*
X144217157Y-73002500D01*
X144217157Y-74177500D01*
X144224513Y-74252189D01*
X144246299Y-74324008D01*
X144246829Y-74325000D01*
X144246299Y-74325992D01*
X144224513Y-74397811D01*
X144217157Y-74472500D01*
X144217157Y-76847500D01*
X144224513Y-76922189D01*
X144246299Y-76994008D01*
X144281678Y-77060196D01*
X144329289Y-77118211D01*
X144387304Y-77165822D01*
X144453492Y-77201201D01*
X144525311Y-77222987D01*
X144600000Y-77230343D01*
X146500000Y-77230343D01*
X146574689Y-77222987D01*
X146646508Y-77201201D01*
X146712696Y-77165822D01*
X146770711Y-77118211D01*
X146818322Y-77060196D01*
X146853701Y-76994008D01*
X146875487Y-76922189D01*
X146882843Y-76847500D01*
X146882843Y-76332843D01*
X148900000Y-76332843D01*
X148974689Y-76325487D01*
X149046508Y-76303701D01*
X149112696Y-76268322D01*
X149170711Y-76220711D01*
X149218322Y-76162696D01*
X149253701Y-76096508D01*
X149275487Y-76024689D01*
X149282843Y-75950000D01*
X149282843Y-74781852D01*
X149344021Y-74733237D01*
X149424887Y-74637808D01*
X149485581Y-74528437D01*
X149523773Y-74409326D01*
X149535000Y-74306750D01*
X149376250Y-74148000D01*
X149262522Y-74148000D01*
X149344021Y-74083237D01*
X149424887Y-73987808D01*
X149485581Y-73878437D01*
X149502463Y-73825787D01*
X149535000Y-73793250D01*
X149527530Y-73725000D01*
X149535000Y-73656750D01*
X149502463Y-73624213D01*
X149485581Y-73571563D01*
X149460852Y-73527002D01*
X149521493Y-73527002D01*
X149522757Y-73529366D01*
X149600682Y-73624318D01*
X149695634Y-73702243D01*
X149803963Y-73760146D01*
X149921508Y-73795803D01*
X150043750Y-73807843D01*
X150956250Y-73807843D01*
X151078492Y-73795803D01*
X151196037Y-73760146D01*
X151287179Y-73711429D01*
X151323750Y-73748000D01*
X152373000Y-73748000D01*
X152373000Y-73728000D01*
X152627000Y-73728000D01*
X152627000Y-73748000D01*
X153675233Y-73748000D01*
X153695634Y-73764743D01*
X153803963Y-73822646D01*
X153921508Y-73858303D01*
X154043750Y-73870343D01*
X154956250Y-73870343D01*
X155078492Y-73858303D01*
X155196037Y-73822646D01*
X155304366Y-73764743D01*
X155399318Y-73686818D01*
X155420366Y-73661171D01*
X155417157Y-73693750D01*
X155417157Y-74181250D01*
X155429197Y-74303492D01*
X155464854Y-74421037D01*
X155522757Y-74529366D01*
X155600682Y-74624318D01*
X155695634Y-74702243D01*
X155803963Y-74760146D01*
X155921508Y-74795803D01*
X156043750Y-74807843D01*
X156723766Y-74807843D01*
X157041526Y-75125603D01*
X156785750Y-75127500D01*
X156627000Y-75286250D01*
X156627000Y-76123000D01*
X156647000Y-76123000D01*
X156647000Y-76377000D01*
X156627000Y-76377000D01*
X156627000Y-76397000D01*
X156373000Y-76397000D01*
X156373000Y-76377000D01*
X154627000Y-76377000D01*
X154627000Y-76397000D01*
X154373000Y-76397000D01*
X154373000Y-76377000D01*
X154353000Y-76377000D01*
X154353000Y-76123000D01*
X154373000Y-76123000D01*
X154373000Y-75286250D01*
X154627000Y-75286250D01*
X154627000Y-76123000D01*
X156373000Y-76123000D01*
X156373000Y-75286250D01*
X156214250Y-75127500D01*
X155800000Y-75124428D01*
X155675518Y-75136688D01*
X155555820Y-75172998D01*
X155500000Y-75202835D01*
X155444180Y-75172998D01*
X155324482Y-75136688D01*
X155200000Y-75124428D01*
X154785750Y-75127500D01*
X154627000Y-75286250D01*
X154373000Y-75286250D01*
X154214250Y-75127500D01*
X153800000Y-75124428D01*
X153675518Y-75136688D01*
X153555820Y-75172998D01*
X153445506Y-75231963D01*
X153348815Y-75311315D01*
X153269463Y-75408006D01*
X153245103Y-75453580D01*
X153196037Y-75427354D01*
X153078492Y-75391697D01*
X152956250Y-75379657D01*
X152043750Y-75379657D01*
X151921508Y-75391697D01*
X151803963Y-75427354D01*
X151695634Y-75485257D01*
X151600682Y-75563182D01*
X151522757Y-75658134D01*
X151500000Y-75700709D01*
X151477243Y-75658134D01*
X151399318Y-75563182D01*
X151304366Y-75485257D01*
X151196037Y-75427354D01*
X151103779Y-75399368D01*
X151141512Y-75342895D01*
X151196081Y-75211154D01*
X151223900Y-75071298D01*
X151223900Y-74928702D01*
X151196081Y-74788846D01*
X151141512Y-74657105D01*
X151062290Y-74538540D01*
X150961460Y-74437710D01*
X150848900Y-74362500D01*
X151161928Y-74362500D01*
X151174188Y-74486982D01*
X151210498Y-74606680D01*
X151269463Y-74716994D01*
X151348815Y-74813685D01*
X151445506Y-74893037D01*
X151555820Y-74952002D01*
X151675518Y-74988312D01*
X151800000Y-75000572D01*
X152214250Y-74997500D01*
X152373000Y-74838750D01*
X152373000Y-74002000D01*
X152627000Y-74002000D01*
X152627000Y-74838750D01*
X152785750Y-74997500D01*
X153200000Y-75000572D01*
X153324482Y-74988312D01*
X153444180Y-74952002D01*
X153554494Y-74893037D01*
X153651185Y-74813685D01*
X153730537Y-74716994D01*
X153789502Y-74606680D01*
X153825812Y-74486982D01*
X153838072Y-74362500D01*
X153835000Y-74160750D01*
X153676250Y-74002000D01*
X152627000Y-74002000D01*
X152373000Y-74002000D01*
X151323750Y-74002000D01*
X151165000Y-74160750D01*
X151161928Y-74362500D01*
X150848900Y-74362500D01*
X150842895Y-74358488D01*
X150711154Y-74303919D01*
X150571298Y-74276100D01*
X150428702Y-74276100D01*
X150288846Y-74303919D01*
X150157105Y-74358488D01*
X150038540Y-74437710D01*
X149937710Y-74538540D01*
X149858488Y-74657105D01*
X149803919Y-74788846D01*
X149776100Y-74928702D01*
X149776100Y-75071298D01*
X149803919Y-75211154D01*
X149858488Y-75342895D01*
X149896221Y-75399368D01*
X149803963Y-75427354D01*
X149695634Y-75485257D01*
X149600682Y-75563182D01*
X149522757Y-75658134D01*
X149464854Y-75766463D01*
X149429197Y-75884008D01*
X149417157Y-76006250D01*
X149417157Y-76493750D01*
X149429197Y-76615992D01*
X149464854Y-76733537D01*
X149522757Y-76841866D01*
X149600682Y-76936818D01*
X149690155Y-77010246D01*
X149675518Y-77011688D01*
X149555820Y-77047998D01*
X149445506Y-77106963D01*
X149348815Y-77186315D01*
X149269463Y-77283006D01*
X149210498Y-77393320D01*
X149174188Y-77513018D01*
X149161928Y-77637500D01*
X149165000Y-77839250D01*
X149323750Y-77998000D01*
X150373000Y-77998000D01*
X150373000Y-77978000D01*
X150627000Y-77978000D01*
X150627000Y-77998000D01*
X150647000Y-77998000D01*
X150647000Y-78252000D01*
X150627000Y-78252000D01*
X150627000Y-79088750D01*
X150785750Y-79247500D01*
X151200000Y-79250572D01*
X151324482Y-79238312D01*
X151444180Y-79202002D01*
X151554494Y-79143037D01*
X151651185Y-79063685D01*
X151730537Y-78966994D01*
X151754897Y-78921420D01*
X151803963Y-78947646D01*
X151921508Y-78983303D01*
X152043750Y-78995343D01*
X152956250Y-78995343D01*
X153078492Y-78983303D01*
X153196037Y-78947646D01*
X153304366Y-78889743D01*
X153399318Y-78811818D01*
X153477243Y-78716866D01*
X153500000Y-78674291D01*
X153522757Y-78716866D01*
X153600682Y-78811818D01*
X153695634Y-78889743D01*
X153803963Y-78947646D01*
X153921508Y-78983303D01*
X154043750Y-78995343D01*
X154956250Y-78995343D01*
X155078492Y-78983303D01*
X155196037Y-78947646D01*
X155304366Y-78889743D01*
X155399318Y-78811818D01*
X155477243Y-78716866D01*
X155500000Y-78674291D01*
X155522757Y-78716866D01*
X155600682Y-78811818D01*
X155695634Y-78889743D01*
X155803963Y-78947646D01*
X155921508Y-78983303D01*
X156043750Y-78995343D01*
X156956250Y-78995343D01*
X157078492Y-78983303D01*
X157196037Y-78947646D01*
X157304366Y-78889743D01*
X157399318Y-78811818D01*
X157477243Y-78716866D01*
X157535146Y-78608537D01*
X157543135Y-78582200D01*
X158637450Y-78582200D01*
X158659900Y-78584411D01*
X158682350Y-78582200D01*
X158682360Y-78582200D01*
X158749527Y-78575585D01*
X158835709Y-78549441D01*
X158915136Y-78506987D01*
X158984753Y-78449853D01*
X158999074Y-78432403D01*
X160138213Y-77293265D01*
X160232211Y-77323564D01*
X160335750Y-77335000D01*
X160494500Y-77176250D01*
X160494500Y-76819150D01*
X160507987Y-76774689D01*
X160515343Y-76700000D01*
X160515343Y-75500000D01*
X160507987Y-75425311D01*
X160494500Y-75380850D01*
X160494500Y-75023750D01*
X160485631Y-75014881D01*
X160500987Y-74977809D01*
X160531000Y-74826922D01*
X160531000Y-74673078D01*
X160500987Y-74522191D01*
X160442113Y-74380058D01*
X160356642Y-74252141D01*
X160247859Y-74143358D01*
X160119942Y-74057887D01*
X159977809Y-73999013D01*
X159826922Y-73969000D01*
X159673078Y-73969000D01*
X159522191Y-73999013D01*
X159380058Y-74057887D01*
X159252141Y-74143358D01*
X159143358Y-74252141D01*
X159057887Y-74380058D01*
X158999013Y-74522191D01*
X158969000Y-74673078D01*
X158969000Y-74826922D01*
X158978186Y-74873102D01*
X158972648Y-74877647D01*
X158958331Y-74895092D01*
X158958330Y-74895093D01*
X158915513Y-74947265D01*
X158874632Y-75023750D01*
X158873060Y-75026691D01*
X158846916Y-75112873D01*
X158846494Y-75117157D01*
X158462500Y-75117157D01*
X158387811Y-75124513D01*
X158348013Y-75136585D01*
X158334909Y-75125831D01*
X157557249Y-74348172D01*
X157570803Y-74303492D01*
X157582843Y-74181250D01*
X157582843Y-73693750D01*
X157570803Y-73571508D01*
X157535146Y-73453963D01*
X157477243Y-73345634D01*
X157399318Y-73250682D01*
X157304366Y-73172757D01*
X157196037Y-73114854D01*
X157078492Y-73079197D01*
X156956250Y-73067157D01*
X156043750Y-73067157D01*
X155921508Y-73079197D01*
X155803963Y-73114854D01*
X155695634Y-73172757D01*
X155600682Y-73250682D01*
X155579634Y-73276329D01*
X155582843Y-73243750D01*
X155582843Y-72756250D01*
X155579634Y-72723671D01*
X155600682Y-72749318D01*
X155695634Y-72827243D01*
X155803963Y-72885146D01*
X155921508Y-72920803D01*
X156043750Y-72932843D01*
X156956250Y-72932843D01*
X157078492Y-72920803D01*
X157196037Y-72885146D01*
X157304366Y-72827243D01*
X157399318Y-72749318D01*
X157477243Y-72654366D01*
X157535146Y-72546037D01*
X157570803Y-72428492D01*
X157582843Y-72306250D01*
X157582843Y-71818750D01*
X157579987Y-71789748D01*
X157614804Y-71818322D01*
X157680992Y-71853701D01*
X157752811Y-71875487D01*
X157827500Y-71882843D01*
X158056733Y-71882843D01*
X157999013Y-72022191D01*
X157969000Y-72173078D01*
X157969000Y-72326922D01*
X157999013Y-72477809D01*
X158057887Y-72619942D01*
X158143358Y-72747859D01*
X158252141Y-72856642D01*
X158380058Y-72942113D01*
X158522191Y-73000987D01*
X158673078Y-73031000D01*
X158826922Y-73031000D01*
X158977809Y-73000987D01*
X159119942Y-72942113D01*
X159247859Y-72856642D01*
X159356642Y-72747859D01*
X159442113Y-72619942D01*
X159500987Y-72477809D01*
X159531000Y-72326922D01*
X159531000Y-72173078D01*
X159515940Y-72097367D01*
X159597211Y-72123564D01*
X159700750Y-72135000D01*
X159859500Y-71976250D01*
X159859500Y-71619150D01*
X159872987Y-71574689D01*
X159880343Y-71500000D01*
X159880343Y-70753000D01*
X159984657Y-70753000D01*
X159984657Y-71500000D01*
X159992013Y-71574689D01*
X160005500Y-71619150D01*
X160005500Y-71976250D01*
X160164250Y-72135000D01*
X160267789Y-72123564D01*
X160386841Y-72085189D01*
X160420092Y-72066669D01*
X162720830Y-74367408D01*
X162735147Y-74384853D01*
X162752592Y-74399170D01*
X162804763Y-74441987D01*
X162816408Y-74448211D01*
X162884191Y-74484441D01*
X162970373Y-74510585D01*
X163037540Y-74517200D01*
X163037549Y-74517200D01*
X163059999Y-74519411D01*
X163082449Y-74517200D01*
X169352299Y-74517200D01*
X169357202Y-74533363D01*
X169471509Y-74747216D01*
X169625340Y-74934660D01*
X169812784Y-75088491D01*
X169858758Y-75113065D01*
X169650000Y-75111928D01*
X169525518Y-75124188D01*
X169405820Y-75160498D01*
X169295506Y-75219463D01*
X169198815Y-75298815D01*
X169119463Y-75395506D01*
X169060498Y-75505820D01*
X169024188Y-75625518D01*
X169011928Y-75750000D01*
X169015000Y-76314250D01*
X169173750Y-76473000D01*
X170373000Y-76473000D01*
X170373000Y-76453000D01*
X170627000Y-76453000D01*
X170627000Y-76473000D01*
X171826250Y-76473000D01*
X171985000Y-76314250D01*
X171988072Y-75750000D01*
X171975812Y-75625518D01*
X171939502Y-75505820D01*
X171880537Y-75395506D01*
X171801185Y-75298815D01*
X171704494Y-75219463D01*
X171594180Y-75160498D01*
X171474482Y-75124188D01*
X171350000Y-75111928D01*
X171141242Y-75113065D01*
X171187216Y-75088491D01*
X171374660Y-74934660D01*
X171528491Y-74747216D01*
X171642798Y-74533363D01*
X171713188Y-74301318D01*
X171736956Y-74060000D01*
X171713188Y-73818682D01*
X171642798Y-73586637D01*
X171528491Y-73372784D01*
X171374660Y-73185340D01*
X171187216Y-73031509D01*
X170973363Y-72917202D01*
X170741318Y-72846812D01*
X170560472Y-72829000D01*
X170439528Y-72829000D01*
X170258682Y-72846812D01*
X170026637Y-72917202D01*
X169812784Y-73031509D01*
X169625340Y-73185340D01*
X169471509Y-73372784D01*
X169357202Y-73586637D01*
X169352299Y-73602800D01*
X163249378Y-73602800D01*
X161511620Y-71865043D01*
X161520000Y-71862500D01*
X161562811Y-71875487D01*
X161637500Y-71882843D01*
X162037500Y-71882843D01*
X162112189Y-71875487D01*
X162155000Y-71862500D01*
X162197811Y-71875487D01*
X162272500Y-71882843D01*
X162672500Y-71882843D01*
X162747189Y-71875487D01*
X162819008Y-71853701D01*
X162885196Y-71818322D01*
X162943211Y-71770711D01*
X162990822Y-71712696D01*
X163026201Y-71646508D01*
X163047987Y-71574689D01*
X163055343Y-71500000D01*
X163055343Y-71357200D01*
X169279079Y-71357200D01*
X169263044Y-71520000D01*
X169286812Y-71761318D01*
X169357202Y-71993363D01*
X169471509Y-72207216D01*
X169625340Y-72394660D01*
X169812784Y-72548491D01*
X170026637Y-72662798D01*
X170258682Y-72733188D01*
X170439528Y-72751000D01*
X170560472Y-72751000D01*
X170741318Y-72733188D01*
X170973363Y-72662798D01*
X171187216Y-72548491D01*
X171374660Y-72394660D01*
X171528491Y-72207216D01*
X171642798Y-71993363D01*
X171713188Y-71761318D01*
X171736956Y-71520000D01*
X171713188Y-71278682D01*
X171642798Y-71046637D01*
X171528491Y-70832784D01*
X171374660Y-70645340D01*
X171187216Y-70491509D01*
X170973363Y-70377202D01*
X170741318Y-70306812D01*
X170560472Y-70289000D01*
X170439528Y-70289000D01*
X170258682Y-70306812D01*
X170026637Y-70377202D01*
X169824217Y-70485398D01*
X169805809Y-70475559D01*
X169719627Y-70449415D01*
X169652460Y-70442800D01*
X169652450Y-70442800D01*
X169630000Y-70440589D01*
X169607550Y-70442800D01*
X163055343Y-70442800D01*
X163055343Y-70300000D01*
X163047987Y-70225311D01*
X163026201Y-70153492D01*
X162990822Y-70087304D01*
X162943211Y-70029289D01*
X162885196Y-69981678D01*
X162819008Y-69946299D01*
X162747189Y-69924513D01*
X162672500Y-69917157D01*
X162272500Y-69917157D01*
X162197811Y-69924513D01*
X162155000Y-69937500D01*
X162112189Y-69924513D01*
X162095608Y-69922880D01*
X162124318Y-69899318D01*
X162202243Y-69804366D01*
X162260146Y-69696037D01*
X162281345Y-69626155D01*
X162380058Y-69692113D01*
X162522191Y-69750987D01*
X162673078Y-69781000D01*
X162826922Y-69781000D01*
X162977809Y-69750987D01*
X163119942Y-69692113D01*
X163247859Y-69606642D01*
X163356642Y-69497859D01*
X163442113Y-69369942D01*
X163500987Y-69227809D01*
X163531000Y-69076922D01*
X163531000Y-68980000D01*
X169263044Y-68980000D01*
X169286812Y-69221318D01*
X169357202Y-69453363D01*
X169471509Y-69667216D01*
X169625340Y-69854660D01*
X169812784Y-70008491D01*
X170026637Y-70122798D01*
X170258682Y-70193188D01*
X170439528Y-70211000D01*
X170560472Y-70211000D01*
X170741318Y-70193188D01*
X170973363Y-70122798D01*
X171187216Y-70008491D01*
X171374660Y-69854660D01*
X171528491Y-69667216D01*
X171642798Y-69453363D01*
X171713188Y-69221318D01*
X171736956Y-68980000D01*
X171713188Y-68738682D01*
X171642798Y-68506637D01*
X171528491Y-68292784D01*
X171374660Y-68105340D01*
X171187216Y-67951509D01*
X170973363Y-67837202D01*
X170741318Y-67766812D01*
X170560472Y-67749000D01*
X170439528Y-67749000D01*
X170258682Y-67766812D01*
X170026637Y-67837202D01*
X169812784Y-67951509D01*
X169625340Y-68105340D01*
X169471509Y-68292784D01*
X169357202Y-68506637D01*
X169286812Y-68738682D01*
X169263044Y-68980000D01*
X163531000Y-68980000D01*
X163531000Y-68923078D01*
X163500987Y-68772191D01*
X163442113Y-68630058D01*
X163356642Y-68502141D01*
X163247859Y-68393358D01*
X163119942Y-68307887D01*
X162977809Y-68249013D01*
X162826922Y-68219000D01*
X162673078Y-68219000D01*
X162522191Y-68249013D01*
X162380058Y-68307887D01*
X162281345Y-68373845D01*
X162260146Y-68303963D01*
X162202243Y-68195634D01*
X162124318Y-68100682D01*
X162029366Y-68022757D01*
X161921037Y-67964854D01*
X161803492Y-67929197D01*
X161681250Y-67917157D01*
X161193750Y-67917157D01*
X161071508Y-67929197D01*
X160953963Y-67964854D01*
X160845634Y-68022757D01*
X160750682Y-68100682D01*
X160677254Y-68190155D01*
X160675812Y-68175518D01*
X160639502Y-68055820D01*
X160580537Y-67945506D01*
X160501185Y-67848815D01*
X160404494Y-67769463D01*
X160294180Y-67710498D01*
X160174482Y-67674188D01*
X160050000Y-67661928D01*
X159848250Y-67665000D01*
X159689500Y-67823750D01*
X159689500Y-68873000D01*
X159709500Y-68873000D01*
X159709500Y-69127000D01*
X159689500Y-69127000D01*
X159689500Y-69147000D01*
X159435500Y-69147000D01*
X159435500Y-69127000D01*
X158598750Y-69127000D01*
X158440000Y-69285750D01*
X158436928Y-69700000D01*
X158449188Y-69824482D01*
X158477301Y-69917157D01*
X158462500Y-69917157D01*
X158387811Y-69924513D01*
X158345000Y-69937500D01*
X158302189Y-69924513D01*
X158227500Y-69917157D01*
X157827500Y-69917157D01*
X157752811Y-69924513D01*
X157680992Y-69946299D01*
X157614804Y-69981678D01*
X157556789Y-70029289D01*
X157509178Y-70087304D01*
X157473799Y-70153492D01*
X157452013Y-70225311D01*
X157444657Y-70300000D01*
X157444657Y-70667800D01*
X155543135Y-70667800D01*
X155535146Y-70641463D01*
X155477243Y-70533134D01*
X155399318Y-70438182D01*
X155304366Y-70360257D01*
X155196037Y-70302354D01*
X155078492Y-70266697D01*
X154956250Y-70254657D01*
X154043750Y-70254657D01*
X153921508Y-70266697D01*
X153803963Y-70302354D01*
X153695634Y-70360257D01*
X153600682Y-70438182D01*
X153522757Y-70533134D01*
X153464854Y-70641463D01*
X153429197Y-70759008D01*
X153417157Y-70881250D01*
X153417157Y-71334919D01*
X153399318Y-71313182D01*
X153304366Y-71235257D01*
X153196037Y-71177354D01*
X153078492Y-71141697D01*
X152956250Y-71129657D01*
X152043750Y-71129657D01*
X151921508Y-71141697D01*
X151803963Y-71177354D01*
X151712821Y-71226071D01*
X151676250Y-71189500D01*
X150627000Y-71189500D01*
X150627000Y-71209500D01*
X150373000Y-71209500D01*
X150373000Y-71189500D01*
X150353000Y-71189500D01*
X150353000Y-70935500D01*
X150373000Y-70935500D01*
X150373000Y-70915500D01*
X150627000Y-70915500D01*
X150627000Y-70935500D01*
X151676250Y-70935500D01*
X151835000Y-70776750D01*
X151838072Y-70575000D01*
X151825812Y-70450518D01*
X151789502Y-70330820D01*
X151730537Y-70220506D01*
X151651185Y-70123815D01*
X151554494Y-70044463D01*
X151444180Y-69985498D01*
X151324482Y-69949188D01*
X151223900Y-69939282D01*
X151223900Y-69928702D01*
X151196081Y-69788846D01*
X151141512Y-69657105D01*
X151062290Y-69538540D01*
X150961460Y-69437710D01*
X150842895Y-69358488D01*
X150711154Y-69303919D01*
X150571298Y-69276100D01*
X150428702Y-69276100D01*
X150288846Y-69303919D01*
X150157105Y-69358488D01*
X150038540Y-69437710D01*
X149937710Y-69538540D01*
X149891653Y-69607470D01*
X149871928Y-69618013D01*
X149819756Y-69660829D01*
X149819750Y-69660835D01*
X149802311Y-69675147D01*
X149787998Y-69692587D01*
X149393184Y-70087403D01*
X149348815Y-70123815D01*
X149312402Y-70168185D01*
X149282843Y-70197744D01*
X149282843Y-69550000D01*
X149275487Y-69475311D01*
X149253701Y-69403492D01*
X149218322Y-69337304D01*
X149170711Y-69279289D01*
X149112696Y-69231678D01*
X149046508Y-69196299D01*
X148974689Y-69174513D01*
X148900000Y-69167157D01*
X146882843Y-69167157D01*
X146882843Y-68652500D01*
X146875487Y-68577811D01*
X146853701Y-68505992D01*
X146818322Y-68439804D01*
X146770711Y-68381789D01*
X146712696Y-68334178D01*
X146646508Y-68298799D01*
X146574689Y-68277013D01*
X146500000Y-68269657D01*
X144600000Y-68269657D01*
X144525311Y-68277013D01*
X144453492Y-68298799D01*
X144387304Y-68334178D01*
X144329289Y-68381789D01*
X144281678Y-68439804D01*
X144246299Y-68505992D01*
X144224513Y-68577811D01*
X144217157Y-68652500D01*
X143906000Y-68652500D01*
X143906000Y-67675000D01*
X151161928Y-67675000D01*
X151174188Y-67799482D01*
X151210498Y-67919180D01*
X151269463Y-68029494D01*
X151348815Y-68126185D01*
X151445506Y-68205537D01*
X151555820Y-68264502D01*
X151675518Y-68300812D01*
X151800000Y-68313072D01*
X152214250Y-68310000D01*
X152373000Y-68151250D01*
X152373000Y-67314500D01*
X151323750Y-67314500D01*
X151165000Y-67473250D01*
X151161928Y-67675000D01*
X143906000Y-67675000D01*
X143906000Y-66700000D01*
X151161928Y-66700000D01*
X151165000Y-66901750D01*
X151323750Y-67060500D01*
X152373000Y-67060500D01*
X152373000Y-67040500D01*
X152627000Y-67040500D01*
X152627000Y-67060500D01*
X152647000Y-67060500D01*
X152647000Y-67314500D01*
X152627000Y-67314500D01*
X152627000Y-68151250D01*
X152785750Y-68310000D01*
X153200000Y-68313072D01*
X153324482Y-68300812D01*
X153444180Y-68264502D01*
X153554494Y-68205537D01*
X153651185Y-68126185D01*
X153730537Y-68029494D01*
X153754897Y-67983920D01*
X153803963Y-68010146D01*
X153873845Y-68031345D01*
X153807887Y-68130058D01*
X153749013Y-68272191D01*
X153719000Y-68423078D01*
X153719000Y-68576922D01*
X153749013Y-68727809D01*
X153807887Y-68869942D01*
X153893358Y-68997859D01*
X154002141Y-69106642D01*
X154130058Y-69192113D01*
X154272191Y-69250987D01*
X154423078Y-69281000D01*
X154576922Y-69281000D01*
X154727809Y-69250987D01*
X154869942Y-69192113D01*
X154997859Y-69106642D01*
X155106642Y-68997859D01*
X155192113Y-68869942D01*
X155250987Y-68727809D01*
X155281000Y-68576922D01*
X155281000Y-68423078D01*
X155256519Y-68300000D01*
X158436928Y-68300000D01*
X158440000Y-68714250D01*
X158598750Y-68873000D01*
X159435500Y-68873000D01*
X159435500Y-67823750D01*
X159276750Y-67665000D01*
X159075000Y-67661928D01*
X158950518Y-67674188D01*
X158830820Y-67710498D01*
X158720506Y-67769463D01*
X158623815Y-67848815D01*
X158544463Y-67945506D01*
X158485498Y-68055820D01*
X158449188Y-68175518D01*
X158436928Y-68300000D01*
X155256519Y-68300000D01*
X155250987Y-68272191D01*
X155192113Y-68130058D01*
X155126155Y-68031345D01*
X155196037Y-68010146D01*
X155304366Y-67952243D01*
X155399318Y-67874318D01*
X155477243Y-67779366D01*
X155535146Y-67671037D01*
X155570803Y-67553492D01*
X155582843Y-67431250D01*
X155582843Y-66943750D01*
X155570803Y-66821508D01*
X155535146Y-66703963D01*
X155477243Y-66595634D01*
X155399318Y-66500682D01*
X155304366Y-66422757D01*
X155196037Y-66364854D01*
X155078492Y-66329197D01*
X154956250Y-66317157D01*
X154043750Y-66317157D01*
X153921508Y-66329197D01*
X153803963Y-66364854D01*
X153754897Y-66391080D01*
X153730537Y-66345506D01*
X153651185Y-66248815D01*
X153554494Y-66169463D01*
X153444180Y-66110498D01*
X153324482Y-66074188D01*
X153309845Y-66072746D01*
X153399318Y-65999318D01*
X153477243Y-65904366D01*
X153500000Y-65861791D01*
X153522757Y-65904366D01*
X153600682Y-65999318D01*
X153695634Y-66077243D01*
X153803963Y-66135146D01*
X153921508Y-66170803D01*
X154043750Y-66182843D01*
X154956250Y-66182843D01*
X155078492Y-66170803D01*
X155196037Y-66135146D01*
X155304366Y-66077243D01*
X155399318Y-65999318D01*
X155477243Y-65904366D01*
X155535146Y-65796037D01*
X155570803Y-65678492D01*
X155582843Y-65556250D01*
X155582843Y-65068750D01*
X155570803Y-64946508D01*
X155535146Y-64828963D01*
X155477243Y-64720634D01*
X155399318Y-64625682D01*
X155304366Y-64547757D01*
X155196037Y-64489854D01*
X155078492Y-64454197D01*
X154956250Y-64442157D01*
X154043750Y-64442157D01*
X153921508Y-64454197D01*
X153803963Y-64489854D01*
X153695634Y-64547757D01*
X153600682Y-64625682D01*
X153522757Y-64720634D01*
X153500000Y-64763209D01*
X153477243Y-64720634D01*
X153399318Y-64625682D01*
X153304366Y-64547757D01*
X153196037Y-64489854D01*
X153078492Y-64454197D01*
X152956250Y-64442157D01*
X152043750Y-64442157D01*
X151921508Y-64454197D01*
X151803963Y-64489854D01*
X151695634Y-64547757D01*
X151600682Y-64625682D01*
X151522757Y-64720634D01*
X151464854Y-64828963D01*
X151429197Y-64946508D01*
X151417157Y-65068750D01*
X151417157Y-65556250D01*
X151429197Y-65678492D01*
X151464854Y-65796037D01*
X151522757Y-65904366D01*
X151600682Y-65999318D01*
X151690155Y-66072746D01*
X151675518Y-66074188D01*
X151555820Y-66110498D01*
X151445506Y-66169463D01*
X151348815Y-66248815D01*
X151269463Y-66345506D01*
X151210498Y-66455820D01*
X151174188Y-66575518D01*
X151161928Y-66700000D01*
X143906000Y-66700000D01*
X143906000Y-63656000D01*
X180224001Y-63656000D01*
X180224000Y-81844000D01*
M02*
