G04 #@! TF.GenerationSoftware,KiCad,Pcbnew,(5.1.4)-1*
G04 #@! TF.CreationDate,2019-11-14T00:10:30-06:00*
G04 #@! TF.ProjectId,USB_Serial,5553425f-5365-4726-9961-6c2e6b696361,rev?*
G04 #@! TF.SameCoordinates,Original*
G04 #@! TF.FileFunction,Legend,Top*
G04 #@! TF.FilePolarity,Positive*
%FSLAX46Y46*%
G04 Gerber Fmt 4.6, Leading zero omitted, Abs format (unit mm)*
G04 Created by KiCad (PCBNEW (5.1.4)-1) date 2019-11-14 00:10:30*
%MOMM*%
%LPD*%
G04 APERTURE LIST*
%ADD10C,0.152400*%
%ADD11C,0.300000*%
%ADD12C,0.120000*%
%ADD13C,0.150000*%
G04 APERTURE END LIST*
D10*
X171508285Y-65040380D02*
X171556666Y-64992000D01*
X171653428Y-64943619D01*
X171895333Y-64943619D01*
X171992095Y-64992000D01*
X172040476Y-65040380D01*
X172088857Y-65137142D01*
X172088857Y-65233904D01*
X172040476Y-65379047D01*
X171459904Y-65959619D01*
X172088857Y-65959619D01*
X172717809Y-64943619D02*
X172814571Y-64943619D01*
X172911333Y-64992000D01*
X172959714Y-65040380D01*
X173008095Y-65137142D01*
X173056476Y-65330666D01*
X173056476Y-65572571D01*
X173008095Y-65766095D01*
X172959714Y-65862857D01*
X172911333Y-65911238D01*
X172814571Y-65959619D01*
X172717809Y-65959619D01*
X172621047Y-65911238D01*
X172572666Y-65862857D01*
X172524285Y-65766095D01*
X172475904Y-65572571D01*
X172475904Y-65330666D01*
X172524285Y-65137142D01*
X172572666Y-65040380D01*
X172621047Y-64992000D01*
X172717809Y-64943619D01*
X174024095Y-65959619D02*
X173443523Y-65959619D01*
X173733809Y-65959619D02*
X173733809Y-64943619D01*
X173637047Y-65088761D01*
X173540285Y-65185523D01*
X173443523Y-65233904D01*
X174507904Y-65959619D02*
X174701428Y-65959619D01*
X174798190Y-65911238D01*
X174846571Y-65862857D01*
X174943333Y-65717714D01*
X174991714Y-65524190D01*
X174991714Y-65137142D01*
X174943333Y-65040380D01*
X174894952Y-64992000D01*
X174798190Y-64943619D01*
X174604666Y-64943619D01*
X174507904Y-64992000D01*
X174459523Y-65040380D01*
X174411142Y-65137142D01*
X174411142Y-65379047D01*
X174459523Y-65475809D01*
X174507904Y-65524190D01*
X174604666Y-65572571D01*
X174798190Y-65572571D01*
X174894952Y-65524190D01*
X174943333Y-65475809D01*
X174991714Y-65379047D01*
X165846952Y-65959619D02*
X165508285Y-65475809D01*
X165266380Y-65959619D02*
X165266380Y-64943619D01*
X165653428Y-64943619D01*
X165750190Y-64992000D01*
X165798571Y-65040380D01*
X165846952Y-65137142D01*
X165846952Y-65282285D01*
X165798571Y-65379047D01*
X165750190Y-65427428D01*
X165653428Y-65475809D01*
X165266380Y-65475809D01*
X166282380Y-65427428D02*
X166621047Y-65427428D01*
X166766190Y-65959619D02*
X166282380Y-65959619D01*
X166282380Y-64943619D01*
X166766190Y-64943619D01*
X167056476Y-64943619D02*
X167395142Y-65959619D01*
X167733809Y-64943619D01*
X168798190Y-65669333D02*
X169282000Y-65669333D01*
X168701428Y-65959619D02*
X169040095Y-64943619D01*
X169378761Y-65959619D01*
X160443714Y-65959619D02*
X160443714Y-64943619D01*
X160685619Y-64943619D01*
X160830761Y-64992000D01*
X160927523Y-65088761D01*
X160975904Y-65185523D01*
X161024285Y-65379047D01*
X161024285Y-65524190D01*
X160975904Y-65717714D01*
X160927523Y-65814476D01*
X160830761Y-65911238D01*
X160685619Y-65959619D01*
X160443714Y-65959619D01*
X162040285Y-65862857D02*
X161991904Y-65911238D01*
X161846761Y-65959619D01*
X161750000Y-65959619D01*
X161604857Y-65911238D01*
X161508095Y-65814476D01*
X161459714Y-65717714D01*
X161411333Y-65524190D01*
X161411333Y-65379047D01*
X161459714Y-65185523D01*
X161508095Y-65088761D01*
X161604857Y-64992000D01*
X161750000Y-64943619D01*
X161846761Y-64943619D01*
X161991904Y-64992000D01*
X162040285Y-65040380D01*
X162475714Y-65959619D02*
X162475714Y-64943619D01*
X162475714Y-65427428D02*
X163056285Y-65427428D01*
X163056285Y-65959619D02*
X163056285Y-64943619D01*
D11*
X165687142Y-75850000D02*
X165544285Y-75778571D01*
X165330000Y-75778571D01*
X165115714Y-75850000D01*
X164972857Y-75992857D01*
X164901428Y-76135714D01*
X164830000Y-76421428D01*
X164830000Y-76635714D01*
X164901428Y-76921428D01*
X164972857Y-77064285D01*
X165115714Y-77207142D01*
X165330000Y-77278571D01*
X165472857Y-77278571D01*
X165687142Y-77207142D01*
X165758571Y-77135714D01*
X165758571Y-76635714D01*
X165472857Y-76635714D01*
X166401428Y-77278571D02*
X166401428Y-75778571D01*
X167258571Y-77278571D01*
X167258571Y-75778571D01*
X167972857Y-77278571D02*
X167972857Y-75778571D01*
X168330000Y-75778571D01*
X168544285Y-75850000D01*
X168687142Y-75992857D01*
X168758571Y-76135714D01*
X168830000Y-76421428D01*
X168830000Y-76635714D01*
X168758571Y-76921428D01*
X168687142Y-77064285D01*
X168544285Y-77207142D01*
X168330000Y-77278571D01*
X167972857Y-77278571D01*
X165187143Y-68158571D02*
X166115714Y-68158571D01*
X165615714Y-68730000D01*
X165830000Y-68730000D01*
X165972857Y-68801428D01*
X166044286Y-68872857D01*
X166115714Y-69015714D01*
X166115714Y-69372857D01*
X166044286Y-69515714D01*
X165972857Y-69587142D01*
X165830000Y-69658571D01*
X165401428Y-69658571D01*
X165258571Y-69587142D01*
X165187143Y-69515714D01*
X166544286Y-68158571D02*
X167044286Y-69658571D01*
X167544286Y-68158571D01*
X167901428Y-68158571D02*
X168830000Y-68158571D01*
X168330000Y-68730000D01*
X168544286Y-68730000D01*
X168687143Y-68801428D01*
X168758571Y-68872857D01*
X168830000Y-69015714D01*
X168830000Y-69372857D01*
X168758571Y-69515714D01*
X168687143Y-69587142D01*
X168544286Y-69658571D01*
X168115714Y-69658571D01*
X167972857Y-69587142D01*
X167901428Y-69515714D01*
X165901429Y-74758571D02*
X165401429Y-74044285D01*
X165044286Y-74758571D02*
X165044286Y-73258571D01*
X165615714Y-73258571D01*
X165758571Y-73330000D01*
X165830000Y-73401428D01*
X165901429Y-73544285D01*
X165901429Y-73758571D01*
X165830000Y-73901428D01*
X165758571Y-73972857D01*
X165615714Y-74044285D01*
X165044286Y-74044285D01*
X166401429Y-73258571D02*
X167401429Y-74758571D01*
X167401429Y-73258571D02*
X166401429Y-74758571D01*
X167972857Y-74758571D02*
X167972857Y-73258571D01*
X168330000Y-73258571D01*
X168544286Y-73330000D01*
X168687143Y-73472857D01*
X168758571Y-73615714D01*
X168830000Y-73901428D01*
X168830000Y-74115714D01*
X168758571Y-74401428D01*
X168687143Y-74544285D01*
X168544286Y-74687142D01*
X168330000Y-74758571D01*
X167972857Y-74758571D01*
X165187142Y-70678571D02*
X166044285Y-70678571D01*
X165615714Y-72178571D02*
X165615714Y-70678571D01*
X166401428Y-70678571D02*
X167401428Y-72178571D01*
X167401428Y-70678571D02*
X166401428Y-72178571D01*
X167972857Y-72178571D02*
X167972857Y-70678571D01*
X168330000Y-70678571D01*
X168544285Y-70750000D01*
X168687142Y-70892857D01*
X168758571Y-71035714D01*
X168830000Y-71321428D01*
X168830000Y-71535714D01*
X168758571Y-71821428D01*
X168687142Y-71964285D01*
X168544285Y-72107142D01*
X168330000Y-72178571D01*
X167972857Y-72178571D01*
D12*
X165491422Y-81210000D02*
X166008578Y-81210000D01*
X165491422Y-79790000D02*
X166008578Y-79790000D01*
X165491422Y-79210000D02*
X166008578Y-79210000D01*
X165491422Y-77790000D02*
X166008578Y-77790000D01*
X155210000Y-66508578D02*
X155210000Y-65991422D01*
X153790000Y-66508578D02*
X153790000Y-65991422D01*
X153460000Y-67935000D02*
X153460000Y-65250000D01*
X151540000Y-67935000D02*
X153460000Y-67935000D01*
X151540000Y-65250000D02*
X151540000Y-67935000D01*
X170500000Y-77930000D02*
X169390000Y-77930000D01*
X169390000Y-77930000D02*
X169390000Y-76600000D01*
X180590000Y-77930000D02*
X180590000Y-67650000D01*
X180590000Y-67650000D02*
X171960000Y-67650000D01*
X171960000Y-77930000D02*
X171960000Y-67650000D01*
X180590000Y-77930000D02*
X171960000Y-77930000D01*
X180590000Y-70250000D02*
X171960000Y-70250000D01*
X180590000Y-72790000D02*
X171960000Y-72790000D01*
X180590000Y-75330000D02*
X171960000Y-75330000D01*
X171960000Y-68620000D02*
X171550000Y-68620000D01*
X171960000Y-69340000D02*
X171550000Y-69340000D01*
X171960000Y-71160000D02*
X171550000Y-71160000D01*
X171960000Y-71880000D02*
X171550000Y-71880000D01*
X171960000Y-73700000D02*
X171550000Y-73700000D01*
X171960000Y-74420000D02*
X171550000Y-74420000D01*
X171960000Y-76240000D02*
X171610000Y-76240000D01*
X171960000Y-76960000D02*
X171610000Y-76960000D01*
X180590000Y-75448100D02*
X171960000Y-75448100D01*
X180590000Y-75566195D02*
X171960000Y-75566195D01*
X180590000Y-75684290D02*
X171960000Y-75684290D01*
X180590000Y-75802385D02*
X171960000Y-75802385D01*
X180590000Y-75920480D02*
X171960000Y-75920480D01*
X180590000Y-76038575D02*
X171960000Y-76038575D01*
X180590000Y-76156670D02*
X171960000Y-76156670D01*
X180590000Y-76274765D02*
X171960000Y-76274765D01*
X180590000Y-76392860D02*
X171960000Y-76392860D01*
X180590000Y-76510955D02*
X171960000Y-76510955D01*
X180590000Y-76629050D02*
X171960000Y-76629050D01*
X180590000Y-76747145D02*
X171960000Y-76747145D01*
X180590000Y-76865240D02*
X171960000Y-76865240D01*
X180590000Y-76983335D02*
X171960000Y-76983335D01*
X180590000Y-77101430D02*
X171960000Y-77101430D01*
X180590000Y-77219525D02*
X171960000Y-77219525D01*
X180590000Y-77337620D02*
X171960000Y-77337620D01*
X180590000Y-77455715D02*
X171960000Y-77455715D01*
X180590000Y-77573810D02*
X171960000Y-77573810D01*
X180590000Y-77691905D02*
X171960000Y-77691905D01*
X180590000Y-77810000D02*
X171960000Y-77810000D01*
X155210000Y-72321078D02*
X155210000Y-71803922D01*
X153790000Y-72321078D02*
X153790000Y-71803922D01*
X155790000Y-72741422D02*
X155790000Y-73258578D01*
X157210000Y-72741422D02*
X157210000Y-73258578D01*
X149790000Y-71741422D02*
X149790000Y-72258578D01*
X151210000Y-71741422D02*
X151210000Y-72258578D01*
X153210000Y-73196078D02*
X153210000Y-72678922D01*
X151790000Y-73196078D02*
X151790000Y-72678922D01*
X151210000Y-77446078D02*
X151210000Y-76928922D01*
X149790000Y-77446078D02*
X149790000Y-76928922D01*
X151790000Y-76928922D02*
X151790000Y-77446078D01*
X153210000Y-76928922D02*
X153210000Y-77446078D01*
X160565000Y-81460000D02*
X163250000Y-81460000D01*
X160565000Y-79540000D02*
X160565000Y-81460000D01*
X163250000Y-79540000D02*
X160565000Y-79540000D01*
X160565000Y-79460000D02*
X163250000Y-79460000D01*
X160565000Y-77540000D02*
X160565000Y-79460000D01*
X163250000Y-77540000D02*
X160565000Y-77540000D01*
X160241422Y-69710000D02*
X160758578Y-69710000D01*
X160241422Y-68290000D02*
X160758578Y-68290000D01*
X155790000Y-76928922D02*
X155790000Y-77446078D01*
X157210000Y-76928922D02*
X157210000Y-77446078D01*
X153790000Y-76928922D02*
X153790000Y-77446078D01*
X155210000Y-76928922D02*
X155210000Y-77446078D01*
D13*
X162975000Y-70225000D02*
X162975000Y-75500000D01*
X157575000Y-71500000D02*
X157575000Y-75500000D01*
D12*
X144150000Y-68940000D02*
X144410000Y-68940000D01*
X146690000Y-68940000D02*
X148460000Y-68940000D01*
X148460000Y-68940000D02*
X148460000Y-69320000D01*
X148460000Y-76560000D02*
X146690000Y-76560000D01*
X144410000Y-76560000D02*
X144150000Y-76560000D01*
X148460000Y-76560000D02*
X148460000Y-76180000D01*
D13*
X168702380Y-80666666D02*
X168226190Y-81000000D01*
X168702380Y-81238095D02*
X167702380Y-81238095D01*
X167702380Y-80857142D01*
X167750000Y-80761904D01*
X167797619Y-80714285D01*
X167892857Y-80666666D01*
X168035714Y-80666666D01*
X168130952Y-80714285D01*
X168178571Y-80761904D01*
X168226190Y-80857142D01*
X168226190Y-81238095D01*
X167702380Y-79761904D02*
X167702380Y-80238095D01*
X168178571Y-80285714D01*
X168130952Y-80238095D01*
X168083333Y-80142857D01*
X168083333Y-79904761D01*
X168130952Y-79809523D01*
X168178571Y-79761904D01*
X168273809Y-79714285D01*
X168511904Y-79714285D01*
X168607142Y-79761904D01*
X168654761Y-79809523D01*
X168702380Y-79904761D01*
X168702380Y-80142857D01*
X168654761Y-80238095D01*
X168607142Y-80285714D01*
X168702380Y-78666666D02*
X168226190Y-79000000D01*
X168702380Y-79238095D02*
X167702380Y-79238095D01*
X167702380Y-78857142D01*
X167750000Y-78761904D01*
X167797619Y-78714285D01*
X167892857Y-78666666D01*
X168035714Y-78666666D01*
X168130952Y-78714285D01*
X168178571Y-78761904D01*
X168226190Y-78857142D01*
X168226190Y-79238095D01*
X168035714Y-77809523D02*
X168702380Y-77809523D01*
X167654761Y-78047619D02*
X168369047Y-78285714D01*
X168369047Y-77666666D01*
X156702380Y-66416666D02*
X156226190Y-66750000D01*
X156702380Y-66988095D02*
X155702380Y-66988095D01*
X155702380Y-66607142D01*
X155750000Y-66511904D01*
X155797619Y-66464285D01*
X155892857Y-66416666D01*
X156035714Y-66416666D01*
X156130952Y-66464285D01*
X156178571Y-66511904D01*
X156226190Y-66607142D01*
X156226190Y-66988095D01*
X155702380Y-66083333D02*
X155702380Y-65464285D01*
X156083333Y-65797619D01*
X156083333Y-65654761D01*
X156130952Y-65559523D01*
X156178571Y-65511904D01*
X156273809Y-65464285D01*
X156511904Y-65464285D01*
X156607142Y-65511904D01*
X156654761Y-65559523D01*
X156702380Y-65654761D01*
X156702380Y-65940476D01*
X156654761Y-66035714D01*
X156607142Y-66083333D01*
X151202380Y-67583333D02*
X150202380Y-67583333D01*
X150202380Y-67202380D01*
X150250000Y-67107142D01*
X150297619Y-67059523D01*
X150392857Y-67011904D01*
X150535714Y-67011904D01*
X150630952Y-67059523D01*
X150678571Y-67107142D01*
X150726190Y-67202380D01*
X150726190Y-67583333D01*
X150202380Y-66678571D02*
X151202380Y-66440476D01*
X150488095Y-66250000D01*
X151202380Y-66059523D01*
X150202380Y-65821428D01*
X151202380Y-64869047D02*
X150726190Y-65202380D01*
X151202380Y-65440476D02*
X150202380Y-65440476D01*
X150202380Y-65059523D01*
X150250000Y-64964285D01*
X150297619Y-64916666D01*
X150392857Y-64869047D01*
X150535714Y-64869047D01*
X150630952Y-64916666D01*
X150678571Y-64964285D01*
X150726190Y-65059523D01*
X150726190Y-65440476D01*
X174332380Y-79703333D02*
X175046666Y-79703333D01*
X175189523Y-79750952D01*
X175284761Y-79846190D01*
X175332380Y-79989047D01*
X175332380Y-80084285D01*
X174427619Y-79274761D02*
X174380000Y-79227142D01*
X174332380Y-79131904D01*
X174332380Y-78893809D01*
X174380000Y-78798571D01*
X174427619Y-78750952D01*
X174522857Y-78703333D01*
X174618095Y-78703333D01*
X174760952Y-78750952D01*
X175332380Y-79322380D01*
X175332380Y-78703333D01*
X154952380Y-79916666D02*
X154476190Y-80250000D01*
X154952380Y-80488095D02*
X153952380Y-80488095D01*
X153952380Y-80107142D01*
X154000000Y-80011904D01*
X154047619Y-79964285D01*
X154142857Y-79916666D01*
X154285714Y-79916666D01*
X154380952Y-79964285D01*
X154428571Y-80011904D01*
X154476190Y-80107142D01*
X154476190Y-80488095D01*
X154047619Y-79535714D02*
X154000000Y-79488095D01*
X153952380Y-79392857D01*
X153952380Y-79154761D01*
X154000000Y-79059523D01*
X154047619Y-79011904D01*
X154142857Y-78964285D01*
X154238095Y-78964285D01*
X154380952Y-79011904D01*
X154952380Y-79583333D01*
X154952380Y-78964285D01*
X156952380Y-70416666D02*
X156476190Y-70750000D01*
X156952380Y-70988095D02*
X155952380Y-70988095D01*
X155952380Y-70607142D01*
X156000000Y-70511904D01*
X156047619Y-70464285D01*
X156142857Y-70416666D01*
X156285714Y-70416666D01*
X156380952Y-70464285D01*
X156428571Y-70511904D01*
X156476190Y-70607142D01*
X156476190Y-70988095D01*
X156952380Y-69464285D02*
X156952380Y-70035714D01*
X156952380Y-69750000D02*
X155952380Y-69750000D01*
X156095238Y-69845238D01*
X156190476Y-69940476D01*
X156238095Y-70035714D01*
X150857142Y-68916666D02*
X150904761Y-68964285D01*
X150952380Y-69107142D01*
X150952380Y-69202380D01*
X150904761Y-69345238D01*
X150809523Y-69440476D01*
X150714285Y-69488095D01*
X150523809Y-69535714D01*
X150380952Y-69535714D01*
X150190476Y-69488095D01*
X150095238Y-69440476D01*
X150000000Y-69345238D01*
X149952380Y-69202380D01*
X149952380Y-69107142D01*
X150000000Y-68964285D01*
X150047619Y-68916666D01*
X149952380Y-68583333D02*
X149952380Y-67964285D01*
X150333333Y-68297619D01*
X150333333Y-68154761D01*
X150380952Y-68059523D01*
X150428571Y-68011904D01*
X150523809Y-67964285D01*
X150761904Y-67964285D01*
X150857142Y-68011904D01*
X150904761Y-68059523D01*
X150952380Y-68154761D01*
X150952380Y-68440476D01*
X150904761Y-68535714D01*
X150857142Y-68583333D01*
X152857142Y-70416666D02*
X152904761Y-70464285D01*
X152952380Y-70607142D01*
X152952380Y-70702380D01*
X152904761Y-70845238D01*
X152809523Y-70940476D01*
X152714285Y-70988095D01*
X152523809Y-71035714D01*
X152380952Y-71035714D01*
X152190476Y-70988095D01*
X152095238Y-70940476D01*
X152000000Y-70845238D01*
X151952380Y-70702380D01*
X151952380Y-70607142D01*
X152000000Y-70464285D01*
X152047619Y-70416666D01*
X152047619Y-70035714D02*
X152000000Y-69988095D01*
X151952380Y-69892857D01*
X151952380Y-69654761D01*
X152000000Y-69559523D01*
X152047619Y-69511904D01*
X152142857Y-69464285D01*
X152238095Y-69464285D01*
X152380952Y-69511904D01*
X152952380Y-70083333D01*
X152952380Y-69464285D01*
X150857142Y-79916666D02*
X150904761Y-79964285D01*
X150952380Y-80107142D01*
X150952380Y-80202380D01*
X150904761Y-80345238D01*
X150809523Y-80440476D01*
X150714285Y-80488095D01*
X150523809Y-80535714D01*
X150380952Y-80535714D01*
X150190476Y-80488095D01*
X150095238Y-80440476D01*
X150000000Y-80345238D01*
X149952380Y-80202380D01*
X149952380Y-80107142D01*
X150000000Y-79964285D01*
X150047619Y-79916666D01*
X150952380Y-78964285D02*
X150952380Y-79535714D01*
X150952380Y-79250000D02*
X149952380Y-79250000D01*
X150095238Y-79345238D01*
X150190476Y-79440476D01*
X150238095Y-79535714D01*
X152428571Y-81083333D02*
X152428571Y-81416666D01*
X152952380Y-81416666D02*
X151952380Y-81416666D01*
X151952380Y-80940476D01*
X152428571Y-80226190D02*
X152476190Y-80083333D01*
X152523809Y-80035714D01*
X152619047Y-79988095D01*
X152761904Y-79988095D01*
X152857142Y-80035714D01*
X152904761Y-80083333D01*
X152952380Y-80178571D01*
X152952380Y-80559523D01*
X151952380Y-80559523D01*
X151952380Y-80226190D01*
X152000000Y-80130952D01*
X152047619Y-80083333D01*
X152142857Y-80035714D01*
X152238095Y-80035714D01*
X152333333Y-80083333D01*
X152380952Y-80130952D01*
X152428571Y-80226190D01*
X152428571Y-80559523D01*
X152952380Y-79035714D02*
X152952380Y-79607142D01*
X152952380Y-79321428D02*
X151952380Y-79321428D01*
X152095238Y-79416666D01*
X152190476Y-79511904D01*
X152238095Y-79607142D01*
X160202380Y-80666666D02*
X159726190Y-81000000D01*
X160202380Y-81238095D02*
X159202380Y-81238095D01*
X159202380Y-80857142D01*
X159250000Y-80761904D01*
X159297619Y-80714285D01*
X159392857Y-80666666D01*
X159535714Y-80666666D01*
X159630952Y-80714285D01*
X159678571Y-80761904D01*
X159726190Y-80857142D01*
X159726190Y-81238095D01*
X159202380Y-80333333D02*
X160202380Y-79666666D01*
X159202380Y-79666666D02*
X160202380Y-80333333D01*
X159202380Y-79261904D02*
X159202380Y-78690476D01*
X160202380Y-78976190D02*
X159202380Y-78976190D01*
X159202380Y-78452380D02*
X160202380Y-77785714D01*
X159202380Y-77785714D02*
X160202380Y-78452380D01*
X158607142Y-69166666D02*
X158654761Y-69214285D01*
X158702380Y-69357142D01*
X158702380Y-69452380D01*
X158654761Y-69595238D01*
X158559523Y-69690476D01*
X158464285Y-69738095D01*
X158273809Y-69785714D01*
X158130952Y-69785714D01*
X157940476Y-69738095D01*
X157845238Y-69690476D01*
X157750000Y-69595238D01*
X157702380Y-69452380D01*
X157702380Y-69357142D01*
X157750000Y-69214285D01*
X157797619Y-69166666D01*
X157702380Y-68309523D02*
X157702380Y-68500000D01*
X157750000Y-68595238D01*
X157797619Y-68642857D01*
X157940476Y-68738095D01*
X158130952Y-68785714D01*
X158511904Y-68785714D01*
X158607142Y-68738095D01*
X158654761Y-68690476D01*
X158702380Y-68595238D01*
X158702380Y-68404761D01*
X158654761Y-68309523D01*
X158607142Y-68261904D01*
X158511904Y-68214285D01*
X158273809Y-68214285D01*
X158178571Y-68261904D01*
X158130952Y-68309523D01*
X158083333Y-68404761D01*
X158083333Y-68595238D01*
X158130952Y-68690476D01*
X158178571Y-68738095D01*
X158273809Y-68785714D01*
X156857142Y-79916666D02*
X156904761Y-79964285D01*
X156952380Y-80107142D01*
X156952380Y-80202380D01*
X156904761Y-80345238D01*
X156809523Y-80440476D01*
X156714285Y-80488095D01*
X156523809Y-80535714D01*
X156380952Y-80535714D01*
X156190476Y-80488095D01*
X156095238Y-80440476D01*
X156000000Y-80345238D01*
X155952380Y-80202380D01*
X155952380Y-80107142D01*
X156000000Y-79964285D01*
X156047619Y-79916666D01*
X155952380Y-79011904D02*
X155952380Y-79488095D01*
X156428571Y-79535714D01*
X156380952Y-79488095D01*
X156333333Y-79392857D01*
X156333333Y-79154761D01*
X156380952Y-79059523D01*
X156428571Y-79011904D01*
X156523809Y-78964285D01*
X156761904Y-78964285D01*
X156857142Y-79011904D01*
X156904761Y-79059523D01*
X156952380Y-79154761D01*
X156952380Y-79392857D01*
X156904761Y-79488095D01*
X156857142Y-79535714D01*
X154857142Y-69666666D02*
X154904761Y-69714285D01*
X154952380Y-69857142D01*
X154952380Y-69952380D01*
X154904761Y-70095238D01*
X154809523Y-70190476D01*
X154714285Y-70238095D01*
X154523809Y-70285714D01*
X154380952Y-70285714D01*
X154190476Y-70238095D01*
X154095238Y-70190476D01*
X154000000Y-70095238D01*
X153952380Y-69952380D01*
X153952380Y-69857142D01*
X154000000Y-69714285D01*
X154047619Y-69666666D01*
X154285714Y-68809523D02*
X154952380Y-68809523D01*
X153904761Y-69047619D02*
X154619047Y-69285714D01*
X154619047Y-68666666D01*
X163202380Y-75511904D02*
X164011904Y-75511904D01*
X164107142Y-75464285D01*
X164154761Y-75416666D01*
X164202380Y-75321428D01*
X164202380Y-75130952D01*
X164154761Y-75035714D01*
X164107142Y-74988095D01*
X164011904Y-74940476D01*
X163202380Y-74940476D01*
X164202380Y-73940476D02*
X164202380Y-74511904D01*
X164202380Y-74226190D02*
X163202380Y-74226190D01*
X163345238Y-74321428D01*
X163440476Y-74416666D01*
X163488095Y-74511904D01*
X146202380Y-78583333D02*
X146916666Y-78583333D01*
X147059523Y-78630952D01*
X147154761Y-78726190D01*
X147202380Y-78869047D01*
X147202380Y-78964285D01*
X147202380Y-77583333D02*
X147202380Y-78154761D01*
X147202380Y-77869047D02*
X146202380Y-77869047D01*
X146345238Y-77964285D01*
X146440476Y-78059523D01*
X146488095Y-78154761D01*
M02*
