G04 #@! TF.GenerationSoftware,KiCad,Pcbnew,(5.1.4)-1*
G04 #@! TF.CreationDate,2019-11-14T00:10:30-06:00*
G04 #@! TF.ProjectId,USB_Serial,5553425f-5365-4726-9961-6c2e6b696361,rev?*
G04 #@! TF.SameCoordinates,Original*
G04 #@! TF.FileFunction,Paste,Top*
G04 #@! TF.FilePolarity,Positive*
%FSLAX46Y46*%
G04 Gerber Fmt 4.6, Leading zero omitted, Abs format (unit mm)*
G04 Created by KiCad (PCBNEW (5.1.4)-1) date 2019-11-14 00:10:30*
%MOMM*%
%LPD*%
G04 APERTURE LIST*
%ADD10C,0.100000*%
%ADD11C,0.975000*%
%ADD12R,0.400000X1.200000*%
%ADD13R,1.900000X1.175000*%
%ADD14R,1.900000X2.375000*%
%ADD15R,2.100000X1.475000*%
%ADD16R,1.380000X0.450000*%
G04 APERTURE END LIST*
D10*
G36*
X166955142Y-79801174D02*
G01*
X166978803Y-79804684D01*
X167002007Y-79810496D01*
X167024529Y-79818554D01*
X167046153Y-79828782D01*
X167066670Y-79841079D01*
X167085883Y-79855329D01*
X167103607Y-79871393D01*
X167119671Y-79889117D01*
X167133921Y-79908330D01*
X167146218Y-79928847D01*
X167156446Y-79950471D01*
X167164504Y-79972993D01*
X167170316Y-79996197D01*
X167173826Y-80019858D01*
X167175000Y-80043750D01*
X167175000Y-80956250D01*
X167173826Y-80980142D01*
X167170316Y-81003803D01*
X167164504Y-81027007D01*
X167156446Y-81049529D01*
X167146218Y-81071153D01*
X167133921Y-81091670D01*
X167119671Y-81110883D01*
X167103607Y-81128607D01*
X167085883Y-81144671D01*
X167066670Y-81158921D01*
X167046153Y-81171218D01*
X167024529Y-81181446D01*
X167002007Y-81189504D01*
X166978803Y-81195316D01*
X166955142Y-81198826D01*
X166931250Y-81200000D01*
X166443750Y-81200000D01*
X166419858Y-81198826D01*
X166396197Y-81195316D01*
X166372993Y-81189504D01*
X166350471Y-81181446D01*
X166328847Y-81171218D01*
X166308330Y-81158921D01*
X166289117Y-81144671D01*
X166271393Y-81128607D01*
X166255329Y-81110883D01*
X166241079Y-81091670D01*
X166228782Y-81071153D01*
X166218554Y-81049529D01*
X166210496Y-81027007D01*
X166204684Y-81003803D01*
X166201174Y-80980142D01*
X166200000Y-80956250D01*
X166200000Y-80043750D01*
X166201174Y-80019858D01*
X166204684Y-79996197D01*
X166210496Y-79972993D01*
X166218554Y-79950471D01*
X166228782Y-79928847D01*
X166241079Y-79908330D01*
X166255329Y-79889117D01*
X166271393Y-79871393D01*
X166289117Y-79855329D01*
X166308330Y-79841079D01*
X166328847Y-79828782D01*
X166350471Y-79818554D01*
X166372993Y-79810496D01*
X166396197Y-79804684D01*
X166419858Y-79801174D01*
X166443750Y-79800000D01*
X166931250Y-79800000D01*
X166955142Y-79801174D01*
X166955142Y-79801174D01*
G37*
D11*
X166687500Y-80500000D03*
D10*
G36*
X165080142Y-79801174D02*
G01*
X165103803Y-79804684D01*
X165127007Y-79810496D01*
X165149529Y-79818554D01*
X165171153Y-79828782D01*
X165191670Y-79841079D01*
X165210883Y-79855329D01*
X165228607Y-79871393D01*
X165244671Y-79889117D01*
X165258921Y-79908330D01*
X165271218Y-79928847D01*
X165281446Y-79950471D01*
X165289504Y-79972993D01*
X165295316Y-79996197D01*
X165298826Y-80019858D01*
X165300000Y-80043750D01*
X165300000Y-80956250D01*
X165298826Y-80980142D01*
X165295316Y-81003803D01*
X165289504Y-81027007D01*
X165281446Y-81049529D01*
X165271218Y-81071153D01*
X165258921Y-81091670D01*
X165244671Y-81110883D01*
X165228607Y-81128607D01*
X165210883Y-81144671D01*
X165191670Y-81158921D01*
X165171153Y-81171218D01*
X165149529Y-81181446D01*
X165127007Y-81189504D01*
X165103803Y-81195316D01*
X165080142Y-81198826D01*
X165056250Y-81200000D01*
X164568750Y-81200000D01*
X164544858Y-81198826D01*
X164521197Y-81195316D01*
X164497993Y-81189504D01*
X164475471Y-81181446D01*
X164453847Y-81171218D01*
X164433330Y-81158921D01*
X164414117Y-81144671D01*
X164396393Y-81128607D01*
X164380329Y-81110883D01*
X164366079Y-81091670D01*
X164353782Y-81071153D01*
X164343554Y-81049529D01*
X164335496Y-81027007D01*
X164329684Y-81003803D01*
X164326174Y-80980142D01*
X164325000Y-80956250D01*
X164325000Y-80043750D01*
X164326174Y-80019858D01*
X164329684Y-79996197D01*
X164335496Y-79972993D01*
X164343554Y-79950471D01*
X164353782Y-79928847D01*
X164366079Y-79908330D01*
X164380329Y-79889117D01*
X164396393Y-79871393D01*
X164414117Y-79855329D01*
X164433330Y-79841079D01*
X164453847Y-79828782D01*
X164475471Y-79818554D01*
X164497993Y-79810496D01*
X164521197Y-79804684D01*
X164544858Y-79801174D01*
X164568750Y-79800000D01*
X165056250Y-79800000D01*
X165080142Y-79801174D01*
X165080142Y-79801174D01*
G37*
D11*
X164812500Y-80500000D03*
D10*
G36*
X166955142Y-77801174D02*
G01*
X166978803Y-77804684D01*
X167002007Y-77810496D01*
X167024529Y-77818554D01*
X167046153Y-77828782D01*
X167066670Y-77841079D01*
X167085883Y-77855329D01*
X167103607Y-77871393D01*
X167119671Y-77889117D01*
X167133921Y-77908330D01*
X167146218Y-77928847D01*
X167156446Y-77950471D01*
X167164504Y-77972993D01*
X167170316Y-77996197D01*
X167173826Y-78019858D01*
X167175000Y-78043750D01*
X167175000Y-78956250D01*
X167173826Y-78980142D01*
X167170316Y-79003803D01*
X167164504Y-79027007D01*
X167156446Y-79049529D01*
X167146218Y-79071153D01*
X167133921Y-79091670D01*
X167119671Y-79110883D01*
X167103607Y-79128607D01*
X167085883Y-79144671D01*
X167066670Y-79158921D01*
X167046153Y-79171218D01*
X167024529Y-79181446D01*
X167002007Y-79189504D01*
X166978803Y-79195316D01*
X166955142Y-79198826D01*
X166931250Y-79200000D01*
X166443750Y-79200000D01*
X166419858Y-79198826D01*
X166396197Y-79195316D01*
X166372993Y-79189504D01*
X166350471Y-79181446D01*
X166328847Y-79171218D01*
X166308330Y-79158921D01*
X166289117Y-79144671D01*
X166271393Y-79128607D01*
X166255329Y-79110883D01*
X166241079Y-79091670D01*
X166228782Y-79071153D01*
X166218554Y-79049529D01*
X166210496Y-79027007D01*
X166204684Y-79003803D01*
X166201174Y-78980142D01*
X166200000Y-78956250D01*
X166200000Y-78043750D01*
X166201174Y-78019858D01*
X166204684Y-77996197D01*
X166210496Y-77972993D01*
X166218554Y-77950471D01*
X166228782Y-77928847D01*
X166241079Y-77908330D01*
X166255329Y-77889117D01*
X166271393Y-77871393D01*
X166289117Y-77855329D01*
X166308330Y-77841079D01*
X166328847Y-77828782D01*
X166350471Y-77818554D01*
X166372993Y-77810496D01*
X166396197Y-77804684D01*
X166419858Y-77801174D01*
X166443750Y-77800000D01*
X166931250Y-77800000D01*
X166955142Y-77801174D01*
X166955142Y-77801174D01*
G37*
D11*
X166687500Y-78500000D03*
D10*
G36*
X165080142Y-77801174D02*
G01*
X165103803Y-77804684D01*
X165127007Y-77810496D01*
X165149529Y-77818554D01*
X165171153Y-77828782D01*
X165191670Y-77841079D01*
X165210883Y-77855329D01*
X165228607Y-77871393D01*
X165244671Y-77889117D01*
X165258921Y-77908330D01*
X165271218Y-77928847D01*
X165281446Y-77950471D01*
X165289504Y-77972993D01*
X165295316Y-77996197D01*
X165298826Y-78019858D01*
X165300000Y-78043750D01*
X165300000Y-78956250D01*
X165298826Y-78980142D01*
X165295316Y-79003803D01*
X165289504Y-79027007D01*
X165281446Y-79049529D01*
X165271218Y-79071153D01*
X165258921Y-79091670D01*
X165244671Y-79110883D01*
X165228607Y-79128607D01*
X165210883Y-79144671D01*
X165191670Y-79158921D01*
X165171153Y-79171218D01*
X165149529Y-79181446D01*
X165127007Y-79189504D01*
X165103803Y-79195316D01*
X165080142Y-79198826D01*
X165056250Y-79200000D01*
X164568750Y-79200000D01*
X164544858Y-79198826D01*
X164521197Y-79195316D01*
X164497993Y-79189504D01*
X164475471Y-79181446D01*
X164453847Y-79171218D01*
X164433330Y-79158921D01*
X164414117Y-79144671D01*
X164396393Y-79128607D01*
X164380329Y-79110883D01*
X164366079Y-79091670D01*
X164353782Y-79071153D01*
X164343554Y-79049529D01*
X164335496Y-79027007D01*
X164329684Y-79003803D01*
X164326174Y-78980142D01*
X164325000Y-78956250D01*
X164325000Y-78043750D01*
X164326174Y-78019858D01*
X164329684Y-77996197D01*
X164335496Y-77972993D01*
X164343554Y-77950471D01*
X164353782Y-77928847D01*
X164366079Y-77908330D01*
X164380329Y-77889117D01*
X164396393Y-77871393D01*
X164414117Y-77855329D01*
X164433330Y-77841079D01*
X164453847Y-77828782D01*
X164475471Y-77818554D01*
X164497993Y-77810496D01*
X164521197Y-77804684D01*
X164544858Y-77801174D01*
X164568750Y-77800000D01*
X165056250Y-77800000D01*
X165080142Y-77801174D01*
X165080142Y-77801174D01*
G37*
D11*
X164812500Y-78500000D03*
D10*
G36*
X154980142Y-64826174D02*
G01*
X155003803Y-64829684D01*
X155027007Y-64835496D01*
X155049529Y-64843554D01*
X155071153Y-64853782D01*
X155091670Y-64866079D01*
X155110883Y-64880329D01*
X155128607Y-64896393D01*
X155144671Y-64914117D01*
X155158921Y-64933330D01*
X155171218Y-64953847D01*
X155181446Y-64975471D01*
X155189504Y-64997993D01*
X155195316Y-65021197D01*
X155198826Y-65044858D01*
X155200000Y-65068750D01*
X155200000Y-65556250D01*
X155198826Y-65580142D01*
X155195316Y-65603803D01*
X155189504Y-65627007D01*
X155181446Y-65649529D01*
X155171218Y-65671153D01*
X155158921Y-65691670D01*
X155144671Y-65710883D01*
X155128607Y-65728607D01*
X155110883Y-65744671D01*
X155091670Y-65758921D01*
X155071153Y-65771218D01*
X155049529Y-65781446D01*
X155027007Y-65789504D01*
X155003803Y-65795316D01*
X154980142Y-65798826D01*
X154956250Y-65800000D01*
X154043750Y-65800000D01*
X154019858Y-65798826D01*
X153996197Y-65795316D01*
X153972993Y-65789504D01*
X153950471Y-65781446D01*
X153928847Y-65771218D01*
X153908330Y-65758921D01*
X153889117Y-65744671D01*
X153871393Y-65728607D01*
X153855329Y-65710883D01*
X153841079Y-65691670D01*
X153828782Y-65671153D01*
X153818554Y-65649529D01*
X153810496Y-65627007D01*
X153804684Y-65603803D01*
X153801174Y-65580142D01*
X153800000Y-65556250D01*
X153800000Y-65068750D01*
X153801174Y-65044858D01*
X153804684Y-65021197D01*
X153810496Y-64997993D01*
X153818554Y-64975471D01*
X153828782Y-64953847D01*
X153841079Y-64933330D01*
X153855329Y-64914117D01*
X153871393Y-64896393D01*
X153889117Y-64880329D01*
X153908330Y-64866079D01*
X153928847Y-64853782D01*
X153950471Y-64843554D01*
X153972993Y-64835496D01*
X153996197Y-64829684D01*
X154019858Y-64826174D01*
X154043750Y-64825000D01*
X154956250Y-64825000D01*
X154980142Y-64826174D01*
X154980142Y-64826174D01*
G37*
D11*
X154500000Y-65312500D03*
D10*
G36*
X154980142Y-66701174D02*
G01*
X155003803Y-66704684D01*
X155027007Y-66710496D01*
X155049529Y-66718554D01*
X155071153Y-66728782D01*
X155091670Y-66741079D01*
X155110883Y-66755329D01*
X155128607Y-66771393D01*
X155144671Y-66789117D01*
X155158921Y-66808330D01*
X155171218Y-66828847D01*
X155181446Y-66850471D01*
X155189504Y-66872993D01*
X155195316Y-66896197D01*
X155198826Y-66919858D01*
X155200000Y-66943750D01*
X155200000Y-67431250D01*
X155198826Y-67455142D01*
X155195316Y-67478803D01*
X155189504Y-67502007D01*
X155181446Y-67524529D01*
X155171218Y-67546153D01*
X155158921Y-67566670D01*
X155144671Y-67585883D01*
X155128607Y-67603607D01*
X155110883Y-67619671D01*
X155091670Y-67633921D01*
X155071153Y-67646218D01*
X155049529Y-67656446D01*
X155027007Y-67664504D01*
X155003803Y-67670316D01*
X154980142Y-67673826D01*
X154956250Y-67675000D01*
X154043750Y-67675000D01*
X154019858Y-67673826D01*
X153996197Y-67670316D01*
X153972993Y-67664504D01*
X153950471Y-67656446D01*
X153928847Y-67646218D01*
X153908330Y-67633921D01*
X153889117Y-67619671D01*
X153871393Y-67603607D01*
X153855329Y-67585883D01*
X153841079Y-67566670D01*
X153828782Y-67546153D01*
X153818554Y-67524529D01*
X153810496Y-67502007D01*
X153804684Y-67478803D01*
X153801174Y-67455142D01*
X153800000Y-67431250D01*
X153800000Y-66943750D01*
X153801174Y-66919858D01*
X153804684Y-66896197D01*
X153810496Y-66872993D01*
X153818554Y-66850471D01*
X153828782Y-66828847D01*
X153841079Y-66808330D01*
X153855329Y-66789117D01*
X153871393Y-66771393D01*
X153889117Y-66755329D01*
X153908330Y-66741079D01*
X153928847Y-66728782D01*
X153950471Y-66718554D01*
X153972993Y-66710496D01*
X153996197Y-66704684D01*
X154019858Y-66701174D01*
X154043750Y-66700000D01*
X154956250Y-66700000D01*
X154980142Y-66701174D01*
X154980142Y-66701174D01*
G37*
D11*
X154500000Y-67187500D03*
D10*
G36*
X152980142Y-64826174D02*
G01*
X153003803Y-64829684D01*
X153027007Y-64835496D01*
X153049529Y-64843554D01*
X153071153Y-64853782D01*
X153091670Y-64866079D01*
X153110883Y-64880329D01*
X153128607Y-64896393D01*
X153144671Y-64914117D01*
X153158921Y-64933330D01*
X153171218Y-64953847D01*
X153181446Y-64975471D01*
X153189504Y-64997993D01*
X153195316Y-65021197D01*
X153198826Y-65044858D01*
X153200000Y-65068750D01*
X153200000Y-65556250D01*
X153198826Y-65580142D01*
X153195316Y-65603803D01*
X153189504Y-65627007D01*
X153181446Y-65649529D01*
X153171218Y-65671153D01*
X153158921Y-65691670D01*
X153144671Y-65710883D01*
X153128607Y-65728607D01*
X153110883Y-65744671D01*
X153091670Y-65758921D01*
X153071153Y-65771218D01*
X153049529Y-65781446D01*
X153027007Y-65789504D01*
X153003803Y-65795316D01*
X152980142Y-65798826D01*
X152956250Y-65800000D01*
X152043750Y-65800000D01*
X152019858Y-65798826D01*
X151996197Y-65795316D01*
X151972993Y-65789504D01*
X151950471Y-65781446D01*
X151928847Y-65771218D01*
X151908330Y-65758921D01*
X151889117Y-65744671D01*
X151871393Y-65728607D01*
X151855329Y-65710883D01*
X151841079Y-65691670D01*
X151828782Y-65671153D01*
X151818554Y-65649529D01*
X151810496Y-65627007D01*
X151804684Y-65603803D01*
X151801174Y-65580142D01*
X151800000Y-65556250D01*
X151800000Y-65068750D01*
X151801174Y-65044858D01*
X151804684Y-65021197D01*
X151810496Y-64997993D01*
X151818554Y-64975471D01*
X151828782Y-64953847D01*
X151841079Y-64933330D01*
X151855329Y-64914117D01*
X151871393Y-64896393D01*
X151889117Y-64880329D01*
X151908330Y-64866079D01*
X151928847Y-64853782D01*
X151950471Y-64843554D01*
X151972993Y-64835496D01*
X151996197Y-64829684D01*
X152019858Y-64826174D01*
X152043750Y-64825000D01*
X152956250Y-64825000D01*
X152980142Y-64826174D01*
X152980142Y-64826174D01*
G37*
D11*
X152500000Y-65312500D03*
D10*
G36*
X152980142Y-66701174D02*
G01*
X153003803Y-66704684D01*
X153027007Y-66710496D01*
X153049529Y-66718554D01*
X153071153Y-66728782D01*
X153091670Y-66741079D01*
X153110883Y-66755329D01*
X153128607Y-66771393D01*
X153144671Y-66789117D01*
X153158921Y-66808330D01*
X153171218Y-66828847D01*
X153181446Y-66850471D01*
X153189504Y-66872993D01*
X153195316Y-66896197D01*
X153198826Y-66919858D01*
X153200000Y-66943750D01*
X153200000Y-67431250D01*
X153198826Y-67455142D01*
X153195316Y-67478803D01*
X153189504Y-67502007D01*
X153181446Y-67524529D01*
X153171218Y-67546153D01*
X153158921Y-67566670D01*
X153144671Y-67585883D01*
X153128607Y-67603607D01*
X153110883Y-67619671D01*
X153091670Y-67633921D01*
X153071153Y-67646218D01*
X153049529Y-67656446D01*
X153027007Y-67664504D01*
X153003803Y-67670316D01*
X152980142Y-67673826D01*
X152956250Y-67675000D01*
X152043750Y-67675000D01*
X152019858Y-67673826D01*
X151996197Y-67670316D01*
X151972993Y-67664504D01*
X151950471Y-67656446D01*
X151928847Y-67646218D01*
X151908330Y-67633921D01*
X151889117Y-67619671D01*
X151871393Y-67603607D01*
X151855329Y-67585883D01*
X151841079Y-67566670D01*
X151828782Y-67546153D01*
X151818554Y-67524529D01*
X151810496Y-67502007D01*
X151804684Y-67478803D01*
X151801174Y-67455142D01*
X151800000Y-67431250D01*
X151800000Y-66943750D01*
X151801174Y-66919858D01*
X151804684Y-66896197D01*
X151810496Y-66872993D01*
X151818554Y-66850471D01*
X151828782Y-66828847D01*
X151841079Y-66808330D01*
X151855329Y-66789117D01*
X151871393Y-66771393D01*
X151889117Y-66755329D01*
X151908330Y-66741079D01*
X151928847Y-66728782D01*
X151950471Y-66718554D01*
X151972993Y-66710496D01*
X151996197Y-66704684D01*
X152019858Y-66701174D01*
X152043750Y-66700000D01*
X152956250Y-66700000D01*
X152980142Y-66701174D01*
X152980142Y-66701174D01*
G37*
D11*
X152500000Y-67187500D03*
D10*
G36*
X154980142Y-70638674D02*
G01*
X155003803Y-70642184D01*
X155027007Y-70647996D01*
X155049529Y-70656054D01*
X155071153Y-70666282D01*
X155091670Y-70678579D01*
X155110883Y-70692829D01*
X155128607Y-70708893D01*
X155144671Y-70726617D01*
X155158921Y-70745830D01*
X155171218Y-70766347D01*
X155181446Y-70787971D01*
X155189504Y-70810493D01*
X155195316Y-70833697D01*
X155198826Y-70857358D01*
X155200000Y-70881250D01*
X155200000Y-71368750D01*
X155198826Y-71392642D01*
X155195316Y-71416303D01*
X155189504Y-71439507D01*
X155181446Y-71462029D01*
X155171218Y-71483653D01*
X155158921Y-71504170D01*
X155144671Y-71523383D01*
X155128607Y-71541107D01*
X155110883Y-71557171D01*
X155091670Y-71571421D01*
X155071153Y-71583718D01*
X155049529Y-71593946D01*
X155027007Y-71602004D01*
X155003803Y-71607816D01*
X154980142Y-71611326D01*
X154956250Y-71612500D01*
X154043750Y-71612500D01*
X154019858Y-71611326D01*
X153996197Y-71607816D01*
X153972993Y-71602004D01*
X153950471Y-71593946D01*
X153928847Y-71583718D01*
X153908330Y-71571421D01*
X153889117Y-71557171D01*
X153871393Y-71541107D01*
X153855329Y-71523383D01*
X153841079Y-71504170D01*
X153828782Y-71483653D01*
X153818554Y-71462029D01*
X153810496Y-71439507D01*
X153804684Y-71416303D01*
X153801174Y-71392642D01*
X153800000Y-71368750D01*
X153800000Y-70881250D01*
X153801174Y-70857358D01*
X153804684Y-70833697D01*
X153810496Y-70810493D01*
X153818554Y-70787971D01*
X153828782Y-70766347D01*
X153841079Y-70745830D01*
X153855329Y-70726617D01*
X153871393Y-70708893D01*
X153889117Y-70692829D01*
X153908330Y-70678579D01*
X153928847Y-70666282D01*
X153950471Y-70656054D01*
X153972993Y-70647996D01*
X153996197Y-70642184D01*
X154019858Y-70638674D01*
X154043750Y-70637500D01*
X154956250Y-70637500D01*
X154980142Y-70638674D01*
X154980142Y-70638674D01*
G37*
D11*
X154500000Y-71125000D03*
D10*
G36*
X154980142Y-72513674D02*
G01*
X155003803Y-72517184D01*
X155027007Y-72522996D01*
X155049529Y-72531054D01*
X155071153Y-72541282D01*
X155091670Y-72553579D01*
X155110883Y-72567829D01*
X155128607Y-72583893D01*
X155144671Y-72601617D01*
X155158921Y-72620830D01*
X155171218Y-72641347D01*
X155181446Y-72662971D01*
X155189504Y-72685493D01*
X155195316Y-72708697D01*
X155198826Y-72732358D01*
X155200000Y-72756250D01*
X155200000Y-73243750D01*
X155198826Y-73267642D01*
X155195316Y-73291303D01*
X155189504Y-73314507D01*
X155181446Y-73337029D01*
X155171218Y-73358653D01*
X155158921Y-73379170D01*
X155144671Y-73398383D01*
X155128607Y-73416107D01*
X155110883Y-73432171D01*
X155091670Y-73446421D01*
X155071153Y-73458718D01*
X155049529Y-73468946D01*
X155027007Y-73477004D01*
X155003803Y-73482816D01*
X154980142Y-73486326D01*
X154956250Y-73487500D01*
X154043750Y-73487500D01*
X154019858Y-73486326D01*
X153996197Y-73482816D01*
X153972993Y-73477004D01*
X153950471Y-73468946D01*
X153928847Y-73458718D01*
X153908330Y-73446421D01*
X153889117Y-73432171D01*
X153871393Y-73416107D01*
X153855329Y-73398383D01*
X153841079Y-73379170D01*
X153828782Y-73358653D01*
X153818554Y-73337029D01*
X153810496Y-73314507D01*
X153804684Y-73291303D01*
X153801174Y-73267642D01*
X153800000Y-73243750D01*
X153800000Y-72756250D01*
X153801174Y-72732358D01*
X153804684Y-72708697D01*
X153810496Y-72685493D01*
X153818554Y-72662971D01*
X153828782Y-72641347D01*
X153841079Y-72620830D01*
X153855329Y-72601617D01*
X153871393Y-72583893D01*
X153889117Y-72567829D01*
X153908330Y-72553579D01*
X153928847Y-72541282D01*
X153950471Y-72531054D01*
X153972993Y-72522996D01*
X153996197Y-72517184D01*
X154019858Y-72513674D01*
X154043750Y-72512500D01*
X154956250Y-72512500D01*
X154980142Y-72513674D01*
X154980142Y-72513674D01*
G37*
D11*
X154500000Y-73000000D03*
D10*
G36*
X156980142Y-73451174D02*
G01*
X157003803Y-73454684D01*
X157027007Y-73460496D01*
X157049529Y-73468554D01*
X157071153Y-73478782D01*
X157091670Y-73491079D01*
X157110883Y-73505329D01*
X157128607Y-73521393D01*
X157144671Y-73539117D01*
X157158921Y-73558330D01*
X157171218Y-73578847D01*
X157181446Y-73600471D01*
X157189504Y-73622993D01*
X157195316Y-73646197D01*
X157198826Y-73669858D01*
X157200000Y-73693750D01*
X157200000Y-74181250D01*
X157198826Y-74205142D01*
X157195316Y-74228803D01*
X157189504Y-74252007D01*
X157181446Y-74274529D01*
X157171218Y-74296153D01*
X157158921Y-74316670D01*
X157144671Y-74335883D01*
X157128607Y-74353607D01*
X157110883Y-74369671D01*
X157091670Y-74383921D01*
X157071153Y-74396218D01*
X157049529Y-74406446D01*
X157027007Y-74414504D01*
X157003803Y-74420316D01*
X156980142Y-74423826D01*
X156956250Y-74425000D01*
X156043750Y-74425000D01*
X156019858Y-74423826D01*
X155996197Y-74420316D01*
X155972993Y-74414504D01*
X155950471Y-74406446D01*
X155928847Y-74396218D01*
X155908330Y-74383921D01*
X155889117Y-74369671D01*
X155871393Y-74353607D01*
X155855329Y-74335883D01*
X155841079Y-74316670D01*
X155828782Y-74296153D01*
X155818554Y-74274529D01*
X155810496Y-74252007D01*
X155804684Y-74228803D01*
X155801174Y-74205142D01*
X155800000Y-74181250D01*
X155800000Y-73693750D01*
X155801174Y-73669858D01*
X155804684Y-73646197D01*
X155810496Y-73622993D01*
X155818554Y-73600471D01*
X155828782Y-73578847D01*
X155841079Y-73558330D01*
X155855329Y-73539117D01*
X155871393Y-73521393D01*
X155889117Y-73505329D01*
X155908330Y-73491079D01*
X155928847Y-73478782D01*
X155950471Y-73468554D01*
X155972993Y-73460496D01*
X155996197Y-73454684D01*
X156019858Y-73451174D01*
X156043750Y-73450000D01*
X156956250Y-73450000D01*
X156980142Y-73451174D01*
X156980142Y-73451174D01*
G37*
D11*
X156500000Y-73937500D03*
D10*
G36*
X156980142Y-71576174D02*
G01*
X157003803Y-71579684D01*
X157027007Y-71585496D01*
X157049529Y-71593554D01*
X157071153Y-71603782D01*
X157091670Y-71616079D01*
X157110883Y-71630329D01*
X157128607Y-71646393D01*
X157144671Y-71664117D01*
X157158921Y-71683330D01*
X157171218Y-71703847D01*
X157181446Y-71725471D01*
X157189504Y-71747993D01*
X157195316Y-71771197D01*
X157198826Y-71794858D01*
X157200000Y-71818750D01*
X157200000Y-72306250D01*
X157198826Y-72330142D01*
X157195316Y-72353803D01*
X157189504Y-72377007D01*
X157181446Y-72399529D01*
X157171218Y-72421153D01*
X157158921Y-72441670D01*
X157144671Y-72460883D01*
X157128607Y-72478607D01*
X157110883Y-72494671D01*
X157091670Y-72508921D01*
X157071153Y-72521218D01*
X157049529Y-72531446D01*
X157027007Y-72539504D01*
X157003803Y-72545316D01*
X156980142Y-72548826D01*
X156956250Y-72550000D01*
X156043750Y-72550000D01*
X156019858Y-72548826D01*
X155996197Y-72545316D01*
X155972993Y-72539504D01*
X155950471Y-72531446D01*
X155928847Y-72521218D01*
X155908330Y-72508921D01*
X155889117Y-72494671D01*
X155871393Y-72478607D01*
X155855329Y-72460883D01*
X155841079Y-72441670D01*
X155828782Y-72421153D01*
X155818554Y-72399529D01*
X155810496Y-72377007D01*
X155804684Y-72353803D01*
X155801174Y-72330142D01*
X155800000Y-72306250D01*
X155800000Y-71818750D01*
X155801174Y-71794858D01*
X155804684Y-71771197D01*
X155810496Y-71747993D01*
X155818554Y-71725471D01*
X155828782Y-71703847D01*
X155841079Y-71683330D01*
X155855329Y-71664117D01*
X155871393Y-71646393D01*
X155889117Y-71630329D01*
X155908330Y-71616079D01*
X155928847Y-71603782D01*
X155950471Y-71593554D01*
X155972993Y-71585496D01*
X155996197Y-71579684D01*
X156019858Y-71576174D01*
X156043750Y-71575000D01*
X156956250Y-71575000D01*
X156980142Y-71576174D01*
X156980142Y-71576174D01*
G37*
D11*
X156500000Y-72062500D03*
D10*
G36*
X150980142Y-72451174D02*
G01*
X151003803Y-72454684D01*
X151027007Y-72460496D01*
X151049529Y-72468554D01*
X151071153Y-72478782D01*
X151091670Y-72491079D01*
X151110883Y-72505329D01*
X151128607Y-72521393D01*
X151144671Y-72539117D01*
X151158921Y-72558330D01*
X151171218Y-72578847D01*
X151181446Y-72600471D01*
X151189504Y-72622993D01*
X151195316Y-72646197D01*
X151198826Y-72669858D01*
X151200000Y-72693750D01*
X151200000Y-73181250D01*
X151198826Y-73205142D01*
X151195316Y-73228803D01*
X151189504Y-73252007D01*
X151181446Y-73274529D01*
X151171218Y-73296153D01*
X151158921Y-73316670D01*
X151144671Y-73335883D01*
X151128607Y-73353607D01*
X151110883Y-73369671D01*
X151091670Y-73383921D01*
X151071153Y-73396218D01*
X151049529Y-73406446D01*
X151027007Y-73414504D01*
X151003803Y-73420316D01*
X150980142Y-73423826D01*
X150956250Y-73425000D01*
X150043750Y-73425000D01*
X150019858Y-73423826D01*
X149996197Y-73420316D01*
X149972993Y-73414504D01*
X149950471Y-73406446D01*
X149928847Y-73396218D01*
X149908330Y-73383921D01*
X149889117Y-73369671D01*
X149871393Y-73353607D01*
X149855329Y-73335883D01*
X149841079Y-73316670D01*
X149828782Y-73296153D01*
X149818554Y-73274529D01*
X149810496Y-73252007D01*
X149804684Y-73228803D01*
X149801174Y-73205142D01*
X149800000Y-73181250D01*
X149800000Y-72693750D01*
X149801174Y-72669858D01*
X149804684Y-72646197D01*
X149810496Y-72622993D01*
X149818554Y-72600471D01*
X149828782Y-72578847D01*
X149841079Y-72558330D01*
X149855329Y-72539117D01*
X149871393Y-72521393D01*
X149889117Y-72505329D01*
X149908330Y-72491079D01*
X149928847Y-72478782D01*
X149950471Y-72468554D01*
X149972993Y-72460496D01*
X149996197Y-72454684D01*
X150019858Y-72451174D01*
X150043750Y-72450000D01*
X150956250Y-72450000D01*
X150980142Y-72451174D01*
X150980142Y-72451174D01*
G37*
D11*
X150500000Y-72937500D03*
D10*
G36*
X150980142Y-70576174D02*
G01*
X151003803Y-70579684D01*
X151027007Y-70585496D01*
X151049529Y-70593554D01*
X151071153Y-70603782D01*
X151091670Y-70616079D01*
X151110883Y-70630329D01*
X151128607Y-70646393D01*
X151144671Y-70664117D01*
X151158921Y-70683330D01*
X151171218Y-70703847D01*
X151181446Y-70725471D01*
X151189504Y-70747993D01*
X151195316Y-70771197D01*
X151198826Y-70794858D01*
X151200000Y-70818750D01*
X151200000Y-71306250D01*
X151198826Y-71330142D01*
X151195316Y-71353803D01*
X151189504Y-71377007D01*
X151181446Y-71399529D01*
X151171218Y-71421153D01*
X151158921Y-71441670D01*
X151144671Y-71460883D01*
X151128607Y-71478607D01*
X151110883Y-71494671D01*
X151091670Y-71508921D01*
X151071153Y-71521218D01*
X151049529Y-71531446D01*
X151027007Y-71539504D01*
X151003803Y-71545316D01*
X150980142Y-71548826D01*
X150956250Y-71550000D01*
X150043750Y-71550000D01*
X150019858Y-71548826D01*
X149996197Y-71545316D01*
X149972993Y-71539504D01*
X149950471Y-71531446D01*
X149928847Y-71521218D01*
X149908330Y-71508921D01*
X149889117Y-71494671D01*
X149871393Y-71478607D01*
X149855329Y-71460883D01*
X149841079Y-71441670D01*
X149828782Y-71421153D01*
X149818554Y-71399529D01*
X149810496Y-71377007D01*
X149804684Y-71353803D01*
X149801174Y-71330142D01*
X149800000Y-71306250D01*
X149800000Y-70818750D01*
X149801174Y-70794858D01*
X149804684Y-70771197D01*
X149810496Y-70747993D01*
X149818554Y-70725471D01*
X149828782Y-70703847D01*
X149841079Y-70683330D01*
X149855329Y-70664117D01*
X149871393Y-70646393D01*
X149889117Y-70630329D01*
X149908330Y-70616079D01*
X149928847Y-70603782D01*
X149950471Y-70593554D01*
X149972993Y-70585496D01*
X149996197Y-70579684D01*
X150019858Y-70576174D01*
X150043750Y-70575000D01*
X150956250Y-70575000D01*
X150980142Y-70576174D01*
X150980142Y-70576174D01*
G37*
D11*
X150500000Y-71062500D03*
D10*
G36*
X152980142Y-71513674D02*
G01*
X153003803Y-71517184D01*
X153027007Y-71522996D01*
X153049529Y-71531054D01*
X153071153Y-71541282D01*
X153091670Y-71553579D01*
X153110883Y-71567829D01*
X153128607Y-71583893D01*
X153144671Y-71601617D01*
X153158921Y-71620830D01*
X153171218Y-71641347D01*
X153181446Y-71662971D01*
X153189504Y-71685493D01*
X153195316Y-71708697D01*
X153198826Y-71732358D01*
X153200000Y-71756250D01*
X153200000Y-72243750D01*
X153198826Y-72267642D01*
X153195316Y-72291303D01*
X153189504Y-72314507D01*
X153181446Y-72337029D01*
X153171218Y-72358653D01*
X153158921Y-72379170D01*
X153144671Y-72398383D01*
X153128607Y-72416107D01*
X153110883Y-72432171D01*
X153091670Y-72446421D01*
X153071153Y-72458718D01*
X153049529Y-72468946D01*
X153027007Y-72477004D01*
X153003803Y-72482816D01*
X152980142Y-72486326D01*
X152956250Y-72487500D01*
X152043750Y-72487500D01*
X152019858Y-72486326D01*
X151996197Y-72482816D01*
X151972993Y-72477004D01*
X151950471Y-72468946D01*
X151928847Y-72458718D01*
X151908330Y-72446421D01*
X151889117Y-72432171D01*
X151871393Y-72416107D01*
X151855329Y-72398383D01*
X151841079Y-72379170D01*
X151828782Y-72358653D01*
X151818554Y-72337029D01*
X151810496Y-72314507D01*
X151804684Y-72291303D01*
X151801174Y-72267642D01*
X151800000Y-72243750D01*
X151800000Y-71756250D01*
X151801174Y-71732358D01*
X151804684Y-71708697D01*
X151810496Y-71685493D01*
X151818554Y-71662971D01*
X151828782Y-71641347D01*
X151841079Y-71620830D01*
X151855329Y-71601617D01*
X151871393Y-71583893D01*
X151889117Y-71567829D01*
X151908330Y-71553579D01*
X151928847Y-71541282D01*
X151950471Y-71531054D01*
X151972993Y-71522996D01*
X151996197Y-71517184D01*
X152019858Y-71513674D01*
X152043750Y-71512500D01*
X152956250Y-71512500D01*
X152980142Y-71513674D01*
X152980142Y-71513674D01*
G37*
D11*
X152500000Y-72000000D03*
D10*
G36*
X152980142Y-73388674D02*
G01*
X153003803Y-73392184D01*
X153027007Y-73397996D01*
X153049529Y-73406054D01*
X153071153Y-73416282D01*
X153091670Y-73428579D01*
X153110883Y-73442829D01*
X153128607Y-73458893D01*
X153144671Y-73476617D01*
X153158921Y-73495830D01*
X153171218Y-73516347D01*
X153181446Y-73537971D01*
X153189504Y-73560493D01*
X153195316Y-73583697D01*
X153198826Y-73607358D01*
X153200000Y-73631250D01*
X153200000Y-74118750D01*
X153198826Y-74142642D01*
X153195316Y-74166303D01*
X153189504Y-74189507D01*
X153181446Y-74212029D01*
X153171218Y-74233653D01*
X153158921Y-74254170D01*
X153144671Y-74273383D01*
X153128607Y-74291107D01*
X153110883Y-74307171D01*
X153091670Y-74321421D01*
X153071153Y-74333718D01*
X153049529Y-74343946D01*
X153027007Y-74352004D01*
X153003803Y-74357816D01*
X152980142Y-74361326D01*
X152956250Y-74362500D01*
X152043750Y-74362500D01*
X152019858Y-74361326D01*
X151996197Y-74357816D01*
X151972993Y-74352004D01*
X151950471Y-74343946D01*
X151928847Y-74333718D01*
X151908330Y-74321421D01*
X151889117Y-74307171D01*
X151871393Y-74291107D01*
X151855329Y-74273383D01*
X151841079Y-74254170D01*
X151828782Y-74233653D01*
X151818554Y-74212029D01*
X151810496Y-74189507D01*
X151804684Y-74166303D01*
X151801174Y-74142642D01*
X151800000Y-74118750D01*
X151800000Y-73631250D01*
X151801174Y-73607358D01*
X151804684Y-73583697D01*
X151810496Y-73560493D01*
X151818554Y-73537971D01*
X151828782Y-73516347D01*
X151841079Y-73495830D01*
X151855329Y-73476617D01*
X151871393Y-73458893D01*
X151889117Y-73442829D01*
X151908330Y-73428579D01*
X151928847Y-73416282D01*
X151950471Y-73406054D01*
X151972993Y-73397996D01*
X151996197Y-73392184D01*
X152019858Y-73388674D01*
X152043750Y-73387500D01*
X152956250Y-73387500D01*
X152980142Y-73388674D01*
X152980142Y-73388674D01*
G37*
D11*
X152500000Y-73875000D03*
D10*
G36*
X150980142Y-75763674D02*
G01*
X151003803Y-75767184D01*
X151027007Y-75772996D01*
X151049529Y-75781054D01*
X151071153Y-75791282D01*
X151091670Y-75803579D01*
X151110883Y-75817829D01*
X151128607Y-75833893D01*
X151144671Y-75851617D01*
X151158921Y-75870830D01*
X151171218Y-75891347D01*
X151181446Y-75912971D01*
X151189504Y-75935493D01*
X151195316Y-75958697D01*
X151198826Y-75982358D01*
X151200000Y-76006250D01*
X151200000Y-76493750D01*
X151198826Y-76517642D01*
X151195316Y-76541303D01*
X151189504Y-76564507D01*
X151181446Y-76587029D01*
X151171218Y-76608653D01*
X151158921Y-76629170D01*
X151144671Y-76648383D01*
X151128607Y-76666107D01*
X151110883Y-76682171D01*
X151091670Y-76696421D01*
X151071153Y-76708718D01*
X151049529Y-76718946D01*
X151027007Y-76727004D01*
X151003803Y-76732816D01*
X150980142Y-76736326D01*
X150956250Y-76737500D01*
X150043750Y-76737500D01*
X150019858Y-76736326D01*
X149996197Y-76732816D01*
X149972993Y-76727004D01*
X149950471Y-76718946D01*
X149928847Y-76708718D01*
X149908330Y-76696421D01*
X149889117Y-76682171D01*
X149871393Y-76666107D01*
X149855329Y-76648383D01*
X149841079Y-76629170D01*
X149828782Y-76608653D01*
X149818554Y-76587029D01*
X149810496Y-76564507D01*
X149804684Y-76541303D01*
X149801174Y-76517642D01*
X149800000Y-76493750D01*
X149800000Y-76006250D01*
X149801174Y-75982358D01*
X149804684Y-75958697D01*
X149810496Y-75935493D01*
X149818554Y-75912971D01*
X149828782Y-75891347D01*
X149841079Y-75870830D01*
X149855329Y-75851617D01*
X149871393Y-75833893D01*
X149889117Y-75817829D01*
X149908330Y-75803579D01*
X149928847Y-75791282D01*
X149950471Y-75781054D01*
X149972993Y-75772996D01*
X149996197Y-75767184D01*
X150019858Y-75763674D01*
X150043750Y-75762500D01*
X150956250Y-75762500D01*
X150980142Y-75763674D01*
X150980142Y-75763674D01*
G37*
D11*
X150500000Y-76250000D03*
D10*
G36*
X150980142Y-77638674D02*
G01*
X151003803Y-77642184D01*
X151027007Y-77647996D01*
X151049529Y-77656054D01*
X151071153Y-77666282D01*
X151091670Y-77678579D01*
X151110883Y-77692829D01*
X151128607Y-77708893D01*
X151144671Y-77726617D01*
X151158921Y-77745830D01*
X151171218Y-77766347D01*
X151181446Y-77787971D01*
X151189504Y-77810493D01*
X151195316Y-77833697D01*
X151198826Y-77857358D01*
X151200000Y-77881250D01*
X151200000Y-78368750D01*
X151198826Y-78392642D01*
X151195316Y-78416303D01*
X151189504Y-78439507D01*
X151181446Y-78462029D01*
X151171218Y-78483653D01*
X151158921Y-78504170D01*
X151144671Y-78523383D01*
X151128607Y-78541107D01*
X151110883Y-78557171D01*
X151091670Y-78571421D01*
X151071153Y-78583718D01*
X151049529Y-78593946D01*
X151027007Y-78602004D01*
X151003803Y-78607816D01*
X150980142Y-78611326D01*
X150956250Y-78612500D01*
X150043750Y-78612500D01*
X150019858Y-78611326D01*
X149996197Y-78607816D01*
X149972993Y-78602004D01*
X149950471Y-78593946D01*
X149928847Y-78583718D01*
X149908330Y-78571421D01*
X149889117Y-78557171D01*
X149871393Y-78541107D01*
X149855329Y-78523383D01*
X149841079Y-78504170D01*
X149828782Y-78483653D01*
X149818554Y-78462029D01*
X149810496Y-78439507D01*
X149804684Y-78416303D01*
X149801174Y-78392642D01*
X149800000Y-78368750D01*
X149800000Y-77881250D01*
X149801174Y-77857358D01*
X149804684Y-77833697D01*
X149810496Y-77810493D01*
X149818554Y-77787971D01*
X149828782Y-77766347D01*
X149841079Y-77745830D01*
X149855329Y-77726617D01*
X149871393Y-77708893D01*
X149889117Y-77692829D01*
X149908330Y-77678579D01*
X149928847Y-77666282D01*
X149950471Y-77656054D01*
X149972993Y-77647996D01*
X149996197Y-77642184D01*
X150019858Y-77638674D01*
X150043750Y-77637500D01*
X150956250Y-77637500D01*
X150980142Y-77638674D01*
X150980142Y-77638674D01*
G37*
D11*
X150500000Y-78125000D03*
D10*
G36*
X152980142Y-77638674D02*
G01*
X153003803Y-77642184D01*
X153027007Y-77647996D01*
X153049529Y-77656054D01*
X153071153Y-77666282D01*
X153091670Y-77678579D01*
X153110883Y-77692829D01*
X153128607Y-77708893D01*
X153144671Y-77726617D01*
X153158921Y-77745830D01*
X153171218Y-77766347D01*
X153181446Y-77787971D01*
X153189504Y-77810493D01*
X153195316Y-77833697D01*
X153198826Y-77857358D01*
X153200000Y-77881250D01*
X153200000Y-78368750D01*
X153198826Y-78392642D01*
X153195316Y-78416303D01*
X153189504Y-78439507D01*
X153181446Y-78462029D01*
X153171218Y-78483653D01*
X153158921Y-78504170D01*
X153144671Y-78523383D01*
X153128607Y-78541107D01*
X153110883Y-78557171D01*
X153091670Y-78571421D01*
X153071153Y-78583718D01*
X153049529Y-78593946D01*
X153027007Y-78602004D01*
X153003803Y-78607816D01*
X152980142Y-78611326D01*
X152956250Y-78612500D01*
X152043750Y-78612500D01*
X152019858Y-78611326D01*
X151996197Y-78607816D01*
X151972993Y-78602004D01*
X151950471Y-78593946D01*
X151928847Y-78583718D01*
X151908330Y-78571421D01*
X151889117Y-78557171D01*
X151871393Y-78541107D01*
X151855329Y-78523383D01*
X151841079Y-78504170D01*
X151828782Y-78483653D01*
X151818554Y-78462029D01*
X151810496Y-78439507D01*
X151804684Y-78416303D01*
X151801174Y-78392642D01*
X151800000Y-78368750D01*
X151800000Y-77881250D01*
X151801174Y-77857358D01*
X151804684Y-77833697D01*
X151810496Y-77810493D01*
X151818554Y-77787971D01*
X151828782Y-77766347D01*
X151841079Y-77745830D01*
X151855329Y-77726617D01*
X151871393Y-77708893D01*
X151889117Y-77692829D01*
X151908330Y-77678579D01*
X151928847Y-77666282D01*
X151950471Y-77656054D01*
X151972993Y-77647996D01*
X151996197Y-77642184D01*
X152019858Y-77638674D01*
X152043750Y-77637500D01*
X152956250Y-77637500D01*
X152980142Y-77638674D01*
X152980142Y-77638674D01*
G37*
D11*
X152500000Y-78125000D03*
D10*
G36*
X152980142Y-75763674D02*
G01*
X153003803Y-75767184D01*
X153027007Y-75772996D01*
X153049529Y-75781054D01*
X153071153Y-75791282D01*
X153091670Y-75803579D01*
X153110883Y-75817829D01*
X153128607Y-75833893D01*
X153144671Y-75851617D01*
X153158921Y-75870830D01*
X153171218Y-75891347D01*
X153181446Y-75912971D01*
X153189504Y-75935493D01*
X153195316Y-75958697D01*
X153198826Y-75982358D01*
X153200000Y-76006250D01*
X153200000Y-76493750D01*
X153198826Y-76517642D01*
X153195316Y-76541303D01*
X153189504Y-76564507D01*
X153181446Y-76587029D01*
X153171218Y-76608653D01*
X153158921Y-76629170D01*
X153144671Y-76648383D01*
X153128607Y-76666107D01*
X153110883Y-76682171D01*
X153091670Y-76696421D01*
X153071153Y-76708718D01*
X153049529Y-76718946D01*
X153027007Y-76727004D01*
X153003803Y-76732816D01*
X152980142Y-76736326D01*
X152956250Y-76737500D01*
X152043750Y-76737500D01*
X152019858Y-76736326D01*
X151996197Y-76732816D01*
X151972993Y-76727004D01*
X151950471Y-76718946D01*
X151928847Y-76708718D01*
X151908330Y-76696421D01*
X151889117Y-76682171D01*
X151871393Y-76666107D01*
X151855329Y-76648383D01*
X151841079Y-76629170D01*
X151828782Y-76608653D01*
X151818554Y-76587029D01*
X151810496Y-76564507D01*
X151804684Y-76541303D01*
X151801174Y-76517642D01*
X151800000Y-76493750D01*
X151800000Y-76006250D01*
X151801174Y-75982358D01*
X151804684Y-75958697D01*
X151810496Y-75935493D01*
X151818554Y-75912971D01*
X151828782Y-75891347D01*
X151841079Y-75870830D01*
X151855329Y-75851617D01*
X151871393Y-75833893D01*
X151889117Y-75817829D01*
X151908330Y-75803579D01*
X151928847Y-75791282D01*
X151950471Y-75781054D01*
X151972993Y-75772996D01*
X151996197Y-75767184D01*
X152019858Y-75763674D01*
X152043750Y-75762500D01*
X152956250Y-75762500D01*
X152980142Y-75763674D01*
X152980142Y-75763674D01*
G37*
D11*
X152500000Y-76250000D03*
D10*
G36*
X163455142Y-79801174D02*
G01*
X163478803Y-79804684D01*
X163502007Y-79810496D01*
X163524529Y-79818554D01*
X163546153Y-79828782D01*
X163566670Y-79841079D01*
X163585883Y-79855329D01*
X163603607Y-79871393D01*
X163619671Y-79889117D01*
X163633921Y-79908330D01*
X163646218Y-79928847D01*
X163656446Y-79950471D01*
X163664504Y-79972993D01*
X163670316Y-79996197D01*
X163673826Y-80019858D01*
X163675000Y-80043750D01*
X163675000Y-80956250D01*
X163673826Y-80980142D01*
X163670316Y-81003803D01*
X163664504Y-81027007D01*
X163656446Y-81049529D01*
X163646218Y-81071153D01*
X163633921Y-81091670D01*
X163619671Y-81110883D01*
X163603607Y-81128607D01*
X163585883Y-81144671D01*
X163566670Y-81158921D01*
X163546153Y-81171218D01*
X163524529Y-81181446D01*
X163502007Y-81189504D01*
X163478803Y-81195316D01*
X163455142Y-81198826D01*
X163431250Y-81200000D01*
X162943750Y-81200000D01*
X162919858Y-81198826D01*
X162896197Y-81195316D01*
X162872993Y-81189504D01*
X162850471Y-81181446D01*
X162828847Y-81171218D01*
X162808330Y-81158921D01*
X162789117Y-81144671D01*
X162771393Y-81128607D01*
X162755329Y-81110883D01*
X162741079Y-81091670D01*
X162728782Y-81071153D01*
X162718554Y-81049529D01*
X162710496Y-81027007D01*
X162704684Y-81003803D01*
X162701174Y-80980142D01*
X162700000Y-80956250D01*
X162700000Y-80043750D01*
X162701174Y-80019858D01*
X162704684Y-79996197D01*
X162710496Y-79972993D01*
X162718554Y-79950471D01*
X162728782Y-79928847D01*
X162741079Y-79908330D01*
X162755329Y-79889117D01*
X162771393Y-79871393D01*
X162789117Y-79855329D01*
X162808330Y-79841079D01*
X162828847Y-79828782D01*
X162850471Y-79818554D01*
X162872993Y-79810496D01*
X162896197Y-79804684D01*
X162919858Y-79801174D01*
X162943750Y-79800000D01*
X163431250Y-79800000D01*
X163455142Y-79801174D01*
X163455142Y-79801174D01*
G37*
D11*
X163187500Y-80500000D03*
D10*
G36*
X161580142Y-79801174D02*
G01*
X161603803Y-79804684D01*
X161627007Y-79810496D01*
X161649529Y-79818554D01*
X161671153Y-79828782D01*
X161691670Y-79841079D01*
X161710883Y-79855329D01*
X161728607Y-79871393D01*
X161744671Y-79889117D01*
X161758921Y-79908330D01*
X161771218Y-79928847D01*
X161781446Y-79950471D01*
X161789504Y-79972993D01*
X161795316Y-79996197D01*
X161798826Y-80019858D01*
X161800000Y-80043750D01*
X161800000Y-80956250D01*
X161798826Y-80980142D01*
X161795316Y-81003803D01*
X161789504Y-81027007D01*
X161781446Y-81049529D01*
X161771218Y-81071153D01*
X161758921Y-81091670D01*
X161744671Y-81110883D01*
X161728607Y-81128607D01*
X161710883Y-81144671D01*
X161691670Y-81158921D01*
X161671153Y-81171218D01*
X161649529Y-81181446D01*
X161627007Y-81189504D01*
X161603803Y-81195316D01*
X161580142Y-81198826D01*
X161556250Y-81200000D01*
X161068750Y-81200000D01*
X161044858Y-81198826D01*
X161021197Y-81195316D01*
X160997993Y-81189504D01*
X160975471Y-81181446D01*
X160953847Y-81171218D01*
X160933330Y-81158921D01*
X160914117Y-81144671D01*
X160896393Y-81128607D01*
X160880329Y-81110883D01*
X160866079Y-81091670D01*
X160853782Y-81071153D01*
X160843554Y-81049529D01*
X160835496Y-81027007D01*
X160829684Y-81003803D01*
X160826174Y-80980142D01*
X160825000Y-80956250D01*
X160825000Y-80043750D01*
X160826174Y-80019858D01*
X160829684Y-79996197D01*
X160835496Y-79972993D01*
X160843554Y-79950471D01*
X160853782Y-79928847D01*
X160866079Y-79908330D01*
X160880329Y-79889117D01*
X160896393Y-79871393D01*
X160914117Y-79855329D01*
X160933330Y-79841079D01*
X160953847Y-79828782D01*
X160975471Y-79818554D01*
X160997993Y-79810496D01*
X161021197Y-79804684D01*
X161044858Y-79801174D01*
X161068750Y-79800000D01*
X161556250Y-79800000D01*
X161580142Y-79801174D01*
X161580142Y-79801174D01*
G37*
D11*
X161312500Y-80500000D03*
D10*
G36*
X163455142Y-77801174D02*
G01*
X163478803Y-77804684D01*
X163502007Y-77810496D01*
X163524529Y-77818554D01*
X163546153Y-77828782D01*
X163566670Y-77841079D01*
X163585883Y-77855329D01*
X163603607Y-77871393D01*
X163619671Y-77889117D01*
X163633921Y-77908330D01*
X163646218Y-77928847D01*
X163656446Y-77950471D01*
X163664504Y-77972993D01*
X163670316Y-77996197D01*
X163673826Y-78019858D01*
X163675000Y-78043750D01*
X163675000Y-78956250D01*
X163673826Y-78980142D01*
X163670316Y-79003803D01*
X163664504Y-79027007D01*
X163656446Y-79049529D01*
X163646218Y-79071153D01*
X163633921Y-79091670D01*
X163619671Y-79110883D01*
X163603607Y-79128607D01*
X163585883Y-79144671D01*
X163566670Y-79158921D01*
X163546153Y-79171218D01*
X163524529Y-79181446D01*
X163502007Y-79189504D01*
X163478803Y-79195316D01*
X163455142Y-79198826D01*
X163431250Y-79200000D01*
X162943750Y-79200000D01*
X162919858Y-79198826D01*
X162896197Y-79195316D01*
X162872993Y-79189504D01*
X162850471Y-79181446D01*
X162828847Y-79171218D01*
X162808330Y-79158921D01*
X162789117Y-79144671D01*
X162771393Y-79128607D01*
X162755329Y-79110883D01*
X162741079Y-79091670D01*
X162728782Y-79071153D01*
X162718554Y-79049529D01*
X162710496Y-79027007D01*
X162704684Y-79003803D01*
X162701174Y-78980142D01*
X162700000Y-78956250D01*
X162700000Y-78043750D01*
X162701174Y-78019858D01*
X162704684Y-77996197D01*
X162710496Y-77972993D01*
X162718554Y-77950471D01*
X162728782Y-77928847D01*
X162741079Y-77908330D01*
X162755329Y-77889117D01*
X162771393Y-77871393D01*
X162789117Y-77855329D01*
X162808330Y-77841079D01*
X162828847Y-77828782D01*
X162850471Y-77818554D01*
X162872993Y-77810496D01*
X162896197Y-77804684D01*
X162919858Y-77801174D01*
X162943750Y-77800000D01*
X163431250Y-77800000D01*
X163455142Y-77801174D01*
X163455142Y-77801174D01*
G37*
D11*
X163187500Y-78500000D03*
D10*
G36*
X161580142Y-77801174D02*
G01*
X161603803Y-77804684D01*
X161627007Y-77810496D01*
X161649529Y-77818554D01*
X161671153Y-77828782D01*
X161691670Y-77841079D01*
X161710883Y-77855329D01*
X161728607Y-77871393D01*
X161744671Y-77889117D01*
X161758921Y-77908330D01*
X161771218Y-77928847D01*
X161781446Y-77950471D01*
X161789504Y-77972993D01*
X161795316Y-77996197D01*
X161798826Y-78019858D01*
X161800000Y-78043750D01*
X161800000Y-78956250D01*
X161798826Y-78980142D01*
X161795316Y-79003803D01*
X161789504Y-79027007D01*
X161781446Y-79049529D01*
X161771218Y-79071153D01*
X161758921Y-79091670D01*
X161744671Y-79110883D01*
X161728607Y-79128607D01*
X161710883Y-79144671D01*
X161691670Y-79158921D01*
X161671153Y-79171218D01*
X161649529Y-79181446D01*
X161627007Y-79189504D01*
X161603803Y-79195316D01*
X161580142Y-79198826D01*
X161556250Y-79200000D01*
X161068750Y-79200000D01*
X161044858Y-79198826D01*
X161021197Y-79195316D01*
X160997993Y-79189504D01*
X160975471Y-79181446D01*
X160953847Y-79171218D01*
X160933330Y-79158921D01*
X160914117Y-79144671D01*
X160896393Y-79128607D01*
X160880329Y-79110883D01*
X160866079Y-79091670D01*
X160853782Y-79071153D01*
X160843554Y-79049529D01*
X160835496Y-79027007D01*
X160829684Y-79003803D01*
X160826174Y-78980142D01*
X160825000Y-78956250D01*
X160825000Y-78043750D01*
X160826174Y-78019858D01*
X160829684Y-77996197D01*
X160835496Y-77972993D01*
X160843554Y-77950471D01*
X160853782Y-77928847D01*
X160866079Y-77908330D01*
X160880329Y-77889117D01*
X160896393Y-77871393D01*
X160914117Y-77855329D01*
X160933330Y-77841079D01*
X160953847Y-77828782D01*
X160975471Y-77818554D01*
X160997993Y-77810496D01*
X161021197Y-77804684D01*
X161044858Y-77801174D01*
X161068750Y-77800000D01*
X161556250Y-77800000D01*
X161580142Y-77801174D01*
X161580142Y-77801174D01*
G37*
D11*
X161312500Y-78500000D03*
D10*
G36*
X161705142Y-68301174D02*
G01*
X161728803Y-68304684D01*
X161752007Y-68310496D01*
X161774529Y-68318554D01*
X161796153Y-68328782D01*
X161816670Y-68341079D01*
X161835883Y-68355329D01*
X161853607Y-68371393D01*
X161869671Y-68389117D01*
X161883921Y-68408330D01*
X161896218Y-68428847D01*
X161906446Y-68450471D01*
X161914504Y-68472993D01*
X161920316Y-68496197D01*
X161923826Y-68519858D01*
X161925000Y-68543750D01*
X161925000Y-69456250D01*
X161923826Y-69480142D01*
X161920316Y-69503803D01*
X161914504Y-69527007D01*
X161906446Y-69549529D01*
X161896218Y-69571153D01*
X161883921Y-69591670D01*
X161869671Y-69610883D01*
X161853607Y-69628607D01*
X161835883Y-69644671D01*
X161816670Y-69658921D01*
X161796153Y-69671218D01*
X161774529Y-69681446D01*
X161752007Y-69689504D01*
X161728803Y-69695316D01*
X161705142Y-69698826D01*
X161681250Y-69700000D01*
X161193750Y-69700000D01*
X161169858Y-69698826D01*
X161146197Y-69695316D01*
X161122993Y-69689504D01*
X161100471Y-69681446D01*
X161078847Y-69671218D01*
X161058330Y-69658921D01*
X161039117Y-69644671D01*
X161021393Y-69628607D01*
X161005329Y-69610883D01*
X160991079Y-69591670D01*
X160978782Y-69571153D01*
X160968554Y-69549529D01*
X160960496Y-69527007D01*
X160954684Y-69503803D01*
X160951174Y-69480142D01*
X160950000Y-69456250D01*
X160950000Y-68543750D01*
X160951174Y-68519858D01*
X160954684Y-68496197D01*
X160960496Y-68472993D01*
X160968554Y-68450471D01*
X160978782Y-68428847D01*
X160991079Y-68408330D01*
X161005329Y-68389117D01*
X161021393Y-68371393D01*
X161039117Y-68355329D01*
X161058330Y-68341079D01*
X161078847Y-68328782D01*
X161100471Y-68318554D01*
X161122993Y-68310496D01*
X161146197Y-68304684D01*
X161169858Y-68301174D01*
X161193750Y-68300000D01*
X161681250Y-68300000D01*
X161705142Y-68301174D01*
X161705142Y-68301174D01*
G37*
D11*
X161437500Y-69000000D03*
D10*
G36*
X159830142Y-68301174D02*
G01*
X159853803Y-68304684D01*
X159877007Y-68310496D01*
X159899529Y-68318554D01*
X159921153Y-68328782D01*
X159941670Y-68341079D01*
X159960883Y-68355329D01*
X159978607Y-68371393D01*
X159994671Y-68389117D01*
X160008921Y-68408330D01*
X160021218Y-68428847D01*
X160031446Y-68450471D01*
X160039504Y-68472993D01*
X160045316Y-68496197D01*
X160048826Y-68519858D01*
X160050000Y-68543750D01*
X160050000Y-69456250D01*
X160048826Y-69480142D01*
X160045316Y-69503803D01*
X160039504Y-69527007D01*
X160031446Y-69549529D01*
X160021218Y-69571153D01*
X160008921Y-69591670D01*
X159994671Y-69610883D01*
X159978607Y-69628607D01*
X159960883Y-69644671D01*
X159941670Y-69658921D01*
X159921153Y-69671218D01*
X159899529Y-69681446D01*
X159877007Y-69689504D01*
X159853803Y-69695316D01*
X159830142Y-69698826D01*
X159806250Y-69700000D01*
X159318750Y-69700000D01*
X159294858Y-69698826D01*
X159271197Y-69695316D01*
X159247993Y-69689504D01*
X159225471Y-69681446D01*
X159203847Y-69671218D01*
X159183330Y-69658921D01*
X159164117Y-69644671D01*
X159146393Y-69628607D01*
X159130329Y-69610883D01*
X159116079Y-69591670D01*
X159103782Y-69571153D01*
X159093554Y-69549529D01*
X159085496Y-69527007D01*
X159079684Y-69503803D01*
X159076174Y-69480142D01*
X159075000Y-69456250D01*
X159075000Y-68543750D01*
X159076174Y-68519858D01*
X159079684Y-68496197D01*
X159085496Y-68472993D01*
X159093554Y-68450471D01*
X159103782Y-68428847D01*
X159116079Y-68408330D01*
X159130329Y-68389117D01*
X159146393Y-68371393D01*
X159164117Y-68355329D01*
X159183330Y-68341079D01*
X159203847Y-68328782D01*
X159225471Y-68318554D01*
X159247993Y-68310496D01*
X159271197Y-68304684D01*
X159294858Y-68301174D01*
X159318750Y-68300000D01*
X159806250Y-68300000D01*
X159830142Y-68301174D01*
X159830142Y-68301174D01*
G37*
D11*
X159562500Y-69000000D03*
D10*
G36*
X156980142Y-77638674D02*
G01*
X157003803Y-77642184D01*
X157027007Y-77647996D01*
X157049529Y-77656054D01*
X157071153Y-77666282D01*
X157091670Y-77678579D01*
X157110883Y-77692829D01*
X157128607Y-77708893D01*
X157144671Y-77726617D01*
X157158921Y-77745830D01*
X157171218Y-77766347D01*
X157181446Y-77787971D01*
X157189504Y-77810493D01*
X157195316Y-77833697D01*
X157198826Y-77857358D01*
X157200000Y-77881250D01*
X157200000Y-78368750D01*
X157198826Y-78392642D01*
X157195316Y-78416303D01*
X157189504Y-78439507D01*
X157181446Y-78462029D01*
X157171218Y-78483653D01*
X157158921Y-78504170D01*
X157144671Y-78523383D01*
X157128607Y-78541107D01*
X157110883Y-78557171D01*
X157091670Y-78571421D01*
X157071153Y-78583718D01*
X157049529Y-78593946D01*
X157027007Y-78602004D01*
X157003803Y-78607816D01*
X156980142Y-78611326D01*
X156956250Y-78612500D01*
X156043750Y-78612500D01*
X156019858Y-78611326D01*
X155996197Y-78607816D01*
X155972993Y-78602004D01*
X155950471Y-78593946D01*
X155928847Y-78583718D01*
X155908330Y-78571421D01*
X155889117Y-78557171D01*
X155871393Y-78541107D01*
X155855329Y-78523383D01*
X155841079Y-78504170D01*
X155828782Y-78483653D01*
X155818554Y-78462029D01*
X155810496Y-78439507D01*
X155804684Y-78416303D01*
X155801174Y-78392642D01*
X155800000Y-78368750D01*
X155800000Y-77881250D01*
X155801174Y-77857358D01*
X155804684Y-77833697D01*
X155810496Y-77810493D01*
X155818554Y-77787971D01*
X155828782Y-77766347D01*
X155841079Y-77745830D01*
X155855329Y-77726617D01*
X155871393Y-77708893D01*
X155889117Y-77692829D01*
X155908330Y-77678579D01*
X155928847Y-77666282D01*
X155950471Y-77656054D01*
X155972993Y-77647996D01*
X155996197Y-77642184D01*
X156019858Y-77638674D01*
X156043750Y-77637500D01*
X156956250Y-77637500D01*
X156980142Y-77638674D01*
X156980142Y-77638674D01*
G37*
D11*
X156500000Y-78125000D03*
D10*
G36*
X156980142Y-75763674D02*
G01*
X157003803Y-75767184D01*
X157027007Y-75772996D01*
X157049529Y-75781054D01*
X157071153Y-75791282D01*
X157091670Y-75803579D01*
X157110883Y-75817829D01*
X157128607Y-75833893D01*
X157144671Y-75851617D01*
X157158921Y-75870830D01*
X157171218Y-75891347D01*
X157181446Y-75912971D01*
X157189504Y-75935493D01*
X157195316Y-75958697D01*
X157198826Y-75982358D01*
X157200000Y-76006250D01*
X157200000Y-76493750D01*
X157198826Y-76517642D01*
X157195316Y-76541303D01*
X157189504Y-76564507D01*
X157181446Y-76587029D01*
X157171218Y-76608653D01*
X157158921Y-76629170D01*
X157144671Y-76648383D01*
X157128607Y-76666107D01*
X157110883Y-76682171D01*
X157091670Y-76696421D01*
X157071153Y-76708718D01*
X157049529Y-76718946D01*
X157027007Y-76727004D01*
X157003803Y-76732816D01*
X156980142Y-76736326D01*
X156956250Y-76737500D01*
X156043750Y-76737500D01*
X156019858Y-76736326D01*
X155996197Y-76732816D01*
X155972993Y-76727004D01*
X155950471Y-76718946D01*
X155928847Y-76708718D01*
X155908330Y-76696421D01*
X155889117Y-76682171D01*
X155871393Y-76666107D01*
X155855329Y-76648383D01*
X155841079Y-76629170D01*
X155828782Y-76608653D01*
X155818554Y-76587029D01*
X155810496Y-76564507D01*
X155804684Y-76541303D01*
X155801174Y-76517642D01*
X155800000Y-76493750D01*
X155800000Y-76006250D01*
X155801174Y-75982358D01*
X155804684Y-75958697D01*
X155810496Y-75935493D01*
X155818554Y-75912971D01*
X155828782Y-75891347D01*
X155841079Y-75870830D01*
X155855329Y-75851617D01*
X155871393Y-75833893D01*
X155889117Y-75817829D01*
X155908330Y-75803579D01*
X155928847Y-75791282D01*
X155950471Y-75781054D01*
X155972993Y-75772996D01*
X155996197Y-75767184D01*
X156019858Y-75763674D01*
X156043750Y-75762500D01*
X156956250Y-75762500D01*
X156980142Y-75763674D01*
X156980142Y-75763674D01*
G37*
D11*
X156500000Y-76250000D03*
D10*
G36*
X154980142Y-77638674D02*
G01*
X155003803Y-77642184D01*
X155027007Y-77647996D01*
X155049529Y-77656054D01*
X155071153Y-77666282D01*
X155091670Y-77678579D01*
X155110883Y-77692829D01*
X155128607Y-77708893D01*
X155144671Y-77726617D01*
X155158921Y-77745830D01*
X155171218Y-77766347D01*
X155181446Y-77787971D01*
X155189504Y-77810493D01*
X155195316Y-77833697D01*
X155198826Y-77857358D01*
X155200000Y-77881250D01*
X155200000Y-78368750D01*
X155198826Y-78392642D01*
X155195316Y-78416303D01*
X155189504Y-78439507D01*
X155181446Y-78462029D01*
X155171218Y-78483653D01*
X155158921Y-78504170D01*
X155144671Y-78523383D01*
X155128607Y-78541107D01*
X155110883Y-78557171D01*
X155091670Y-78571421D01*
X155071153Y-78583718D01*
X155049529Y-78593946D01*
X155027007Y-78602004D01*
X155003803Y-78607816D01*
X154980142Y-78611326D01*
X154956250Y-78612500D01*
X154043750Y-78612500D01*
X154019858Y-78611326D01*
X153996197Y-78607816D01*
X153972993Y-78602004D01*
X153950471Y-78593946D01*
X153928847Y-78583718D01*
X153908330Y-78571421D01*
X153889117Y-78557171D01*
X153871393Y-78541107D01*
X153855329Y-78523383D01*
X153841079Y-78504170D01*
X153828782Y-78483653D01*
X153818554Y-78462029D01*
X153810496Y-78439507D01*
X153804684Y-78416303D01*
X153801174Y-78392642D01*
X153800000Y-78368750D01*
X153800000Y-77881250D01*
X153801174Y-77857358D01*
X153804684Y-77833697D01*
X153810496Y-77810493D01*
X153818554Y-77787971D01*
X153828782Y-77766347D01*
X153841079Y-77745830D01*
X153855329Y-77726617D01*
X153871393Y-77708893D01*
X153889117Y-77692829D01*
X153908330Y-77678579D01*
X153928847Y-77666282D01*
X153950471Y-77656054D01*
X153972993Y-77647996D01*
X153996197Y-77642184D01*
X154019858Y-77638674D01*
X154043750Y-77637500D01*
X154956250Y-77637500D01*
X154980142Y-77638674D01*
X154980142Y-77638674D01*
G37*
D11*
X154500000Y-78125000D03*
D10*
G36*
X154980142Y-75763674D02*
G01*
X155003803Y-75767184D01*
X155027007Y-75772996D01*
X155049529Y-75781054D01*
X155071153Y-75791282D01*
X155091670Y-75803579D01*
X155110883Y-75817829D01*
X155128607Y-75833893D01*
X155144671Y-75851617D01*
X155158921Y-75870830D01*
X155171218Y-75891347D01*
X155181446Y-75912971D01*
X155189504Y-75935493D01*
X155195316Y-75958697D01*
X155198826Y-75982358D01*
X155200000Y-76006250D01*
X155200000Y-76493750D01*
X155198826Y-76517642D01*
X155195316Y-76541303D01*
X155189504Y-76564507D01*
X155181446Y-76587029D01*
X155171218Y-76608653D01*
X155158921Y-76629170D01*
X155144671Y-76648383D01*
X155128607Y-76666107D01*
X155110883Y-76682171D01*
X155091670Y-76696421D01*
X155071153Y-76708718D01*
X155049529Y-76718946D01*
X155027007Y-76727004D01*
X155003803Y-76732816D01*
X154980142Y-76736326D01*
X154956250Y-76737500D01*
X154043750Y-76737500D01*
X154019858Y-76736326D01*
X153996197Y-76732816D01*
X153972993Y-76727004D01*
X153950471Y-76718946D01*
X153928847Y-76708718D01*
X153908330Y-76696421D01*
X153889117Y-76682171D01*
X153871393Y-76666107D01*
X153855329Y-76648383D01*
X153841079Y-76629170D01*
X153828782Y-76608653D01*
X153818554Y-76587029D01*
X153810496Y-76564507D01*
X153804684Y-76541303D01*
X153801174Y-76517642D01*
X153800000Y-76493750D01*
X153800000Y-76006250D01*
X153801174Y-75982358D01*
X153804684Y-75958697D01*
X153810496Y-75935493D01*
X153818554Y-75912971D01*
X153828782Y-75891347D01*
X153841079Y-75870830D01*
X153855329Y-75851617D01*
X153871393Y-75833893D01*
X153889117Y-75817829D01*
X153908330Y-75803579D01*
X153928847Y-75791282D01*
X153950471Y-75781054D01*
X153972993Y-75772996D01*
X153996197Y-75767184D01*
X154019858Y-75763674D01*
X154043750Y-75762500D01*
X154956250Y-75762500D01*
X154980142Y-75763674D01*
X154980142Y-75763674D01*
G37*
D11*
X154500000Y-76250000D03*
D12*
X162472500Y-76100000D03*
X161837500Y-76100000D03*
X161202500Y-76100000D03*
X160567500Y-76100000D03*
X159932500Y-76100000D03*
X159297500Y-76100000D03*
X158662500Y-76100000D03*
X158027500Y-76100000D03*
X158027500Y-70900000D03*
X158662500Y-70900000D03*
X159297500Y-70900000D03*
X159932500Y-70900000D03*
X160567500Y-70900000D03*
X161202500Y-70900000D03*
X161837500Y-70900000D03*
X162472500Y-70900000D03*
D13*
X145550000Y-73590000D03*
X145550000Y-71910000D03*
D14*
X145550000Y-75660000D03*
X145550000Y-69840000D03*
D15*
X147850000Y-75212500D03*
X147850000Y-70287500D03*
D16*
X148210000Y-74050000D03*
X148210000Y-73400000D03*
X148210000Y-72750000D03*
X148210000Y-72100000D03*
X148210000Y-71450000D03*
M02*
